<svg width="48" height="48" viewBox="0 0 48 48" fill="none" xmlns="http://www.w3.org/2000/svg">
<path d="M41.6668 9.86667C38.6454 9.06028 35.6937 8.01247 32.8402 6.73333C30.0327 5.51549 27.3226 4.08465 24.7335 2.45333L24.0002 2L23.2802 2.46667C20.691 4.09798 17.9809 5.52882 15.1735 6.74667C12.3152 8.02192 9.35902 9.06529 6.3335 9.86667L5.3335 10.12V21.24C5.3335 39.0933 23.3735 45.7733 23.5468 45.84L24.0002 46L24.4535 45.84C24.6402 45.84 42.6668 39.1067 42.6668 21.24V10.12L41.6668 9.86667ZM40.0002 21.24C40.0002 35.9067 26.6668 42.0533 24.0002 43.1467C21.3335 42.0533 8.00016 35.8933 8.00016 21.24V12.1867C10.8128 11.3781 13.566 10.3757 16.2402 9.18667C18.9145 8.03066 21.5071 6.69425 24.0002 5.18667C26.4932 6.69425 29.0859 8.03066 31.7602 9.18667C34.4343 10.3757 37.1875 11.3781 40.0002 12.1867V21.24Z" fill="white"/>
<path d="M14.5068 22.4948C14.2517 22.2763 13.9236 22.1622 13.588 22.1751C13.2525 22.1881 12.9341 22.3272 12.6967 22.5647C12.4592 22.8021 12.3201 23.1205 12.3071 23.456C12.2942 23.7916 12.4083 24.1197 12.6268 24.3748L20.6268 32.3748L35.2001 18.3614C35.4547 18.1139 35.6006 17.7753 35.6056 17.4203C35.6106 17.0652 35.4743 16.7227 35.2268 16.4681C34.9792 16.2135 34.6407 16.0676 34.2856 16.0626C33.9305 16.0576 33.588 16.1939 33.3334 16.4414L20.7068 28.6948L14.5068 22.4948Z" fill="white"/>
</svg>
