<svg width="48" height="48" viewBox="0 0 48 48" fill="none" xmlns="http://www.w3.org/2000/svg">
<path d="M41.3337 10.6641H30.667V13.3307H41.3337V41.3307H30.667V43.9974H44.0003V13.3307C44.0003 12.6235 43.7194 11.9452 43.2193 11.4451C42.7192 10.945 42.0409 10.6641 41.3337 10.6641Z" fill="white"/>
<path d="M26.5073 4H8.16065C7.41097 4 6.692 4.29781 6.1619 4.82791C5.63179 5.35801 5.33398 6.07699 5.33398 6.82667V44H29.334V6.82667C29.334 6.07699 29.0362 5.35801 28.5061 4.82791C27.976 4.29781 27.257 4 26.5073 4ZM26.6673 41.3333H22.6673V37.3333H12.0007V41.3333H8.00065V6.82667C8.00065 6.80566 8.00479 6.78485 8.01283 6.76544C8.02087 6.74603 8.03266 6.72839 8.04751 6.71353C8.06237 6.69867 8.08001 6.68689 8.09942 6.67885C8.11883 6.6708 8.13964 6.66667 8.16065 6.66667H26.5073C26.5283 6.66667 26.5491 6.6708 26.5685 6.67885C26.588 6.68689 26.6056 6.69867 26.6205 6.71353C26.6353 6.72839 26.6471 6.74603 26.6551 6.76544C26.6632 6.78485 26.6673 6.80566 26.6673 6.82667V41.3333Z" fill="white"/>
<path d="M10.667 10.6641H13.3337V13.3307H10.667V10.6641Z" fill="white"/>
<path d="M16.0005 10.6641H18.6672V13.3307H16.0005V10.6641Z" fill="white"/>
<path d="M21.334 10.6641H24.0007V13.3307H21.334V10.6641Z" fill="white"/>
<path d="M10.667 17.3359H13.3337V20.0026H10.667V17.3359Z" fill="white"/>
<path d="M16.0005 17.3359H18.6672V20.0026H16.0005V17.3359Z" fill="white"/>
<path d="M21.334 17.3359H24.0007V20.0026H21.334V17.3359Z" fill="white"/>
<path d="M10.667 24H13.3337V26.6667H10.667V24Z" fill="white"/>
<path d="M16.0005 24H18.6672V26.6667H16.0005V24Z" fill="white"/>
<path d="M21.334 24H24.0007V26.6667H21.334V24Z" fill="white"/>
<path d="M10.667 30.6641H13.3337V33.3307H10.667V30.6641Z" fill="white"/>
<path d="M16.0005 30.6641H18.6672V33.3307H16.0005V30.6641Z" fill="white"/>
<path d="M21.334 30.6641H24.0007V33.3307H21.334V30.6641Z" fill="white"/>
<path d="M30.667 17.3359H33.3337V20.0026H30.667V17.3359Z" fill="white"/>
<path d="M36.0005 17.3359H38.6672V20.0026H36.0005V17.3359Z" fill="white"/>
<path d="M30.667 24H33.3337V26.6667H30.667V24Z" fill="white"/>
<path d="M36.0005 24H38.6672V26.6667H36.0005V24Z" fill="white"/>
<path d="M30.667 30.6641H33.3337V33.3307H30.667V30.6641Z" fill="white"/>
<path d="M36.0005 30.6641H38.6672V33.3307H36.0005V30.6641Z" fill="white"/>
</svg>
