<svg width="30" height="30" viewBox="0 0 30 30" fill="none" xmlns="http://www.w3.org/2000/svg">
<path d="M7.40685 7.40565C7.6524 7.1601 7.98544 7.02215 8.3327 7.02215C8.67997 7.02215 9.01301 7.1601 9.25856 7.40565L14.8137 12.9608L20.3688 7.40565C20.6144 7.1601 20.9474 7.02215 21.2947 7.02215C21.642 7.02215 21.975 7.1601 22.2205 7.40565C22.4661 7.6512 22.604 7.98425 22.604 8.33151C22.604 8.67877 22.4661 9.01181 22.2205 9.25736L16.6654 14.8125L22.2205 20.3676C22.4661 20.6132 22.604 20.9462 22.604 21.2935C22.604 21.6408 22.4661 21.9738 22.2205 22.2193C21.975 22.4649 21.642 22.6028 21.2947 22.6028C20.9474 22.6028 20.6144 22.4649 20.3688 22.2193L14.8137 16.6642L9.25856 22.2193C9.01301 22.4649 8.67997 22.6028 8.3327 22.6028C7.98544 22.6028 7.6524 22.4649 7.40685 22.2193C7.1613 21.9738 7.02335 21.6408 7.02335 21.2935C7.02335 20.9462 7.1613 20.6132 7.40685 20.3676L12.962 14.8125L7.40685 9.25736C7.1613 9.01181 7.02335 8.67877 7.02335 8.33151C7.02335 7.98424 7.1613 7.6512 7.40685 7.40565V7.40565Z" fill="#FFFFFF"/>
</svg>
