<svg width="530" height="431" viewBox="0 0 530 431" fill="none" xmlns="http://www.w3.org/2000/svg">
<path d="M288.381 430.114C412.005 430.114 512.222 424.263 512.222 417.045C512.222 409.828 412.005 403.977 288.381 403.977C164.756 403.977 64.5391 409.828 64.5391 417.045C64.5391 424.263 164.756 430.114 288.381 430.114Z" fill="#F5F5F5"/>
<path d="M155.777 396.555H117.541V396.843H155.777V396.555Z" fill="#EBEBEB"/>
<path d="M247.616 387.812H197.338V388.101H247.616V387.812Z" fill="#EBEBEB"/>
<path d="M116.387 385.836H60.3252V386.125H116.387V385.836Z" fill="#EBEBEB"/>
<path d="M325.209 389.742H285.622V390.031H325.209V389.742Z" fill="#EBEBEB"/>
<path d="M391.556 389.742H335.483V390.031H391.556V389.742Z" fill="#EBEBEB"/>
<path d="M484.988 394.609H376.836V394.898H484.988V394.609Z" fill="#EBEBEB"/>
<path d="M273.373 326.486H50.4545C48.7082 326.483 47.0345 325.787 45.8007 324.551C44.567 323.315 43.874 321.64 43.874 319.894V6.53434C43.8892 4.79804 44.5889 3.13785 45.821 1.91438C47.0531 0.690906 48.7182 0.00297438 50.4545 0H273.373C275.121 0 276.798 0.69452 278.034 1.93077C279.27 3.16702 279.965 4.84374 279.965 6.59207V319.894C279.965 321.642 279.27 323.319 278.034 324.555C276.798 325.792 275.121 326.486 273.373 326.486ZM50.4545 0.230896C48.7848 0.233955 47.1844 0.899413 46.0048 2.08121C44.8252 3.263 44.1626 4.86456 44.1626 6.53434V319.894C44.1626 321.564 44.8252 323.165 46.0048 324.347C47.1844 325.529 48.7848 326.195 50.4545 326.198H273.373C275.043 326.192 276.642 325.525 277.823 324.345C279.004 323.164 279.67 321.564 279.676 319.894V6.53434C279.67 4.86444 279.004 3.26466 277.823 2.08385C276.642 0.903045 275.043 0.23698 273.373 0.230896H50.4545Z" fill="#EBEBEB"/>
<path d="M523.097 326.486H300.168C298.421 326.48 296.748 325.784 295.513 324.549C294.278 323.314 293.582 321.641 293.576 319.894V6.53434C293.594 4.79698 294.296 3.1368 295.53 1.91365C296.764 0.690503 298.43 0.00294194 300.168 0H523.097C524.832 0.00600847 526.494 0.695283 527.723 1.91843C528.953 3.14157 529.651 4.80003 529.666 6.53434V319.894C529.668 320.758 529.499 321.614 529.17 322.413C528.841 323.212 528.357 323.939 527.747 324.551C527.137 325.163 526.413 325.649 525.615 325.981C524.817 326.313 523.962 326.485 523.097 326.486ZM300.168 0.230896C298.498 0.23698 296.898 0.903045 295.717 2.08385C294.536 3.26466 293.87 4.86444 293.864 6.53434V319.894C293.87 321.564 294.536 323.164 295.717 324.345C296.898 325.525 298.498 326.192 300.168 326.198H523.097C524.767 326.192 526.367 325.525 527.548 324.345C528.729 323.164 529.395 321.564 529.401 319.894V6.53434C529.395 4.86444 528.729 3.26466 527.548 2.08385C526.367 0.903045 524.767 0.23698 523.097 0.230896H300.168Z" fill="#EBEBEB"/>
<path d="M253.769 114.57H140.896V377.976H253.769V114.57Z" fill="#E0E0E0"/>
<path d="M236.683 114.57H123.81V377.976H236.683V114.57Z" fill="#F0F0F0"/>
<path d="M226.593 315.117H134.754V362.797H226.593V315.117Z" fill="#E0E0E0"/>
<path d="M226.593 252.578H134.754V300.27H226.593V252.578Z" fill="#E0E0E0"/>
<path d="M226.593 190.047H134.754V237.738H226.593V190.047Z" fill="#E0E0E0"/>
<path d="M226.593 127.523H134.754V175.215H226.593V127.523Z" fill="#E0E0E0"/>
<path opacity="0.05" d="M153.942 127.523H134.754V175.215H153.942V127.523Z" fill="black"/>
<path opacity="0.05" d="M153.942 190.047H134.754V237.738H153.942V190.047Z" fill="black"/>
<path opacity="0.05" d="M153.942 252.578H134.754V300.27H153.942V252.578Z" fill="black"/>
<path opacity="0.05" d="M153.942 315.117H134.754V362.797H153.942V315.117Z" fill="black"/>
<path d="M149.67 27.4453H69.0298V108.086H149.67V27.4453Z" fill="#E0E0E0"/>
<path d="M145.445 27.4453H64.8047V108.086H145.445V27.4453Z" fill="#EBEBEB"/>
<path d="M136.174 36.7266H74.0864V98.8144H136.174V36.7266Z" fill="#F5F5F5"/>
<path d="M76.1414 36.7266H74.0864V98.8144H76.1414V36.7266Z" fill="#E0E0E0"/>
<path d="M114.511 76.5621C119.379 71.8184 119.48 64.0269 114.736 59.1592C109.993 54.2914 102.201 54.1908 97.3334 58.9344C92.4656 63.678 92.365 71.4695 97.1086 76.3373C101.852 81.205 109.644 81.3057 114.511 76.5621Z" fill="#FAFAFA"/>
<path d="M64.5965 358.455C64.5965 358.455 58.2353 352.971 53.8367 340.422C49.4382 327.873 39.2441 313.488 39.2441 313.488C39.2441 313.488 52.5784 319.791 57.2771 331.786C57.2771 331.786 51.5047 307.473 39.2441 298.584C39.2441 298.584 61.1792 305.649 66.6861 328.519C66.6861 328.519 70.3458 310.359 64.3771 292.315C64.3771 292.315 75.6102 306.434 76.9263 323.948C76.9263 323.948 78.4848 293.619 88.4711 284.695C88.4711 284.695 85.3309 312.149 88.4711 326.003C88.4711 326.003 92.9158 301.689 112.784 298.295C112.784 298.295 99.9697 313.719 100.501 327.307C102.736 322.613 106.151 318.58 110.414 315.603C114.676 312.626 119.638 310.808 124.814 310.325C124.814 310.325 110.591 320.288 109.309 336.497C108.028 352.706 107.993 357.67 99.3693 360.025C90.7454 362.38 64.5965 358.455 64.5965 358.455Z" fill="#F5F5F5"/>
<path d="M50.8008 343.617V375.204C50.8008 375.204 54.8645 386.518 80.9673 387.972C107.07 389.427 113.166 375.492 113.166 375.492V343.617H50.8008Z" fill="#E6E6E6"/>
<path d="M514.196 254.305H350.665V378.931H514.196V254.305Z" fill="#E0E0E0"/>
<path d="M473.478 254.305H309.946V378.931H473.478V254.305Z" fill="#EBEBEB"/>
<path d="M465.339 265.844H315.788V312.011H465.339V265.844Z" stroke="#E0E0E0" stroke-miterlimit="10"/>
<path d="M465.339 319.695H315.788V365.863H465.339V319.695Z" stroke="#E0E0E0" stroke-miterlimit="10"/>
<path d="M390.563 293.108C392.878 293.108 394.754 291.232 394.754 288.917C394.754 286.603 392.878 284.727 390.563 284.727C388.249 284.727 386.373 286.603 386.373 288.917C386.373 291.232 388.249 293.108 390.563 293.108Z" fill="#E0E0E0"/>
<path d="M390.563 350.491C392.878 350.491 394.754 348.615 394.754 346.3C394.754 343.986 392.878 342.109 390.563 342.109C388.249 342.109 386.373 343.986 386.373 346.3C386.373 348.615 388.249 350.491 390.563 350.491Z" fill="#E0E0E0"/>
<path d="M520.28 247.656H302.742V254.306H520.28V247.656Z" fill="#E0E0E0"/>
<path opacity="0.05" d="M520.28 247.656H479.654V254.306H520.28V247.656Z" fill="black"/>
<path d="M517.925 61.7891H336.811V164.191H517.925V61.7891Z" fill="#E0E0E0"/>
<path d="M513.192 61.7891H332.078V164.191H513.192V61.7891Z" fill="#F0F0F0"/>
<path d="M505.573 69.5234H339.143V156.952H505.573V69.5234Z" fill="#F5F5F5"/>
<path d="M340.956 69.5234H339.143V156.952H340.956V69.5234Z" fill="#E0E0E0"/>
<path d="M496.734 97.2216L475.69 89.3203L469.234 106.516L490.277 114.417L496.734 97.2216Z" fill="#FAFAFA"/>
<path d="M477.276 93.6244C477.716 93.6244 478.073 93.2678 478.073 92.8278C478.073 92.3879 477.716 92.0312 477.276 92.0312C476.836 92.0312 476.479 92.3879 476.479 92.8278C476.479 93.2678 476.836 93.6244 477.276 93.6244Z" fill="#E6E6E6"/>
<path d="M395.516 119.758L440.287 124.26L437.551 142.062L394.442 136.902L395.516 119.758Z" fill="#FAFAFA"/>
<path d="M437.943 127.523C437.943 127.681 437.897 127.835 437.809 127.966C437.721 128.097 437.597 128.199 437.452 128.259C437.306 128.319 437.146 128.335 436.991 128.304C436.837 128.274 436.695 128.198 436.583 128.086C436.472 127.975 436.396 127.833 436.365 127.679C436.335 127.524 436.35 127.364 436.411 127.218C436.471 127.073 436.573 126.948 436.704 126.861C436.835 126.773 436.989 126.727 437.147 126.727C437.358 126.727 437.561 126.81 437.71 126.96C437.859 127.109 437.943 127.312 437.943 127.523Z" fill="#E6E6E6"/>
<path d="M419.991 247.66L429.885 197.094H476.214L466.586 247.66H419.991Z" fill="#EBEBEB"/>
<path d="M427.045 241.32L434.457 203.43H469.172L461.956 241.32H427.045Z" fill="#FAFAFA"/>
<path d="M436.246 203.43L429.065 241.32H427.045L434.457 203.43H436.246Z" fill="#E6E6E6"/>
<path d="M476.214 197.094H478.131L469.172 247.66H466.586L476.214 197.094Z" fill="#E6E6E6"/>
<path d="M474.852 215.539L481.421 247.657H469.172L474.852 215.539Z" fill="#E0E0E0"/>
<path d="M374.043 52.2734V190.568C374.044 192.815 373.603 195.039 372.745 197.115C371.886 199.191 370.627 201.077 369.039 202.666C367.451 204.255 365.566 205.515 363.491 206.375C361.416 207.235 359.191 207.678 356.945 207.678H343.218V52.2734H374.043Z" fill="#407BFF"/>
<path opacity="0.8" d="M374.043 52.2734V190.568C374.044 192.815 373.603 195.039 372.745 197.115C371.886 199.191 370.627 201.077 369.039 202.666C367.451 204.255 365.566 205.515 363.491 206.375C361.416 207.235 359.191 207.678 356.945 207.678H343.218V52.2734H374.043Z" fill="white"/>
<path d="M374.043 41.7656V190.566C374.044 192.813 373.603 195.037 372.745 197.113C371.886 199.189 370.627 201.075 369.039 202.664C367.451 204.253 365.566 205.513 363.491 206.373C361.416 207.233 359.191 207.676 356.945 207.676H115.278C110.741 207.676 106.389 205.873 103.18 202.664C99.9715 199.456 98.1689 195.104 98.1689 190.566V41.7656C98.1674 39.5184 98.6089 37.2928 99.4682 35.2164C100.328 33.1399 101.588 31.2531 103.177 29.6641C104.766 28.075 106.653 26.8148 108.729 25.9555C110.806 25.0962 113.031 24.6547 115.278 24.6563H356.945C359.191 24.6563 361.416 25.0989 363.491 25.9588C365.566 26.8188 367.451 28.0793 369.039 29.6682C370.627 31.2571 371.886 33.1433 372.745 35.219C373.603 37.2947 374.044 39.5193 374.043 41.7656Z" fill="white" stroke="#407BFF" stroke-miterlimit="10"/>
<path d="M373.257 36.6282H98.9536C100.047 33.1554 102.219 30.1219 105.155 27.9688C108.091 25.8157 111.637 24.6553 115.278 24.6563H356.945C360.584 24.6578 364.127 25.8193 367.061 27.9723C369.994 30.1252 372.165 33.1573 373.257 36.6282Z" fill="#407BFF"/>
<path d="M133.034 33.0754C134.373 33.0754 135.458 31.9899 135.458 30.651C135.458 29.312 134.373 28.2266 133.034 28.2266C131.695 28.2266 130.609 29.312 130.609 30.651C130.609 31.9899 131.695 33.0754 133.034 33.0754Z" fill="white"/>
<path d="M141.692 33.0754C143.031 33.0754 144.117 31.9899 144.117 30.651C144.117 29.312 143.031 28.2266 141.692 28.2266C140.354 28.2266 139.268 29.312 139.268 30.651C139.268 31.9899 140.354 33.0754 141.692 33.0754Z" fill="white"/>
<path d="M152.764 30.6469C152.764 31.1292 152.621 31.6006 152.353 32.0014C152.084 32.4023 151.703 32.7145 151.258 32.8985C150.812 33.0825 150.321 33.1301 149.849 33.0352C149.376 32.9402 148.942 32.7071 148.601 32.3653C148.261 32.0234 148.03 31.5883 147.937 31.115C147.845 30.6417 147.895 30.1516 148.081 29.7067C148.267 29.2618 148.581 28.8821 148.983 28.6159C149.385 28.3496 149.857 28.2087 150.34 28.211C150.659 28.211 150.975 28.2741 151.27 28.3966C151.565 28.5192 151.833 28.6988 152.058 28.9251C152.283 29.1515 152.462 29.4201 152.583 29.7156C152.704 30.0111 152.766 30.3276 152.764 30.6469Z" fill="white"/>
<path d="M374.043 41.7624V52.2682H98.1226V41.7624C98.1224 40.0201 98.3871 38.2878 98.9076 36.625H373.211C373.748 38.2854 374.028 40.0177 374.043 41.7624Z" fill="#407BFF"/>
<path opacity="0.5" d="M374.043 41.7624V52.2682H98.1226V41.7624C98.1224 40.0201 98.3871 38.2878 98.9076 36.625H373.211C373.748 38.2854 374.028 40.0177 374.043 41.7624Z" fill="white"/>
<path d="M130.621 52.2734V207.678H114.897C111.199 207.708 107.587 206.564 104.581 204.411C101.575 202.257 99.3298 199.205 98.1689 195.694V52.2734H130.621Z" fill="#407BFF"/>
<path opacity="0.1" d="M130.621 52.2734V207.678H114.897C111.199 207.708 107.587 206.564 104.581 204.411C101.575 202.257 99.3298 199.205 98.1689 195.694V52.2734H130.621Z" fill="black"/>
<path opacity="0.1" d="M332.401 63.2812H141.692V191.994H332.401V63.2812Z" fill="#407BFF"/>
<path opacity="0.2" d="M111.341 69.7734H103.145V77.9702H111.341V69.7734Z" fill="black"/>
<path opacity="0.2" d="M123.752 69.7734H115.555V77.9702H123.752V69.7734Z" fill="black"/>
<path d="M256.124 127.125C263.109 118.074 267.669 106.195 266.723 94.5923C265.834 83.7055 257.048 77.0673 246.381 79.6764C241.878 80.8309 237.757 83.0244 233.601 85.0909C226.674 88.5543 219.377 91.5098 211.666 92.4449C203.954 93.3801 196.322 92.4449 188.807 95.3888C175.727 100.492 172.09 117.208 177.135 129.33C181.614 140.09 192.282 148.402 203.63 150.711" stroke="#263238" stroke-linecap="round" stroke-linejoin="round"/>
<path opacity="0.2" d="M111.341 82.7734H103.145V90.9702H111.341V82.7734Z" fill="black"/>
<path opacity="0.2" d="M123.752 82.7734H115.555V90.9702H123.752V82.7734Z" fill="black"/>
<path opacity="0.2" d="M111.341 95.7734H103.145V103.97H111.341V95.7734Z" fill="black"/>
<path opacity="0.2" d="M123.752 95.7734H115.555V103.97H123.752V95.7734Z" fill="black"/>
<path opacity="0.2" d="M111.341 108.773H103.145V116.97H111.341V108.773Z" fill="black"/>
<path opacity="0.2" d="M123.752 108.773H115.555V116.97H123.752V108.773Z" fill="black"/>
<path opacity="0.2" d="M111.341 121.758H103.145V129.955H111.341V121.758Z" fill="black"/>
<path opacity="0.2" d="M123.752 121.758H115.555V129.955H123.752V121.758Z" fill="black"/>
<path opacity="0.2" d="M111.341 134.758H103.145V142.955H111.341V134.758Z" fill="black"/>
<path opacity="0.2" d="M123.752 134.758H115.555V142.955H123.752V134.758Z" fill="black"/>
<path d="M111.076 147.388C111.076 147.574 111.021 147.755 110.917 147.909C110.814 148.063 110.667 148.183 110.496 148.253C110.324 148.324 110.136 148.342 109.954 148.305C109.772 148.268 109.606 148.177 109.475 148.045C109.345 147.913 109.257 147.746 109.222 147.564C109.187 147.381 109.208 147.193 109.28 147.022C109.353 146.852 109.474 146.707 109.63 146.605C109.785 146.504 109.967 146.451 110.152 146.453C110.275 146.453 110.396 146.477 110.508 146.525C110.621 146.572 110.724 146.641 110.809 146.728C110.895 146.815 110.963 146.918 111.009 147.031C111.055 147.145 111.077 147.266 111.076 147.388Z" fill="#263238"/>
<path d="M114.435 147.388C114.435 147.573 114.38 147.754 114.278 147.908C114.175 148.062 114.029 148.181 113.858 148.252C113.687 148.323 113.499 148.342 113.318 148.305C113.136 148.269 112.97 148.18 112.839 148.05C112.708 147.919 112.619 147.752 112.583 147.571C112.547 147.389 112.565 147.201 112.636 147.03C112.707 146.86 112.827 146.714 112.981 146.611C113.134 146.508 113.315 146.453 113.5 146.453C113.623 146.452 113.746 146.475 113.86 146.521C113.974 146.568 114.078 146.636 114.165 146.724C114.252 146.811 114.321 146.914 114.367 147.029C114.414 147.143 114.437 147.265 114.435 147.388Z" fill="#263238"/>
<path d="M117.783 147.388C117.783 147.574 117.728 147.755 117.625 147.909C117.522 148.063 117.375 148.183 117.203 148.253C117.032 148.324 116.843 148.342 116.661 148.305C116.48 148.268 116.313 148.177 116.183 148.045C116.053 147.913 115.964 147.746 115.93 147.564C115.895 147.381 115.915 147.193 115.988 147.022C116.06 146.852 116.182 146.707 116.337 146.605C116.492 146.504 116.674 146.451 116.86 146.453C116.982 146.453 117.103 146.477 117.216 146.525C117.329 146.572 117.431 146.641 117.517 146.728C117.603 146.815 117.671 146.918 117.716 147.031C117.762 147.145 117.785 147.266 117.783 147.388Z" fill="#263238"/>
<path d="M231.927 138.63L230.46 139.657L229.583 133.25L234.928 136.506L233.601 137.406L235.667 140.454L234.039 141.793L231.927 138.63Z" fill="#263238"/>
<path d="M343.911 209.067C343.911 209.067 338.024 237.49 334.041 244.751C330.058 252.013 307.222 251.678 307.222 251.678L280.785 250.362C280.785 250.362 275.751 233.888 297.305 242.431C297.305 242.431 315.488 238.968 322.427 233.195L329.7 203.375L343.911 209.067Z" fill="#FF8B7B"/>
<path d="M422.589 420.956H415.535L396.394 316.833L395.736 313.243L402.547 311.984L403.436 316.833L422.589 420.956Z" fill="#407BFF"/>
<path opacity="0.5" d="M422.589 420.956H415.535L396.394 316.833L395.736 313.243L402.547 311.984L403.436 316.833L422.589 420.956Z" fill="white"/>
<path d="M392.168 420.956H385.207L375.648 316.833L374.632 305.75L374.401 303.291L381.293 302.656L381.582 305.75L382.598 316.833L392.168 420.956Z" fill="#407BFF"/>
<path opacity="0.5" d="M392.168 420.956H385.207L375.648 316.833L374.632 305.75L374.401 303.291L381.293 302.656L381.582 305.75L382.598 316.833L392.168 420.956Z" fill="white"/>
<path d="M320.984 307.066L320.245 316.833L312.325 420.956H305.375L313.283 316.833L314.068 306.547L320.984 307.066Z" fill="#407BFF"/>
<path opacity="0.5" d="M320.984 307.066L320.245 316.833L312.325 420.956H305.375L313.283 316.833L314.068 306.547L320.984 307.066Z" fill="white"/>
<path d="M300.907 307.381L299.348 316.837L282.181 420.959H275.162L292.341 316.837L294.084 306.25L300.907 307.381Z" fill="#407BFF"/>
<path opacity="0.5" d="M300.907 307.381L299.348 316.837L282.181 420.959H275.162L292.341 316.837L294.084 306.25L300.907 307.381Z" fill="white"/>
<path d="M414.127 304.124L413.492 305.752L410.455 313.429C410.065 314.436 409.378 315.301 408.485 315.909C407.593 316.517 406.536 316.84 405.456 316.835H291.094C289.984 316.837 288.901 316.496 287.992 315.86C287.083 315.224 286.392 314.322 286.014 313.279L283.324 305.752L282.689 303.962C282.398 303.151 282.307 302.281 282.423 301.427C282.539 300.572 282.859 299.758 283.356 299.054C283.854 298.35 284.513 297.775 285.279 297.38C286.045 296.984 286.895 296.779 287.757 296.781H409.128C410.004 296.78 410.867 296.993 411.641 297.403C412.416 297.812 413.079 298.404 413.572 299.128C414.065 299.853 414.373 300.686 414.47 301.557C414.567 302.428 414.449 303.309 414.127 304.124Z" fill="#407BFF"/>
<path opacity="0.3" d="M413.492 305.75L410.455 313.427C410.065 314.434 409.378 315.299 408.485 315.907C407.593 316.515 406.536 316.838 405.456 316.833H291.094C289.984 316.835 288.901 316.495 287.992 315.858C287.083 315.222 286.392 314.321 286.014 313.277L283.324 305.75H413.492Z" fill="black"/>
<path d="M297.674 372.137L303.077 359.865C303.391 359.15 303.954 358.573 304.661 358.242C305.368 357.91 306.171 357.847 306.922 358.064L315.465 360.489C315.912 360.617 316.326 360.839 316.679 361.141C317.032 361.443 317.317 361.818 317.512 362.239C317.708 362.661 317.812 363.119 317.815 363.584C317.818 364.049 317.721 364.509 317.531 364.933C315.222 370.152 310.835 379.872 309.45 383.347C307.568 388.184 305.987 394.015 303.47 395.642C303.316 395.744 303.154 395.833 302.985 395.908C302.455 396.126 301.876 396.197 301.309 396.115C300.741 396.032 300.207 395.799 299.761 395.439C299.315 395.079 298.974 394.606 298.773 394.069C298.573 393.532 298.52 392.951 298.621 392.387C299.291 388.323 300.018 380.727 297.57 374.596C297.421 374.201 297.354 373.779 297.371 373.356C297.389 372.934 297.492 372.519 297.674 372.137Z" fill="#263238"/>
<path d="M344.327 255.483C344.327 255.483 285.968 247.517 268.339 264.096C268.339 264.096 257.418 279 262.671 308.174C266.106 326.178 273.569 343.173 284.502 357.886L299.822 344.863C299.822 344.863 286.187 311.279 290.805 290.499L312.001 289.24L342.399 268.46L345.585 259.847L344.327 255.483Z" fill="#263238"/>
<path d="M285.91 363.757L280.196 356.819L301.138 339.594L305.098 343.715L285.91 363.757Z" fill="#407BFF"/>
<path d="M401.693 254.855C401.693 254.855 403.309 271.479 398.033 283.647C392.757 295.816 374.112 300.272 361.54 299.464C348.968 298.656 332.747 297.617 325.855 299.556C325.855 299.556 316.931 350.157 301.519 387.054L282.862 385.438C282.862 385.438 292.999 314.022 294.626 297.432C296.254 280.842 295.435 278.372 305.571 270.267C315.707 262.163 367.624 251.207 401.693 254.855Z" fill="#263238"/>
<path d="M296.774 393.732L295.008 401.455L280.196 406.639L284.502 390.188L296.774 393.732Z" fill="#FF8B7B"/>
<path d="M279.999 406.157L292.583 401.481C293.316 401.211 294.122 401.215 294.852 401.493C295.582 401.771 296.187 402.304 296.554 402.993L300.757 410.809C300.985 411.221 301.121 411.677 301.154 412.146C301.188 412.615 301.119 413.086 300.952 413.526C300.785 413.965 300.524 414.363 300.187 414.692C299.85 415.02 299.446 415.271 299.002 415.427C293.634 417.378 283.624 421.026 280.195 422.481C275.416 424.513 270.128 427.434 267.208 426.753C267.027 426.715 266.85 426.665 266.677 426.602C266.151 426.372 265.696 426.004 265.36 425.538C265.025 425.072 264.82 424.525 264.768 423.953C264.717 423.381 264.819 422.806 265.065 422.287C265.312 421.768 265.693 421.325 266.169 421.003C269.551 418.694 275.508 413.892 278.198 407.865C278.367 407.473 278.614 407.12 278.923 406.826C279.233 406.532 279.599 406.305 279.999 406.157Z" fill="#263238"/>
<path d="M343.911 259.306C343.911 259.306 336.315 209.063 334.675 196.837C333.036 184.611 334.675 178.366 339.293 174.36C343.911 170.354 365.084 161.799 379.296 164.108C393.507 166.417 400.446 178.319 402.385 191.815L399.084 193.466C399.084 193.466 403.309 240.292 401.773 256.489L343.911 259.306Z" fill="#407BFF"/>
<path d="M339.282 174.328C339.282 174.328 328.049 184.245 328.049 203.409L345.562 210.117L339.282 174.328Z" fill="#407BFF"/>
<path d="M399.349 193.281C399.349 193.281 405.711 215.77 403.967 225.064C402.224 234.358 386.396 246.826 364.392 250.982C364.392 250.982 354.613 252.691 348.979 248.05L340.425 245.602L342.872 238.017C349.392 238.133 355.812 239.64 361.702 242.439C361.702 242.439 382.725 232.903 389.328 225.572C389.328 225.572 388.59 210.656 384.93 200.173L399.349 193.281Z" fill="#FF8B7B"/>
<path d="M304.117 387.054L279.561 383.359L278.672 391.083L300.953 395.631L304.117 387.054Z" fill="#407BFF"/>
<path d="M326.975 143.367C325.454 147.805 325.644 152.65 327.506 156.956C326.641 153.521 326.802 149.909 327.968 146.565C329.122 143.402 331.027 140.62 332.505 137.618C333.983 134.616 334.987 131.118 334.006 127.92C333.798 127.285 333.336 126.547 332.678 126.65C332.02 126.754 331.882 127.309 331.697 127.805C331.06 129.12 330.572 130.503 330.242 131.926C330.081 133.023 330.242 134.108 330.081 135.228C329.538 138.045 327.933 140.608 326.975 143.367Z" fill="#263238"/>
<path d="M333.775 133.633C332.888 133.968 332.113 134.544 331.537 135.297C330.962 136.05 330.609 136.95 330.519 137.893C328.798 136.784 327.518 135.109 326.901 133.158C326.283 131.206 326.366 129.099 327.136 127.203C329.803 120.276 333.417 110.451 344.176 111.883C354.936 113.314 377.495 116.501 369.413 140.537C361.332 164.573 353.32 135.215 353.32 135.215L333.775 133.633Z" fill="#263238"/>
<path d="M357.315 178.549C347.513 177.938 351.669 169.487 352.12 166.358C352.239 164.993 351.941 163.625 351.265 162.433C350.809 161.548 350.251 160.719 349.603 159.962C345.308 159.962 340.552 159.385 337.146 156.499C333.336 153.324 331.824 147.402 331.201 142.703C330.712 138.356 330.626 133.973 330.947 129.611C330.947 128.965 331.039 128.33 331.062 127.695C331.212 125.189 331.374 122.696 331.466 120.248C331.466 120.248 340.967 118.159 349.453 120.098C355.733 121.53 360.143 126.748 362.048 134.956C362.75 138.082 363.102 141.277 363.099 144.481C363.272 158.127 368.617 160.516 370.707 164.522C372.796 168.529 367.139 179.127 357.315 178.549Z" fill="#FF8B7B"/>
<path d="M339.801 145.661L337.492 136.875L335.911 146.111C335.911 146.111 337.192 147.161 339.801 145.661Z" fill="#FF5652"/>
<path d="M346.59 147.164C346.59 147.164 345.147 150.258 340.552 150.801" stroke="#263238" stroke-width="0.5" stroke-linecap="round" stroke-linejoin="round"/>
<path d="M346.105 132.279C345.478 131.589 344.655 131.109 343.746 130.902C342.838 130.696 341.888 130.773 341.025 131.124" stroke="#263238" stroke-width="0.75" stroke-linecap="round" stroke-linejoin="round"/>
<path d="M342.457 136.59C342.537 137.479 343.057 138.16 343.611 138.114C344.165 138.068 344.558 137.306 344.489 136.417C344.419 135.528 343.888 134.847 343.334 134.893C342.78 134.939 342.387 135.701 342.457 136.59Z" fill="#263238"/>
<path d="M332.251 139.107C332.332 139.996 332.851 140.677 333.405 140.631C333.96 140.584 334.352 139.822 334.283 138.934C334.214 138.045 333.683 137.352 333.128 137.41C332.574 137.467 332.251 138.218 332.251 139.107Z" fill="#263238"/>
<path d="M330.773 127.838C334.476 126.992 337.953 125.358 340.967 123.047C344.362 134.269 358.816 134.673 362.429 134.673C360.536 126.464 355.987 120.761 349.73 119.33C341.256 117.39 331.258 119.63 331.258 119.63C331.166 122.089 330.912 125.344 330.773 127.838Z" fill="#263238"/>
<path d="M343.334 134.888L340.967 134.438C340.967 134.438 341.579 136.158 343.334 134.888Z" fill="#263238"/>
<path d="M333.602 137.454L331.235 137.016C331.235 137.016 331.847 138.724 333.602 137.454Z" fill="#263238"/>
<path d="M364.843 113.674C366.021 108.796 362.825 103.84 357.705 102.605C352.586 101.369 347.481 104.321 346.304 109.199C345.126 114.077 348.322 119.033 353.442 120.269C358.561 121.504 363.666 118.552 364.843 113.674Z" fill="#263238"/>
<path d="M337.873 124.687L335.957 127.204C335.957 127.204 341.025 126.326 342.145 122.863C343.265 119.399 339.04 122.112 339.04 122.112L337.873 124.687Z" fill="#263238"/>
<path opacity="0.1" d="M356.08 157.219C354.839 159.261 353.202 161.036 351.265 162.437C350.809 161.552 350.251 160.723 349.603 159.966C351.887 159.379 354.07 158.453 356.08 157.219Z" fill="black"/>
<path d="M330.081 135.158C330.344 134.337 330.89 133.635 331.621 133.177C332.351 132.718 333.221 132.533 334.075 132.653" stroke="#263238" stroke-width="0.75" stroke-linecap="round" stroke-linejoin="round"/>
<path d="M359.474 136.075C359.789 135.604 360.149 135.163 360.547 134.759C361.898 133.385 364.103 131.584 366.146 132.589C368.617 133.743 368.098 137.264 367.405 139.389C366.847 141.29 365.572 142.9 363.849 143.88C361.413 145.138 357.788 144.468 357.811 141.19C357.85 139.358 358.428 137.579 359.474 136.075Z" fill="#FF8B7B"/>
<path d="M362.048 132.304C362.048 132.304 358.008 139.116 359.658 145.142C361.309 151.169 360.397 154.009 359.254 157.206C359.254 157.206 359.705 148.051 357.811 144.75C354.925 139.705 358.966 132.281 358.966 132.281L362.048 132.304Z" fill="#263238"/>
<path d="M346.439 111.983C346.439 111.983 356.899 113.23 363.191 117.525C363.191 117.467 357.73 110.205 346.439 111.983Z" fill="#407BFF"/>
<path d="M217.311 247.66H283.116C283.785 247.661 284.444 247.509 285.045 247.217C285.646 246.924 286.172 246.498 286.584 245.972C286.996 245.446 287.282 244.832 287.422 244.179C287.561 243.525 287.549 242.848 287.388 242.2L275.682 195.547C275.444 194.594 274.895 193.748 274.121 193.143C273.347 192.538 272.392 192.21 271.41 192.211H205.605C204.937 192.21 204.277 192.362 203.676 192.655C203.075 192.947 202.549 193.373 202.137 193.899C201.725 194.426 201.439 195.039 201.3 195.693C201.16 196.346 201.172 197.023 201.333 197.672L212.97 244.324C213.21 245.289 213.77 246.144 214.558 246.75C215.347 247.356 216.317 247.677 217.311 247.66Z" fill="#263238"/>
<path d="M325.567 247.501H280.842V244.038H323.281C323.893 244.038 324.481 244.281 324.914 244.714C325.347 245.147 325.59 245.734 325.59 246.347V247.57L325.567 247.501Z" fill="#263238"/>
<path opacity="0.3" d="M217.311 247.66H283.116C283.785 247.661 284.444 247.509 285.045 247.217C285.646 246.924 286.172 246.498 286.584 245.972C286.996 245.446 287.282 244.832 287.422 244.179C287.561 243.525 287.549 242.848 287.388 242.2L275.682 195.547C275.444 194.594 274.895 193.748 274.121 193.143C273.347 192.538 272.392 192.21 271.41 192.211H205.605C204.937 192.21 204.277 192.362 203.676 192.655C203.075 192.947 202.549 193.373 202.137 193.899C201.725 194.426 201.439 195.039 201.3 195.693C201.16 196.346 201.172 197.023 201.333 197.672L212.97 244.324C213.21 245.289 213.77 246.144 214.558 246.75C215.347 247.356 216.317 247.677 217.311 247.66Z" fill="black"/>
<path d="M213.859 247.66H279.665C280.333 247.661 280.993 247.509 281.593 247.217C282.194 246.924 282.721 246.498 283.132 245.972C283.544 245.446 283.83 244.832 283.97 244.179C284.109 243.525 284.098 242.848 283.936 242.2L272.218 195.547C271.981 194.594 271.432 193.748 270.657 193.143C269.883 192.538 268.929 192.21 267.947 192.211H202.141C201.473 192.21 200.814 192.362 200.213 192.655C199.612 192.947 199.086 193.373 198.674 193.899C198.262 194.426 197.976 195.039 197.836 195.693C197.697 196.346 197.709 197.023 197.87 197.672L209.507 244.324C209.749 245.29 210.311 246.145 211.102 246.751C211.892 247.357 212.864 247.677 213.859 247.66Z" fill="#263238"/>
<path opacity="0.2" d="M213.859 247.66H279.665C280.333 247.661 280.993 247.509 281.593 247.217C282.194 246.924 282.721 246.498 283.132 245.972C283.544 245.446 283.83 244.832 283.97 244.179C284.109 243.525 284.098 242.848 283.936 242.2L272.218 195.547C271.981 194.594 271.432 193.748 270.657 193.143C269.883 192.538 268.929 192.21 267.947 192.211H202.141C201.473 192.21 200.814 192.362 200.213 192.655C199.612 192.947 199.086 193.373 198.674 193.899C198.262 194.426 197.976 195.039 197.836 195.693C197.697 196.346 197.709 197.023 197.87 197.672L209.507 244.324C209.749 245.29 210.311 246.145 211.102 246.751C211.892 247.357 212.864 247.677 213.859 247.66Z" fill="white"/>
<path opacity="0.3" d="M243.829 218.567C244.741 222.458 242.906 226.233 239.719 226.983C236.533 227.734 233.185 225.194 232.261 221.303C231.338 217.413 233.185 213.638 236.371 212.887C239.558 212.137 242.906 214.734 243.829 218.567Z" fill="black"/>
<path d="M197.893 251.714L173.614 402.281H168.234L192.652 250.859L197.893 251.714Z" fill="#407BFF"/>
<path opacity="0.5" d="M197.893 251.714L173.614 402.281H168.234L192.652 250.859L197.893 251.714Z" fill="white"/>
<path d="M233.613 402.281H228.221L204.762 251.702L210.015 250.883L233.613 402.281Z" fill="#407BFF"/>
<path opacity="0.5" d="M233.613 402.281H228.221L204.762 251.702L210.015 250.883L233.613 402.281Z" fill="white"/>
<path d="M289.628 251.714L265.349 402.281H259.958L284.375 250.859L289.628 251.714Z" fill="#407BFF"/>
<path opacity="0.5" d="M289.628 251.714L265.349 402.281H259.958L284.375 250.859L289.628 251.714Z" fill="white"/>
<path d="M370.66 402.281H365.281L341.81 251.702L347.063 250.883L370.66 402.281Z" fill="#407BFF"/>
<path opacity="0.5" d="M370.66 402.281H365.281L341.81 251.702L347.063 250.883L370.66 402.281Z" fill="white"/>
<path d="M377.276 246.57H154.173V253.578H377.276V246.57Z" fill="#407BFF"/>
<path opacity="0.3" d="M377.379 246.57H287.457V253.578H377.379V246.57Z" fill="black"/>
<path d="M369.275 246.571H332.424C332.424 246.026 332.641 245.503 333.026 245.118C333.412 244.732 333.934 244.516 334.479 244.516H367.209C367.755 244.516 368.279 244.732 368.666 245.117C369.053 245.502 369.272 246.025 369.275 246.571Z" fill="#263238"/>
<path d="M355.895 226.937L350.931 238.851C350.018 238.667 349.199 238.54 348.622 238.459L353.794 226.048C353.912 225.765 354.137 225.54 354.421 225.423C354.704 225.306 355.023 225.307 355.306 225.425C355.589 225.543 355.814 225.768 355.931 226.052C356.048 226.335 356.047 226.654 355.929 226.937H355.895Z" fill="#263238"/>
<path d="M359.404 217.605C365.78 217.605 370.949 211.619 370.949 204.236C370.949 196.853 365.78 190.867 359.404 190.867C353.028 190.867 347.859 196.853 347.859 204.236C347.859 211.619 353.028 217.605 359.404 217.605Z" fill="#263238"/>
<path d="M384.93 200.13L384.145 197.348L401.82 188.539L402.42 191.876L384.93 200.13Z" fill="#263238"/>
<path opacity="0.1" d="M384.145 197.344L378.788 189.32L387.297 209.2L384.145 197.344Z" fill="black"/>
<path d="M336.026 206.458L335.541 203.445L328.049 200.594V203.445L336.026 206.458Z" fill="#263238"/>
<path opacity="0.1" d="M336.026 206.454C335.876 205.877 334.041 193.281 334.041 193.281V205.703L336.026 206.454Z" fill="black"/>
<path d="M350.954 168.487C350.954 168.487 345.897 179.778 357.811 179.42C369.725 179.062 372.727 170.265 373.327 163.719L369.61 162.438C369.61 162.438 367.463 171.673 359.404 173.509C351.346 175.345 352.016 166.94 352.016 166.94L350.954 168.487Z" fill="#263238"/>
<path opacity="0.1" d="M283.255 394.935L295.827 397.89L296.543 394.739L283.982 392.164L283.255 394.935Z" fill="black"/>
</svg>
