<svg width="46" height="46" viewBox="0 0 46 46" fill="none" xmlns="http://www.w3.org/2000/svg">
<path d="M25.875 33.0625H23V30.1875C22.9989 29.0441 22.5441 27.9479 21.7356 27.1394C20.9271 26.3309 19.8309 25.8761 18.6875 25.875H12.9375C11.7941 25.8761 10.6979 26.3309 9.88936 27.1394C9.08086 27.9479 8.62614 29.0441 8.625 30.1875V33.0625H5.75V30.1875C5.75228 28.282 6.51027 26.4551 7.85769 25.1077C9.20511 23.7603 11.032 23.0023 12.9375 23H18.6875C20.593 23.0023 22.4199 23.7603 23.7673 25.1077C25.1147 26.4551 25.8727 28.282 25.875 30.1875V33.0625Z" fill="url(#paint0_linear_4_3258)"/>
<path d="M17 19C17.8529 19 21.2908 13.0261 22 13.5C22.7092 13.9739 19.4703 10.4992 19.7967 11.2872C20.1231 12.0752 20.2085 12.9423 20.0421 13.7788C19.8757 14.6154 19.465 15.3838 18.8619 15.9869C18.2588 16.59 17.4904 17.0007 16.6538 17.1671C15.8173 17.3335 14.9502 17.2481 14.1622 16.9217C13.3742 16.5953 12.7007 16.0426 12.2268 15.3334C11.7529 14.6242 11.5 13.7904 11.5 12.9375C11.5 11.7938 10.873 17.9759 11.6818 17.1671C12.4905 16.3584 15.8563 19 17 19ZM15.8125 5.75C14.3909 5.75 13.0013 6.17154 11.8193 6.96131C10.6374 7.75108 9.71612 8.87362 9.17212 10.187C8.62811 11.5003 8.48578 12.9455 8.76311 14.3397C9.04044 15.7339 9.72498 17.0146 10.7302 18.0198C11.7354 19.025 13.0161 19.7096 14.4103 19.9869C15.8045 20.2642 17.2497 20.1219 18.563 19.5779C19.8764 19.0339 20.9989 18.1126 21.7887 16.9307C22.5785 15.7487 23 14.3591 23 12.9375C23 11.0313 22.2427 9.20309 20.8948 7.85517C19.5469 6.50725 17.7187 5.75 15.8125 5.75Z" fill="url(#paint1_linear_4_3258)"/>
<path d="M2.875 37.375H43.125V40.25H2.875V37.375Z" fill="url(#paint2_linear_4_3258)"/>
<path d="M39.2481 11.501C38.7367 11.5011 38.2305 11.6036 37.7594 11.8026C37.2884 12.0016 36.8619 12.2931 36.5054 12.6597L35.9376 13.2404L35.3698 12.6582C35.0132 12.2917 34.5867 12.0004 34.1156 11.8014C33.6446 11.6025 33.1384 11.5 32.627 11.5C32.1156 11.5 31.6095 11.6025 31.1384 11.8014C30.6673 12.0004 30.2408 12.2917 29.8843 12.6582C29.1571 13.409 28.7505 14.4133 28.7505 15.4585C28.7505 16.5037 29.1571 17.5079 29.8843 18.2587L35.9376 24.4385L41.9894 18.2602C42.7166 17.5094 43.1232 16.5051 43.1232 15.4599C43.1232 14.4147 42.7166 13.4105 41.9894 12.6597C41.6332 12.2934 41.2073 12.0022 40.7367 11.8032C40.2661 11.6042 39.7605 11.5015 39.2496 11.501H39.2481Z" fill="url(#paint3_linear_4_3258)"/>
<defs>
<linearGradient id="paint0_linear_4_3258" x1="5.75" y1="28.0312" x2="25.875" y2="28.0312" gradientUnits="userSpaceOnUse">
<stop stop-color="#C84E89"/>
<stop offset="1" stop-color="#F15F79"/>
</linearGradient>
<linearGradient id="paint1_linear_4_3258" x1="8.625" y1="12.9375" x2="23" y2="12.9375" gradientUnits="userSpaceOnUse">
<stop stop-color="#C84E89"/>
<stop offset="1" stop-color="#F15F79"/>
</linearGradient>
<linearGradient id="paint2_linear_4_3258" x1="2.875" y1="38.8125" x2="43.125" y2="38.8125" gradientUnits="userSpaceOnUse">
<stop stop-color="#C84E89"/>
<stop offset="1" stop-color="#F15F79"/>
</linearGradient>
<linearGradient id="paint3_linear_4_3258" x1="28.7505" y1="17.9693" x2="43.1232" y2="17.9693" gradientUnits="userSpaceOnUse">
<stop stop-color="#C84E89"/>
<stop offset="1" stop-color="#F15F79"/>
</linearGradient>
</defs>
</svg>
