<svg width="46" height="46" viewBox="0 0 46 46" fill="none" xmlns="http://www.w3.org/2000/svg">
<path d="M23 5.5V16C23 16.9283 23.3687 17.8185 24.0251 18.4749C24.6815 19.1313 25.5717 19.5 26.5 19.5H37V37C37 37.9283 36.6312 38.8185 35.9749 39.4749C35.3185 40.1312 34.4283 40.5 33.5 40.5H21.5825C23.3938 38.6145 24.5003 36.1626 24.7157 33.557C24.9312 30.9514 24.2424 28.3511 22.7654 26.1937C21.2884 24.0363 19.1133 22.4536 16.6062 21.712C14.0991 20.9703 11.413 21.1149 9 22.1215V9C9 8.07174 9.36875 7.1815 10.0251 6.52513C10.6815 5.86875 11.5717 5.5 12.5 5.5H23ZM25.625 6.375V16C25.625 16.2321 25.7172 16.4546 25.8813 16.6187C26.0454 16.7828 26.2679 16.875 26.5 16.875H36.125L25.625 6.375ZM23 32.625C23 33.889 22.751 35.1406 22.2673 36.3083C21.7836 37.4761 21.0747 38.5371 20.1809 39.4309C19.2871 40.3247 18.2261 41.0336 17.0583 41.5173C15.8906 42.001 14.639 42.25 13.375 42.25C12.111 42.25 10.8594 42.001 9.69167 41.5173C8.52391 41.0336 7.46286 40.3247 6.5691 39.4309C5.67533 38.5371 4.96636 37.4761 4.48266 36.3083C3.99896 35.1406 3.75 33.889 3.75 32.625C3.75 30.0723 4.76406 27.6241 6.5691 25.8191C8.37414 24.0141 10.8223 23 13.375 23C15.9277 23 18.3759 24.0141 20.1809 25.8191C21.9859 27.6241 23 30.0723 23 32.625ZM19.2445 28.5055C19.1632 28.424 19.0667 28.3594 18.9604 28.3153C18.8541 28.2711 18.7401 28.2484 18.625 28.2484C18.5099 28.2484 18.3959 28.2711 18.2896 28.3153C18.1833 28.3594 18.0868 28.424 18.0055 28.5055L11.625 34.8877L8.7445 32.0055C8.5802 31.8412 8.35736 31.7489 8.125 31.7489C7.89264 31.7489 7.6698 31.8412 7.5055 32.0055C7.3412 32.1698 7.24889 32.3926 7.24889 32.625C7.24889 32.8574 7.3412 33.0802 7.5055 33.2445L11.0055 36.7445C11.0868 36.826 11.1833 36.8906 11.2896 36.9347C11.3959 36.9789 11.5099 37.0016 11.625 37.0016C11.7401 37.0016 11.8541 36.9789 11.9604 36.9347C12.0667 36.8906 12.1632 36.826 12.2445 36.7445L19.2445 29.7445C19.326 29.6632 19.3906 29.5667 19.4347 29.4604C19.4789 29.3541 19.5016 29.2401 19.5016 29.125C19.5016 29.0099 19.4789 28.8959 19.4347 28.7896C19.3906 28.6833 19.326 28.5868 19.2445 28.5055Z" fill="url(#paint0_linear_4_3268)"/>
<defs>
<linearGradient id="paint0_linear_4_3268" x1="3.75" y1="23.875" x2="37" y2="23.875" gradientUnits="userSpaceOnUse">
<stop stop-color="#C84E89"/>
<stop offset="1" stop-color="#F15F79"/>
</linearGradient>
</defs>
</svg>
