<svg width="46" height="46" viewBox="0 0 46 46" fill="none" xmlns="http://www.w3.org/2000/svg">
<path fill-rule="evenodd" clip-rule="evenodd" d="M23 6C21.5338 6 19.0836 6.56313 16.778 7.19C14.4193 7.8275 12.0414 8.58187 10.6431 9.03875C10.0585 9.23181 9.54024 9.58586 9.14781 10.0602C8.75538 10.5346 8.50472 11.1101 8.42464 11.7205C7.15814 21.2341 10.097 28.2849 13.6628 32.9493C15.1749 34.9445 16.9778 36.7016 19.0114 38.1619C19.8316 38.742 20.5924 39.1861 21.2384 39.49C21.8334 39.7705 22.473 40 23 40C23.527 40 24.1645 39.7705 24.7616 39.49C25.5404 39.1115 26.2855 38.6672 26.9886 38.1619C29.0222 36.7017 30.8252 34.9446 32.3373 32.9493C35.903 28.2849 38.8419 21.2341 37.5754 11.7205C37.4954 11.1098 37.2449 10.534 36.8524 10.0592C36.46 9.5845 35.9417 9.23006 35.3569 9.03663C33.3271 8.3711 31.2815 7.75467 29.222 7.18788C26.9164 6.56525 24.4663 6 23 6ZM27.5603 16.9352C27.7598 16.7357 28.0304 16.6237 28.3125 16.6237C28.5947 16.6237 28.8653 16.7357 29.0648 16.9352C29.2643 17.1348 29.3764 17.4054 29.3764 17.6875C29.3764 17.9696 29.2643 18.2402 29.0648 18.4398L22.6898 24.8148C22.5911 24.9137 22.4738 24.9922 22.3447 25.0458C22.2156 25.0993 22.0773 25.1269 21.9375 25.1269C21.7978 25.1269 21.6594 25.0993 21.5303 25.0458C21.4012 24.9922 21.284 24.9137 21.1853 24.8148L17.9978 21.6273C17.899 21.5285 17.8206 21.4112 17.7671 21.2821C17.7137 21.153 17.6862 21.0147 17.6862 20.875C17.6862 20.7353 17.7137 20.597 17.7671 20.4679C17.8206 20.3388 17.899 20.2215 17.9978 20.1227C18.0965 20.024 18.2138 19.9456 18.3429 19.8921C18.472 19.8387 18.6103 19.8112 18.75 19.8112C18.8897 19.8112 19.0281 19.8387 19.1571 19.8921C19.2862 19.9456 19.4035 20.024 19.5023 20.1227L21.9375 22.5601L27.5603 16.9352Z" fill="url(#paint0_linear_4_3276)"/>
<defs>
<linearGradient id="paint0_linear_4_3276" x1="8.125" y1="23" x2="37.875" y2="23" gradientUnits="userSpaceOnUse">
<stop stop-color="#C84E89"/>
<stop offset="1" stop-color="#F15F79"/>
</linearGradient>
</defs>
</svg>
