<svg width="110" height="74" viewBox="0 0 110 74" fill="none" xmlns="http://www.w3.org/2000/svg">
<mask id="mask0_4_3316" style="mask-type:alpha" maskUnits="userSpaceOnUse" x="-1" y="0" width="111" height="74">
<path d="M54.7062 64.185C54.7062 61.2333 57.0758 58.8683 60.032 58.8683C62.9837 58.8683 65.3487 61.2333 65.3487 64.185C65.3511 64.8841 65.2153 65.5768 64.949 66.2232C64.6827 66.8696 64.2913 67.4569 63.7971 67.9515C63.303 68.446 62.716 68.838 62.0698 69.1048C61.4237 69.3716 60.7311 69.5081 60.032 69.5063C59.3325 69.5093 58.6394 69.3739 57.9925 69.1079C57.3455 68.8419 56.7576 68.4505 56.2626 67.9563C55.7675 67.4622 55.3752 66.8749 55.1081 66.2285C54.8409 65.582 54.7044 64.8891 54.7062 64.1896V64.185ZM76.3578 64.1896C76.3578 61.2333 78.7274 58.8638 81.6791 58.8638C84.6308 58.8638 87.0004 61.2333 87.0004 64.185C87.0004 67.1367 84.6308 69.5063 81.6837 69.5063C80.9842 69.5093 80.291 69.3739 79.6441 69.1079C78.9972 68.8419 78.4093 68.4505 77.9142 67.9563C77.4192 67.4622 77.0268 66.8749 76.7597 66.2285C76.4926 65.582 76.356 64.8891 76.3578 64.1896ZM26.1703 64.1896C26.1703 61.2333 28.5399 58.8638 31.4916 58.8638C34.4433 58.8638 36.8083 61.2333 36.8083 64.185C36.8083 67.1367 34.4433 69.5063 31.4916 69.5063C30.7925 69.5087 30.0998 69.3728 29.4534 69.1066C28.807 68.8403 28.2197 68.4488 27.7251 67.9547C27.2306 67.4606 26.8386 66.8736 26.5718 66.2274C26.305 65.5812 26.1685 64.8887 26.1703 64.1896ZM4.51868 64.1896C4.51868 61.2333 6.88826 58.8638 9.83993 58.8638C12.7916 58.8638 15.1612 61.2333 15.1612 64.185C15.1636 64.8845 15.0276 65.5775 14.7611 66.2242C14.4945 66.8709 14.1026 67.4585 13.608 67.9531C13.1134 68.4477 12.5258 68.8396 11.8791 69.1061C11.2324 69.3727 10.5394 69.5087 9.83993 69.5063C9.14123 69.5081 8.44905 69.3718 7.80318 69.1052C7.15732 68.8387 6.57049 68.4471 6.07643 67.9531C5.58237 67.459 5.19082 66.8722 4.92427 66.2263C4.65773 65.5805 4.52145 64.8883 4.52326 64.1896H4.51868ZM48.2941 54.7846H43.6649V73.4067H48.2941V54.7846ZM15.1245 73.4067H19.7537V54.7846H15.1245V56.2788C13.5109 55.1557 11.5904 54.5572 9.62451 54.5646C4.29868 54.5646 -0.000488281 58.8638 -0.000488281 64.1896C-0.000488281 69.5429 4.29868 73.81 9.62451 73.81C11.6641 73.81 13.557 73.1913 15.1245 72.0958V73.4067ZM86.9637 73.4067H91.5928V54.7846H86.9637V56.2788C85.3501 55.1557 83.4296 54.5572 81.4637 54.5646C76.1378 54.5646 71.8387 58.8638 71.8387 64.1896C71.8344 65.4545 72.0805 66.7078 72.5628 67.8772C73.045 69.0467 73.7539 70.1091 74.6486 71.0033C75.5433 71.8976 76.606 72.606 77.7757 73.0877C78.9453 73.5694 80.1987 73.8149 81.4637 73.81C83.5033 73.81 85.3962 73.1913 86.9637 72.0958V73.4067ZM93.307 67.3567C93.4537 71.115 96.662 73.7733 102.015 73.7733C106.392 73.7733 110 71.8758 110 67.6867C110 64.7717 108.359 63.0575 104.568 62.3242L101.617 61.7467C99.7191 61.38 98.4083 61.0133 98.4083 59.8858C98.4083 58.6483 99.6824 58.0983 101.287 58.0983C103.624 58.0983 104.568 59.2671 104.642 60.6513H109.307C109.051 57.0075 106.136 54.5646 101.433 54.5646C96.5887 54.5646 93.7058 57.2229 93.7058 60.6879C93.7058 64.9138 97.1341 65.6058 100.086 66.1558L102.529 66.5913C104.28 66.9213 105.045 67.43 105.045 68.4521C105.045 69.3642 104.17 70.2717 102.089 70.2717C99.0637 70.2717 98.0828 68.7042 98.0462 67.3567H93.307ZM36.7762 48.4413V56.2788C35.1626 55.1557 33.2421 54.5572 31.2762 54.5646C25.9503 54.5646 21.6512 58.8638 21.6512 64.1896C21.6512 69.5429 25.9503 73.81 31.2762 73.81C33.3112 73.81 35.2087 73.1913 36.7762 72.0958V73.4067H41.4053V48.4413H36.7762ZM65.312 48.4413V56.2788C63.6984 55.1557 61.7779 54.5572 59.812 54.5646C54.4908 54.5646 50.187 58.8638 50.187 64.1896C50.1828 65.4545 50.4289 66.7078 50.9111 67.8772C51.3934 69.0467 52.1023 70.1091 52.9969 71.0033C53.8916 71.8976 54.9544 72.606 56.124 73.0877C57.2937 73.5694 58.5471 73.8149 59.812 73.81C61.8516 73.81 63.7445 73.1913 65.312 72.0958V73.4067H69.9412V48.4413H65.312ZM12.0262 42.9413L15.1612 48.4413H36.7762L28.2099 33.6417L12.0308 42.9367L12.0262 42.9413ZM48.2941 53.0704V48.4413H65.312L47.162 17.0225L30.9416 26.3175L43.6649 48.4413V53.0704H48.2941ZM72.2053 48.4413H93.8524L65.862 0L49.6783 9.33167L72.2053 48.4413Z" fill="black"/>
</mask>
<g mask="url(#mask0_4_3316)">
<rect x="-24.0005" y="-12" width="159" height="92" fill="#D9D9D9"/>
</g>
</svg>
