<svg width="15" height="15" viewBox="0 0 15 15" fill="none" xmlns="http://www.w3.org/2000/svg">
<path d="M4.85737 1.52426L5.52987 1.30926C6.16112 1.10801 6.83424 1.43363 7.10487 2.06988L7.64174 3.33738C7.87549 3.88926 7.74612 4.53863 7.32049 4.94238L6.13674 6.06613C6.20924 6.73863 6.43549 7.40051 6.81424 8.05176C7.17411 8.68189 7.65676 9.2334 8.23362 9.67363L9.65549 9.19863C10.1949 9.01926 10.7817 9.22613 11.1117 9.71176L11.8824 10.843C12.2667 11.408 12.198 12.1868 11.7211 12.6655L11.2099 13.1786C10.7011 13.6893 9.97424 13.8749 9.30237 13.6649C7.71549 13.1699 6.25674 11.7005 4.92549 9.25676C3.59237 6.80926 3.12174 4.73176 3.51424 3.02676C3.67924 2.30926 4.18987 1.73738 4.85737 1.52426Z" fill="#333333"/>
</svg>
