<svg width="150" height="68" viewBox="0 0 150 68" fill="none" xmlns="http://www.w3.org/2000/svg">
<path d="M75.1664 10.4884C74.8497 10.5718 73.9497 10.7551 73.1664 10.9051C72.383 11.0551 71.2664 11.2718 70.6664 11.4051C67.383 12.0551 63.683 12.7384 62.083 12.9884C61.1997 13.1218 59.2664 13.4884 57.1664 13.9051C56.483 14.0384 55.4664 14.2384 54.9164 14.3218C54.3664 14.4218 53.6497 14.5718 53.333 14.6551C52.7664 14.8051 50.7664 15.1718 47.583 15.7384C44.5497 16.2718 43.233 16.5051 42.4164 16.6718C41.9664 16.7551 40.6164 17.0218 39.4164 17.2551C36.4497 17.8384 35.2997 18.0551 32.583 18.5551C31.2997 18.7884 29.6497 19.0884 28.9164 19.2218C28.183 19.3718 27.3664 19.5051 27.083 19.5551C26.1664 19.6884 23.0164 20.2884 19.333 21.0384C18.183 21.2718 16.5497 21.5884 15.7164 21.7384C14.8664 21.9051 14.1664 22.1218 14.1664 22.2218C14.1664 22.3218 14.4664 23.1218 14.8497 23.9884C15.2164 24.8551 15.583 25.7218 15.6664 25.9051C15.7497 26.0884 16.1164 26.9051 16.4997 27.7218C16.883 28.5384 17.383 29.6384 17.6164 30.1384C17.833 30.6551 18.083 31.2218 18.1664 31.4051C18.2497 31.5884 18.4664 32.1051 18.6664 32.5718C19.1164 33.6218 19.2997 34.0551 20.1664 35.8884C20.533 36.7051 21.1497 38.0884 21.5164 38.9718C21.883 39.8551 22.433 41.0884 22.7497 41.7384C23.7164 43.7718 24.283 45.0384 24.9164 46.5718C25.2497 47.3884 25.933 48.8884 26.4164 49.9051C26.8997 50.9051 27.4664 52.1551 27.6664 52.6551C28.183 53.9384 28.2497 54.0884 28.8997 55.5384L29.4997 56.8218H76.7497H124.016L124.266 56.1884C124.416 55.8551 124.666 55.2718 124.816 54.9051C124.983 54.5384 125.333 53.7551 125.583 53.1551C125.85 52.5551 126.416 51.2884 126.866 50.3218C127.95 47.9884 128.066 47.7218 128.5 46.6551C128.7 46.1551 129.15 45.1384 129.5 44.4051C130.283 42.7551 130.883 41.4384 131.4 40.1884C131.616 39.6718 132.116 38.5718 132.5 37.7384C132.883 36.9218 133.366 35.8718 133.583 35.4051C133.8 34.9551 134.283 33.8218 134.666 32.9051C135.066 31.9884 135.7 30.5218 136.116 29.6551C136.516 28.7884 136.916 27.9218 137 27.7384C137.083 27.5551 137.383 26.8884 137.65 26.2718C137.933 25.6384 138.166 25.0884 138.166 25.0384C138.166 24.9884 138.433 24.3884 138.75 23.7051C139.066 23.0218 139.333 22.3551 139.333 22.2218C139.333 21.9718 139.35 21.9718 136.75 21.4718C133.95 20.9384 132.7 20.7051 131.25 20.4051C129.466 20.0384 127.45 19.6718 126.333 19.5051C125.833 19.4218 125 19.2884 124.5 19.1884C124 19.0884 122.683 18.8384 121.583 18.6384C120.483 18.4551 118.866 18.1384 118 17.9551C114.783 17.3051 111.5 16.6718 110.333 16.5051C109.833 16.4218 109 16.2884 108.5 16.1718C108 16.0718 106.5 15.8051 105.166 15.5551C103.833 15.3218 102.233 15.0218 101.583 14.9051C100.483 14.6884 99.8664 14.5718 96.4997 13.9051C94.7664 13.5551 92.733 13.1884 91.4997 13.0051C90.9997 12.9218 89.7164 12.6884 88.6664 12.4884C84.3164 11.6884 83.0497 11.4384 80.4164 10.9051C77.8164 10.3718 77.5664 10.3384 76.6664 10.3551C76.1664 10.3551 75.483 10.4218 75.1664 10.4884ZM125.866 27.0218C125.833 27.6218 125.683 28.6051 125.533 29.1884L125.25 30.2384L123.666 30.2218C122.8 30.2218 120.583 30.1551 118.766 30.0718L115.45 29.9384L115.55 30.3384C115.616 30.5718 115.7 31.1884 115.766 31.7218L115.883 32.6884L116.983 32.5884C117.583 32.5384 118.766 32.4218 119.583 32.3384C121.533 32.1218 121.7 32.2218 121.983 33.7551C122.15 34.6718 122.15 34.9051 121.966 35.0718C121.85 35.1884 120.85 35.5551 119.75 35.9051C118.65 36.2551 117.683 36.5884 117.583 36.6551C117.5 36.7218 117.2 36.8218 116.95 36.8884C116.516 36.9884 116.483 37.0384 116.533 37.7884L116.583 38.5718L117.333 38.5551C118.05 38.5384 119.1 38.3384 121.75 37.7218C122.4 37.5718 123.15 37.4384 123.416 37.4218C123.9 37.4051 123.916 37.4384 123.966 38.2218C124 38.6551 123.933 39.4051 123.833 39.8884C123.733 40.3551 123.583 41.1718 123.5 41.7218C123.25 43.4384 123.766 43.3218 116.066 43.3218C109.833 43.3218 109.333 43.3051 109.183 43.0218C109 42.6718 108.866 26.3218 109.05 26.0218C109.166 25.8718 110.966 25.8218 117.55 25.8551L125.916 25.9051L125.866 27.0218ZM99.4664 26.1884C99.583 26.3384 99.5664 26.9384 99.3997 28.1551C99.0664 30.5051 98.683 33.6051 98.4997 35.2384C98.433 35.9718 98.3164 36.9718 98.2497 37.4384C98.1164 38.4384 98.133 38.4384 99.4164 38.1551C103.1 37.3218 105.583 36.8218 106.033 36.8218C106.6 36.8218 106.733 37.2051 106.516 38.1884C106.433 38.5718 106.233 39.5051 106.083 40.2384C105.933 40.9718 105.7 41.9718 105.55 42.4384L105.3 43.3218L99.533 43.3551C91.8664 43.4051 92.033 43.4218 91.8997 43.2718C91.7497 43.1218 91.3164 34.3884 91.1164 27.4884L91.083 26.2384L92.2497 26.1384C94.683 25.9384 99.283 25.9718 99.4664 26.1884ZM62.3997 26.3218C62.6997 26.4384 62.8497 26.6384 62.933 27.1051C62.983 27.4551 63.133 28.0718 63.2497 28.4884C63.3664 28.9051 63.583 29.6718 63.733 30.2051C64.333 32.4218 64.533 33.0884 64.6664 33.4051C64.7497 33.5884 64.883 34.0384 64.9664 34.4051C65.0664 34.7718 65.4164 36.0884 65.7497 37.3218C66.0997 38.5551 66.433 39.8384 66.5164 40.1551C66.7664 41.2218 67.133 42.5718 67.233 42.8384C67.4664 43.3884 66.9664 43.5051 64.3164 43.4551L61.7497 43.4051L61.3664 42.6051L60.9997 41.8218H57.1664C52.933 41.8218 53.233 41.7551 52.4497 42.9884C52.2497 43.3051 51.8997 43.6051 51.6664 43.6718C51.1497 43.8218 47.1164 43.8551 46.7664 43.7218C46.3664 43.5718 46.4497 43.1051 47.083 41.8551C47.3997 41.2384 47.933 40.1384 48.2664 39.4051C48.5997 38.6718 49.333 37.0884 49.9164 35.9051C50.483 34.7051 51.1164 33.3551 51.333 32.9051C51.5497 32.4384 52.333 30.7884 53.0997 29.2051L54.4997 26.3384L55.783 26.2718C58.7664 26.1551 61.9997 26.1718 62.3997 26.3218ZM83.9997 26.5718C85.733 27.3218 86.9497 28.4551 87.533 29.8718C88.3664 31.9218 87.3497 34.6551 85.3997 35.6551C84.9497 35.8884 84.5497 36.0884 84.5164 36.1051C84.4497 36.1384 85.0997 37.5551 86.5164 40.3718C87.1497 41.6384 87.6664 42.7884 87.6664 42.9051C87.6664 43.0384 87.5164 43.2218 87.3497 43.3218C87.0164 43.4884 81.533 43.5551 80.9164 43.3884C80.733 43.3384 79.6164 42.1051 78.4164 40.6551C77.233 39.2051 76.1997 38.0051 76.1497 38.0051C76.0997 37.9884 75.8997 39.1218 75.733 40.5051C75.5664 41.8884 75.3497 43.1384 75.2497 43.2718C75.0997 43.4718 74.5164 43.5384 72.483 43.6218C70.233 43.6884 69.883 43.6718 69.683 43.4218C69.533 43.2384 69.4164 42.2551 69.3164 40.1884C69.233 38.5718 69.083 36.6051 68.9997 35.8218C68.9164 35.0384 68.833 33.8718 68.833 33.2218C68.833 32.5718 68.783 31.5718 68.733 31.0051L68.6164 29.9884H67.5497C66.7497 29.9884 66.4664 29.9218 66.3997 29.7384C66.333 29.5884 66.283 28.8051 66.2664 27.9718C66.2497 26.8051 66.2997 26.4384 66.4997 26.3218C66.6497 26.2051 69.8164 26.1718 74.9997 26.2051C82.7164 26.2384 83.2997 26.2718 83.9997 26.5718ZM44.383 26.6218C45.7997 26.9718 47.2664 27.7718 47.9997 28.6218C49.133 29.9051 49.4164 30.5551 49.4164 31.9884C49.4164 33.5051 49.1664 34.0384 47.8497 35.3218C46.033 37.0884 43.783 37.8718 39.833 38.1051L37.583 38.2384L37.4664 39.6551C37.3164 41.6384 37.0497 43.5051 36.883 43.6551C36.8164 43.7218 35.6997 43.8218 34.3997 43.8884C32.533 43.9718 31.9997 43.9384 31.7497 43.7551C31.4664 43.5551 31.3997 43.1551 31.233 41.1384C30.7664 35.6884 30.6664 34.4884 30.483 32.6551C30.383 31.6051 30.2664 30.6384 30.233 30.5218C30.1997 30.3884 29.833 30.3218 29.183 30.3218C28.3664 30.3218 28.1497 30.2551 27.9997 30.0051C27.7664 29.5384 27.783 26.7718 28.033 26.5218C28.3164 26.2384 43.2164 26.3384 44.383 26.6218Z" fill="#FF0000"/>
<path d="M57.2331 33.4382C57.0664 33.8716 56.5997 34.8716 56.2164 35.6382C55.8331 36.4216 55.5664 37.1216 55.5997 37.1882C55.7164 37.3716 58.7997 37.3549 58.9164 37.1549C58.9664 37.0716 58.8164 36.3382 58.5997 35.5382C58.3664 34.7382 58.0997 33.7549 57.9997 33.3549C57.8997 32.9716 57.7664 32.6549 57.6831 32.6549C57.6164 32.6549 57.3997 33.0049 57.2331 33.4382Z" fill="#FF0000"/>
<path d="M76.933 30.6885C76.6997 31.4385 76.4997 32.5551 76.4997 33.0718V33.6885L77.5497 33.5718C78.1164 33.5218 78.833 33.4051 79.1497 33.3218C80.4164 32.9885 80.9164 31.8385 80.083 31.1718C79.3497 30.6051 77.0664 30.2551 76.933 30.6885Z" fill="#FF0000"/>
<path d="M38.4997 31.0716C38.433 31.1549 38.333 31.6049 38.283 32.0716C38.2164 32.5216 38.133 33.1216 38.0664 33.3882L37.9497 33.8716L39.4497 33.7882C41.0664 33.7216 41.8664 33.3549 42.1664 32.5549C42.383 32.0216 42.2164 31.6882 41.5997 31.3549C40.9997 31.0382 38.6997 30.8216 38.4997 31.0716Z" fill="#FF0000"/>
</svg>
