<svg width="138" height="61" viewBox="0 0 138 61" fill="none" xmlns="http://www.w3.org/2000/svg">
<mask id="mask0_4_3327" style="mask-type:alpha" maskUnits="userSpaceOnUse" x="0" y="0" width="138" height="61">
<path fill-rule="evenodd" clip-rule="evenodd" d="M0 57.2653V56.6318C1.23187 56.5509 1.46999 56.3143 1.46999 55.2825V45.5886C1.46999 44.5567 1.23265 44.3194 0 44.2392V43.6027H9.3538V48.8072H8.71958C8.42153 46.2049 7.60677 44.3567 5.28389 44.3567C3.81467 44.3567 3.41702 44.6773 3.41702 45.5894V49.7223H3.97186C5.20373 49.7223 5.71967 48.9278 5.99826 47.2204H6.63326V52.979H5.99826C5.71967 51.2709 5.20373 50.4756 3.97186 50.4756H3.41702V55.2832C3.41702 56.3151 3.65436 56.5525 5.2442 56.6326V57.266H0V57.2653ZM11.5304 52.4592C11.5304 55.242 12.5428 56.7517 13.8727 56.7517C15.6019 56.7517 16.2174 55.2428 16.4151 53.8895L17.0516 54.0093C16.8719 55.7766 15.8999 57.5065 13.6751 57.5065C11.2129 57.5065 9.58337 55.0015 9.58337 52.5199C9.58337 49.6001 11.1732 47.5348 13.4183 47.5348C15.6198 47.5348 17.0127 49.6001 17.0127 52.4592H11.5304ZM15.0649 51.7051C15.0649 49.162 14.4696 48.1698 13.4183 48.1698C12.2852 48.1698 11.5304 49.162 11.5304 51.7051H15.0649ZM22.7036 43.6011L25.7027 43.4844V55.1416C25.7027 56.2132 26.0599 56.5307 26.8544 56.5112V57.1478L24.0724 57.2645V55.8754H24.0327C23.5969 56.81 22.9409 57.5065 21.7301 57.5065C19.9434 57.5065 18.2928 55.6778 18.2928 52.5596C18.2928 49.6795 19.8632 47.5348 21.948 47.5348C22.8802 47.5348 23.558 48.0912 23.9549 48.8648L23.9946 48.8453V45.2703C23.9946 44.4159 23.7347 44.2781 22.702 44.2384V43.6011H22.7036ZM21.8881 56.8684C22.9417 56.8684 23.9954 55.996 23.9954 52.579C23.9954 49.7581 23.26 48.2897 22.0484 48.2897C20.9566 48.2897 20.2414 49.5192 20.2414 52.579C20.2414 55.6389 20.8959 56.8684 21.8881 56.8684ZM29.389 52.4592C29.389 55.242 30.4045 56.7517 31.7337 56.7517C33.4612 56.7517 34.0768 55.2428 34.2768 53.8895L34.9118 54.0093C34.7344 55.7766 33.7601 57.5065 31.5344 57.5065C29.0723 57.5065 27.4459 55.0015 27.4459 52.5199C27.4459 49.6001 29.0334 47.5348 31.2776 47.5348C33.4823 47.5348 34.8721 49.6001 34.8721 52.4592H29.389ZM32.9266 51.7051C32.9266 49.162 32.329 48.1698 31.2769 48.1698C30.1446 48.1698 29.389 49.162 29.389 51.7051H32.9266ZM36.1328 57.2653V56.6318C36.9677 56.5921 37.2852 56.2334 37.2852 55.6396V50.2351C37.2852 48.8873 37.0479 48.4476 36.0557 48.408V47.7745L38.7949 47.6531V49.9589H38.8354C39.0953 48.927 39.8105 47.5364 41.0003 47.5364C41.7349 47.5364 42.4501 48.1519 42.4501 49.2647C42.4501 50.1192 42.0353 50.5565 41.5178 50.5565C41.0805 50.5565 40.6229 50.2772 40.6229 49.3846C40.6229 48.9076 40.903 48.4087 41.4781 48.4087C41.3777 48.2523 41.1809 48.1714 40.9606 48.1714C39.6105 48.1908 38.9965 51.0911 38.9965 52.8179V55.6404C38.9965 56.2349 39.314 56.5937 40.6641 56.6326V57.266H36.1328V57.2653ZM51.3019 54.5261C51.3019 56.6116 50.8841 57.5065 49.6514 57.5065C48.6989 57.5065 48.1643 57.0279 48.0452 55.9564H48.0055C47.5277 56.8482 46.9324 57.5065 45.5426 57.5065C44.0134 57.5065 43.1178 56.5719 43.1178 55.2614C43.1178 52.9969 46.2577 52.0608 47.9643 51.4265V49.7986C47.9643 48.6663 47.4499 48.1691 46.3947 48.1691C45.699 48.1691 45.1255 48.3862 44.7076 48.885C45.3426 48.9441 45.5426 49.4212 45.5426 49.9962C45.5426 50.7122 45.1052 51.1479 44.5481 51.1479C43.9932 51.1479 43.5956 50.7511 43.5956 49.9565C43.5956 48.6072 44.8671 47.5341 46.5947 47.5341C48.8195 47.5341 49.6716 48.5465 49.6716 50.0359V55.5579C49.6716 56.1338 49.8117 56.3937 50.0887 56.3937C50.4654 56.3937 50.6257 55.9564 50.6662 54.5261H51.3019ZM47.9635 52.1822C46.3745 52.7386 44.9449 53.4942 44.9449 55.1813C44.9449 56.2334 45.422 56.7517 46.0359 56.7517C47.0523 56.7517 47.9635 55.5587 47.9635 53.3152V52.1822ZM51.8887 57.2653V56.6318C52.842 56.5921 53.161 56.2334 53.161 55.6396V45.3123C53.161 44.6361 52.821 44.2789 51.8482 44.2392V43.6027L54.8684 43.4859V55.6404C54.8684 56.2349 55.1859 56.5937 56.1384 56.6326V57.266H51.8887V57.2653ZM61.9071 57.2653V56.6318C63.1389 56.5509 63.3763 56.3143 63.3763 55.2825V45.5886C63.3763 44.5567 63.1389 44.3194 61.9071 44.2392V43.6027H71.2803V48.8072H70.6453C70.1683 46.1076 69.4539 44.24 67.131 44.24C65.721 44.24 65.3241 44.6773 65.3241 45.5894V49.7223H65.9186C67.3287 49.7223 67.6859 48.9869 67.9069 47.3379H68.5419V52.8187H67.9069C67.6275 51.1511 67.1124 50.4764 65.8797 50.4764H65.3249V55.284C65.3249 56.0762 65.6229 56.6334 66.8128 56.6334C69.3769 56.6334 70.7659 54.9268 70.9239 51.867H71.5605V57.2668H61.9071V57.2653ZM72.8211 57.2653V56.6318C73.7129 56.512 74.2312 56.2334 74.8257 55.3198L76.4763 52.7767L73.9316 48.9254C73.6748 48.527 73.4966 48.4469 72.8616 48.4072V47.7737H76.7938V48.4072C76.1751 48.4072 75.8989 48.4679 75.8989 48.8251C75.8989 49.1029 76.1191 49.2826 77.5081 51.4273C78.7408 49.4803 78.9385 49.2632 78.9385 48.8453C78.9385 48.569 78.7198 48.408 77.9852 48.408V47.7745H81.5602V48.408C80.7851 48.408 80.2287 48.7255 79.7727 49.3838L77.9455 52.0615L80.3867 55.7976C80.7851 56.4147 81.1026 56.5314 81.838 56.6318V57.2653H77.6661V56.6318C78.4202 56.6318 78.5813 56.4536 78.5813 56.1945C78.5813 55.9182 78.4007 55.6988 76.9113 53.4545C75.6607 55.4396 75.4413 55.8178 75.4413 56.0746C75.4413 56.4155 75.7619 56.5929 76.3564 56.6326V57.266H72.8211V57.2653ZM82.2862 60.8792V60.2457C83.2379 60.206 83.5554 59.8473 83.5554 59.2535V49.3223C83.5554 48.4679 83.3181 48.3301 82.2862 48.2905V47.6523L85.1453 47.5356V49.4033H85.1865C85.483 48.4469 86.2978 47.5356 87.5685 47.5356C89.8331 47.5356 90.9653 50.4966 90.9653 52.5207C90.9653 55.2622 89.5553 57.5073 87.3903 57.5073C86.3585 57.5073 85.7001 56.9493 85.3064 56.2139H85.2651V59.2535C85.2651 59.8481 85.5826 60.2068 86.7367 60.2457V60.8792H82.2862ZM87.2495 56.8684C88.3016 56.8684 89.0167 55.5992 89.0167 52.579C89.0167 49.5192 88.3008 48.2897 87.2899 48.2897C86.2565 48.2897 85.2636 49.5192 85.2636 52.8965C85.2651 55.9564 86.4355 56.8684 87.2495 56.8684ZM91.791 57.2653V56.6318C92.6252 56.5921 92.9443 56.2334 92.9443 55.6396V50.2351C92.9443 48.8873 92.7054 48.4476 91.7132 48.408V47.7745L94.4532 47.6531V49.9589H94.4928C94.7512 48.927 95.4656 47.5364 96.657 47.5364C97.3924 47.5364 98.1068 48.1519 98.1068 49.2647C98.1068 50.1192 97.6904 50.5565 97.1753 50.5565C96.7379 50.5565 96.2803 50.2772 96.2803 49.3846C96.2803 48.9076 96.5582 48.4087 97.1363 48.4087C97.0344 48.2523 96.8383 48.1714 96.6181 48.1714C95.2687 48.1908 94.6547 51.0911 94.6547 52.8179V55.6404C94.6547 56.2349 94.9706 56.5937 96.3208 56.6326V57.266H91.791V57.2653ZM100.841 52.4592C100.841 55.242 101.854 56.7517 103.184 56.7517C104.913 56.7517 105.53 55.2428 105.728 53.8895L106.363 54.0093C106.184 55.7766 105.212 57.5065 102.987 57.5065C100.523 57.5065 98.8951 55.0015 98.8951 52.5199C98.8951 49.6001 100.482 47.5348 102.727 47.5348C104.932 47.5348 106.324 49.6001 106.324 52.4592H100.841ZM104.377 51.7051C104.377 49.162 103.78 48.1698 102.727 48.1698C101.595 48.1698 100.841 49.162 100.841 51.7051H104.377ZM108.002 57.2653V53.6918H108.637C108.836 54.9439 109.49 56.8684 111.099 56.8684C112.092 56.8684 112.847 56.2739 112.847 55.1416C112.847 52.579 108.081 53.7113 108.081 50.2141C108.081 48.9846 108.976 47.5348 110.723 47.5348C111.814 47.5348 112.253 48.1309 112.61 48.1309C112.807 48.1309 112.847 47.9138 112.927 47.7737H113.561V50.9122H112.927C112.71 49.7994 112.172 48.1706 110.803 48.1706C109.929 48.1706 109.353 48.7449 109.353 49.6009C109.353 51.9853 114.277 50.9129 114.277 54.5665C114.277 55.7976 113.305 57.5073 111.2 57.5073C109.868 57.5073 109.47 56.7914 108.996 56.7914C108.776 56.7914 108.678 57.0894 108.637 57.2653H108.002ZM115.74 57.2653V53.6918H116.377C116.575 54.9439 117.23 56.8684 118.839 56.8684C119.831 56.8684 120.587 56.2739 120.587 55.1416C120.587 52.579 115.821 53.7113 115.821 50.2141C115.821 48.9846 116.716 47.5348 118.463 47.5348C119.554 47.5348 119.993 48.1309 120.349 48.1309C120.548 48.1309 120.588 47.9138 120.666 47.7737H121.301V50.9122H120.666C120.449 49.7994 119.912 48.1706 118.542 48.1706C117.668 48.1706 117.092 48.7449 117.092 49.6009C117.092 51.9853 122.017 50.9129 122.017 54.5665C122.017 55.7976 121.045 57.5073 118.94 57.5073C117.607 57.5073 117.21 56.7914 116.737 56.7914C116.516 56.7914 116.419 57.0894 116.378 57.2653H115.74Z" fill="#43338E"/>
<path fill-rule="evenodd" clip-rule="evenodd" d="M111.559 36.8958L106.573 31.3038L101.633 36.8958H91.2394L101.397 25.4783L91.2394 14.0608H101.958L106.992 19.6069L111.839 14.0608H122.183L112.071 25.4308L122.325 36.8958H111.559ZM71.2681 36.8958V0.921875H91.2394V8.94108H79.7262V14.0608H91.2394V21.7741H79.7262V28.8556H91.2394V36.8958H71.2681Z" fill="#D5652C"/>
<path fill-rule="evenodd" clip-rule="evenodd" d="M62.8471 0.921875V15.6444H62.7514C60.8869 13.5005 58.5578 12.7557 55.8551 12.7557C50.2716 12.7557 46.1223 16.6015 44.6928 21.6411C43.0485 16.084 38.7514 12.6522 32.3173 12.6522C27.0933 12.6522 23.0242 15.0467 20.899 18.891V14.06H10.1802V8.9403H21.8787V0.921875H0.622559V36.8958H10.1802V21.7741H19.7597C19.471 22.8932 19.2695 24.0628 19.2695 25.3305C19.2695 32.8345 25 38.1013 32.3173 38.1013C38.4712 38.1013 42.5256 35.2119 44.671 29.9459H36.4814C35.374 31.531 34.532 31.9979 32.3165 31.9979C29.7493 31.9979 27.5354 29.7591 27.5354 27.1016H44.257C44.9846 33.0571 49.579 38.2024 55.9477 38.2024C58.697 38.2024 61.2145 36.853 62.7514 34.5683H62.8471V36.8966H71.2686V0.921875H62.8471ZM27.8023 21.8815C28.3322 19.596 30.1041 18.1042 32.3165 18.1042C34.7538 18.1042 36.4355 19.5524 36.8775 21.8815H27.8023ZM57.7329 31.4198C54.6279 31.4198 52.6988 28.5249 52.6988 25.5063C52.6988 22.2768 54.3758 19.1719 57.7329 19.1719C61.2145 19.1719 62.5989 22.2768 62.5989 25.5063C62.5989 28.5677 61.1297 31.4198 57.7329 31.4198Z" fill="#43338E"/>
<path fill-rule="evenodd" clip-rule="evenodd" d="M127.048 32.4407C127.048 29.5925 129.36 27.2813 132.236 27.2813C132.914 27.2802 133.585 27.413 134.212 27.6719C134.838 27.9308 135.408 28.3107 135.887 28.79C136.367 29.2693 136.747 29.8384 137.006 30.4649C137.265 31.0913 137.398 31.7627 137.397 32.4407C137.397 35.3176 135.098 37.6296 132.236 37.6296C131.554 37.6314 130.878 37.4984 130.248 37.2382C129.618 36.978 129.045 36.5958 128.563 36.1136C128.081 35.6314 127.699 35.0587 127.439 34.4283C127.179 33.798 127.046 33.1225 127.048 32.4407ZM136.487 32.4407C136.487 31.3132 136.039 30.2319 135.242 29.4345C134.444 28.6372 133.363 28.189 132.236 28.1886C129.868 28.1886 127.956 30.1006 127.956 32.4407C127.955 33.003 128.065 33.5599 128.28 34.0795C128.495 34.5992 128.81 35.0714 129.208 35.469C129.605 35.8667 130.077 36.1821 130.597 36.3972C131.117 36.6122 131.673 36.7227 132.236 36.7223C134.59 36.7223 136.487 34.8071 136.487 32.4407ZM131.135 32.7862V35.4157H130.185V29.3318H132.152C133.268 29.3318 134.424 29.6345 134.424 31.0111C134.424 31.7131 133.997 32.2632 133.184 32.429V32.4562C134.024 32.6204 134.121 32.9924 134.217 33.6523C134.299 34.2297 134.369 34.864 134.574 35.4157H133.364C133.292 35.071 133.198 34.685 133.156 34.3278C133.089 33.8033 133.089 33.3247 132.814 33.0329C132.578 32.787 132.261 32.8142 131.932 32.787H131.135V32.7862ZM132.14 31.836C133.035 31.8072 133.24 31.4345 133.24 30.9683C133.24 30.517 133.035 30.2812 132.279 30.2812H131.135V31.836H132.14Z" fill="#D5652C"/>
</mask>
<g mask="url(#mask0_4_3327)">
<rect x="-8.39746" y="-25.7891" width="159" height="92" fill="#D9D9D9"/>
</g>
</svg>
