<svg width="130" height="68" viewBox="0 0 130 68" fill="none" xmlns="http://www.w3.org/2000/svg">
<mask id="mask0_4184_5486" style="mask-type:alpha" maskUnits="userSpaceOnUse" x="0" y="0" width="130" height="68">
<path d="M16.4068 22.9725L17.1761 23.1647C11.4714 35.8256 11.8556 48.3575 28.4269 48.3575C56.4729 41.2101 56.4729 41.2101 75.5435 35.8892C72.0179 35.8256 68.4923 35.761 64.9987 35.6973C64.4536 32.0115 63.9088 28.3253 63.396 24.6391L59.3573 35.4084C56.6328 35.5047 53.9082 35.601 51.184 35.6967C55.1264 24.0297 59.0691 12.3948 63.0115 0.759803C65.8321 0.79179 68.6526 0.823777 71.4731 0.888084C69.1654 7.84327 69.1654 7.84327 69.4223 8.22778C71.5381 5.79177 73.6855 3.35575 75.8323 0.919738C83.9407 0.760469 92.0501 0.631854 100.159 0.503906C99.5504 2.58706 98.973 4.67055 98.3965 6.75404C95.4797 6.91431 92.5629 7.07458 89.6784 7.23485C87.8835 12.5554 87.8834 12.5554 87.7872 13.7415C90.3511 13.9018 92.9157 14.0621 95.512 14.2543L93.204 20.6967C90.3834 20.9533 87.5626 21.2099 84.7744 21.4661C83.973 23.8698 83.171 26.2738 82.4023 28.7098L90.3834 28.9984C90.0952 29.928 89.8067 30.8893 89.5175 31.8512C90.0626 31.8512 90.6074 31.8512 91.1845 31.8832C104.102 28.4536 117.051 25.056 130 21.6587C97.2103 35.8896 64.4213 50.1208 31.6313 64.384C-7.22032 77.1542 -7.79376 45.2598 16.4068 22.9725ZM18.2657 35.6973L30.2855 0.503906H39.1639L39.3561 13.2927C40.8625 9.09376 42.3692 4.92712 43.8753 0.760469C46.4393 0.664175 49.0355 0.56788 51.6315 0.503906C47.7531 12.2348 43.9069 23.9661 40.0605 35.6973H31.1501C31.0542 31.5623 30.9579 27.4277 30.8936 23.3253C27.3353 33.0367 27.3353 33.0367 26.6943 35.6973H18.2657ZM41.4076 35.6973C45.35 24.0624 49.3244 12.4274 53.2988 0.82411H61.7607C57.658 12.3308 53.5874 23.8378 49.5167 35.3445C46.7924 35.4408 44.1002 35.569 41.4076 35.6973ZM73.0108 32.1391C71.4405 18.7735 71.4405 18.7735 71.4405 15.6644C82.7232 2.52309 82.7232 2.52309 83.4922 2.23454L73.0108 32.1391Z" fill="#E09142"/>
</mask>
<g mask="url(#mask0_4184_5486)">
<rect x="-29" y="-14.4092" width="159" height="92" fill="#D9D9D9"/>
</g>
</svg>
