<svg width="15" height="15" viewBox="0 0 15 15" fill="none" xmlns="http://www.w3.org/2000/svg">
<path d="M12.4219 2.34375H2.57812C2.14315 2.34422 1.72612 2.51722 1.41854 2.82479C1.11097 3.13237 0.937965 3.5494 0.9375 3.98438V11.0156C0.937965 11.4506 1.11097 11.8676 1.41854 12.1752C1.72612 12.4828 2.14315 12.6558 2.57812 12.6562H12.4219C12.8569 12.6558 13.2739 12.4828 13.5815 12.1752C13.889 11.8676 14.062 11.4506 14.0625 11.0156V3.98438C14.062 3.5494 13.889 3.13237 13.5815 2.82479C13.2739 2.51722 12.8569 2.34422 12.4219 2.34375ZM12.0064 5.05752L7.7877 8.33877C7.70543 8.40272 7.6042 8.43744 7.5 8.43744C7.3958 8.43744 7.29457 8.40272 7.2123 8.33877L2.99355 5.05752C2.94399 5.02009 2.90236 4.97318 2.87107 4.91952C2.83979 4.86586 2.81949 4.80652 2.81134 4.74494C2.80319 4.68336 2.80737 4.62078 2.82361 4.56083C2.83986 4.50088 2.86786 4.44476 2.90599 4.39573C2.94411 4.34669 2.9916 4.30572 3.0457 4.2752C3.09979 4.24468 3.15941 4.22521 3.2211 4.21793C3.28278 4.21065 3.3453 4.2157 3.40501 4.23279C3.46473 4.24988 3.52045 4.27867 3.56895 4.31748L7.5 7.3749L11.4311 4.31748C11.5294 4.24325 11.6529 4.21069 11.775 4.22685C11.8971 4.24301 12.008 4.30658 12.0836 4.40383C12.1592 4.50107 12.1935 4.62416 12.1791 4.74649C12.1646 4.86882 12.1026 4.98055 12.0064 5.05752Z" fill="#333333"/>
</svg>
