<svg width="138" height="61" viewBox="0 0 138 61" fill="none" xmlns="http://www.w3.org/2000/svg">
<mask id="mask0_4184_5500" style="mask-type:alpha" maskUnits="userSpaceOnUse" x="-1" y="0" width="139" height="61">
<path fill-rule="evenodd" clip-rule="evenodd" d="M-0.000244141 57.2706V56.6372C1.23162 56.5563 1.46975 56.3197 1.46975 55.2878V45.594C1.46975 44.5621 1.2324 44.3247 -0.000244141 44.2446V43.608H9.35356V48.8125H8.71933C8.42129 46.2103 7.60653 44.3621 5.28364 44.3621C3.81443 44.3621 3.41677 44.6827 3.41677 45.5947V49.7277H3.97162C5.20349 49.7277 5.71943 48.9332 5.99802 47.2258H6.63302V52.9844H5.99802C5.71943 51.2763 5.20349 50.481 3.97162 50.481H3.41677V55.2886C3.41677 56.3205 3.65412 56.5578 5.24395 56.638V57.2714H-0.000244141V57.2706V57.2706ZM11.5301 52.4646C11.5301 55.2474 12.5426 56.757 13.8725 56.757C15.6016 56.757 16.2172 55.2481 16.4148 53.8949L17.0514 54.0147C16.8716 55.782 15.8997 57.5119 13.6748 57.5119C11.2126 57.5119 9.58312 55.0069 9.58312 52.5253C9.58312 49.6055 11.173 47.5402 13.418 47.5402C15.6195 47.5402 17.0125 49.6055 17.0125 52.4646H11.5301V52.4646ZM15.0647 51.7105C15.0647 49.1674 14.4694 48.1752 13.418 48.1752C12.285 48.1752 11.5301 49.1674 11.5301 51.7105H15.0647ZM22.7033 43.6065L25.7025 43.4897V55.147C25.7025 56.2185 26.0597 56.536 26.8542 56.5166V57.1531L24.0722 57.2699V55.8808H24.0325C23.5967 56.8154 22.9407 57.5119 21.7298 57.5119C19.9431 57.5119 18.2926 55.6831 18.2926 52.565C18.2926 49.6849 19.863 47.5402 21.9477 47.5402C22.88 47.5402 23.5578 48.0966 23.9547 48.8701L23.9944 48.8507V45.2757C23.9944 44.4212 23.7344 44.2835 22.7018 44.2438V43.6065H22.7033V43.6065ZM21.8878 56.8738C22.9415 56.8738 23.9951 56.0014 23.9951 52.5844C23.9951 49.7635 23.2597 48.295 22.0481 48.295C20.9563 48.295 20.2412 49.5246 20.2412 52.5844C20.2412 55.6442 20.8956 56.8738 21.8878 56.8738V56.8738ZM29.3887 52.4646C29.3887 55.2474 30.4043 56.757 31.7334 56.757C33.461 56.757 34.0765 55.2481 34.2765 53.8949L34.9115 54.0147C34.7341 55.782 33.7598 57.5119 31.5342 57.5119C29.072 57.5119 27.4456 55.0069 27.4456 52.5253C27.4456 49.6055 29.0331 47.5402 31.2774 47.5402C33.482 47.5402 34.8718 49.6055 34.8718 52.4646H29.3887ZM32.9264 51.7105C32.9264 49.1674 32.3287 48.1752 31.2766 48.1752C30.1444 48.1752 29.3887 49.1674 29.3887 51.7105H32.9264ZM36.1325 57.2706V56.6372C36.9675 56.5975 37.285 56.2388 37.285 55.645V50.2405C37.285 48.8927 37.0477 48.453 36.0555 48.4133V47.7799L38.7947 47.6585V49.9643H38.8351C39.0951 48.9324 39.8102 47.5418 41.0001 47.5418C41.7347 47.5418 42.4498 48.1573 42.4498 49.2701C42.4498 50.1246 42.0351 50.5619 41.5176 50.5619C41.0802 50.5619 40.6226 50.2825 40.6226 49.39C40.6226 48.9129 40.9028 48.4141 41.4779 48.4141C41.3775 48.2577 41.1806 48.1768 40.9604 48.1768C39.6102 48.1962 38.9962 51.0965 38.9962 52.8233V55.6458C38.9962 56.2403 39.3137 56.5991 40.6639 56.638V57.2714H36.1325V57.2706ZM51.3017 54.5314C51.3017 56.617 50.8838 57.5119 49.6512 57.5119C48.6987 57.5119 48.164 57.0333 48.045 55.9617H48.0053C47.5275 56.8535 46.9322 57.5119 45.5423 57.5119C44.0132 57.5119 43.1175 56.5773 43.1175 55.2668C43.1175 53.0023 46.2575 52.0661 47.9641 51.4319V49.8039C47.9641 48.6717 47.4497 48.1744 46.3945 48.1744C45.6988 48.1744 45.1252 48.3915 44.7073 48.8904C45.3423 48.9495 45.5423 49.4265 45.5423 50.0016C45.5423 50.7175 45.105 51.1533 44.5478 51.1533C43.993 51.1533 43.5953 50.7564 43.5953 49.9619C43.5953 48.6125 44.8669 47.5394 46.5944 47.5394C48.8193 47.5394 49.6714 48.5518 49.6714 50.0413V55.5633C49.6714 56.1391 49.8115 56.3991 50.0885 56.3991C50.4651 56.3991 50.6255 55.9617 50.6659 54.5314H51.3017V54.5314ZM47.9633 52.1875C46.3742 52.7439 44.9447 53.4995 44.9447 55.1867C44.9447 56.2388 45.4217 56.757 46.0357 56.757C47.052 56.757 47.9633 55.5641 47.9633 53.3206V52.1875V52.1875ZM51.8885 57.2706V56.6372C52.8417 56.5975 53.1608 56.2388 53.1608 55.645V45.3177C53.1608 44.6415 52.8207 44.2843 51.848 44.2446V43.608L54.8681 43.4913V55.6458C54.8681 56.2403 55.1856 56.5991 56.1381 56.638V57.2714H51.8885V57.2706V57.2706ZM61.9068 57.2706V56.6372C63.1387 56.5563 63.376 56.3197 63.376 55.2878V45.594C63.376 44.5621 63.1387 44.3247 61.9068 44.2446V43.608H71.2801V48.8125H70.6451C70.168 46.113 69.4537 44.2454 67.1308 44.2454C65.7207 44.2454 65.3238 44.6827 65.3238 45.5947V49.7277H65.9184C67.3284 49.7277 67.6856 48.9923 67.9066 47.3433H68.5416V52.8241H67.9066C67.6273 51.1564 67.1121 50.4817 65.8795 50.4817H65.3246V55.2894C65.3246 56.0816 65.6227 56.6387 66.8125 56.6387C69.3766 56.6387 70.7657 54.9322 70.9237 51.8724H71.5602V57.2722H61.9068V57.2706ZM72.8209 57.2706V56.6372C73.7127 56.5174 74.231 56.2388 74.8255 55.3252L76.476 52.7821L73.9314 48.9308C73.6746 48.5324 73.4964 48.4522 72.8614 48.4125V47.7791H76.7935V48.4125C76.1749 48.4125 75.8986 48.4732 75.8986 48.8304C75.8986 49.1082 76.1188 49.288 77.5079 51.4327C78.7405 49.4857 78.9382 49.2686 78.9382 48.8507C78.9382 48.5744 78.7195 48.4133 77.9849 48.4133V47.7799H81.5599V48.4133C80.7848 48.4133 80.2284 48.7308 79.7724 49.3892L77.9452 52.0669L80.3864 55.803C80.7848 56.4201 81.1023 56.5368 81.8377 56.6372V57.2706H77.6659V56.6372C78.4199 56.6372 78.581 56.459 78.581 56.1999C78.581 55.9236 78.4005 55.7041 76.911 53.4599C75.6605 55.445 75.441 55.8232 75.441 56.08C75.441 56.4209 75.7617 56.5983 76.3562 56.638V57.2714H72.8209V57.2706V57.2706ZM82.286 60.8845V60.2511C83.2377 60.2114 83.5552 59.8527 83.5552 59.2589V49.3277C83.5552 48.4732 83.3178 48.3355 82.286 48.2958V47.6577L85.145 47.541V49.4086H85.1863C85.4828 48.4522 86.2975 47.541 87.5683 47.541C89.8328 47.541 90.9651 50.502 90.9651 52.526C90.9651 55.2676 89.555 57.5127 87.3901 57.5127C86.3582 57.5127 85.6999 56.9547 85.3061 56.2193H85.2649V59.2589C85.2649 59.8534 85.5824 60.2122 86.7364 60.2511V60.8845H82.286V60.8845ZM87.2492 56.8738C88.3014 56.8738 89.0165 55.6045 89.0165 52.5844C89.0165 49.5246 88.3006 48.295 87.2897 48.295C86.2563 48.295 85.2633 49.5246 85.2633 52.9019C85.2649 55.9617 86.4353 56.8738 87.2492 56.8738V56.8738ZM91.7907 57.2706V56.6372C92.6249 56.5975 92.944 56.2388 92.944 55.645V50.2405C92.944 48.8927 92.7051 48.453 91.7129 48.4133V47.7799L94.4529 47.6585V49.9643H94.4926C94.751 48.9324 95.4653 47.5418 96.6567 47.5418C97.3921 47.5418 98.1065 48.1573 98.1065 49.2701C98.1065 50.1246 97.6902 50.5619 97.175 50.5619C96.7377 50.5619 96.2801 50.2825 96.2801 49.39C96.2801 48.9129 96.5579 48.4141 97.1361 48.4141C97.0342 48.2577 96.8381 48.1768 96.6178 48.1768C95.2685 48.1962 94.6545 51.0965 94.6545 52.8233V55.6458C94.6545 56.2403 94.9704 56.5991 96.3206 56.638V57.2714H91.7907V57.2706V57.2706ZM100.84 52.4646C100.84 55.2474 101.854 56.757 103.184 56.757C104.913 56.757 105.53 55.2481 105.727 53.8949L106.362 54.0147C106.184 55.782 105.211 57.5119 102.987 57.5119C100.523 57.5119 98.8948 55.0069 98.8948 52.5253C98.8948 49.6055 100.482 47.5402 102.727 47.5402C104.932 47.5402 106.324 49.6055 106.324 52.4646H100.84ZM104.377 51.7105C104.377 49.1674 103.779 48.1752 102.727 48.1752C101.594 48.1752 100.84 49.1674 100.84 51.7105H104.377V51.7105ZM108.002 57.2706V53.6972H108.637C108.836 54.9493 109.49 56.8738 111.099 56.8738C112.091 56.8738 112.847 56.2792 112.847 55.147C112.847 52.5844 108.081 53.7167 108.081 50.2195C108.081 48.99 108.975 47.5402 110.723 47.5402C111.814 47.5402 112.252 48.1363 112.61 48.1363C112.807 48.1363 112.847 47.9192 112.927 47.7791H113.56V50.9175H112.927C112.71 49.8047 112.171 48.176 110.803 48.176C109.929 48.176 109.353 48.7503 109.353 49.6063C109.353 51.9906 114.277 50.9183 114.277 54.5719C114.277 55.803 113.304 57.5127 111.199 57.5127C109.868 57.5127 109.47 56.7967 108.996 56.7967C108.775 56.7967 108.678 57.0948 108.637 57.2706H108.002V57.2706ZM115.74 57.2706V53.6972H116.377C116.574 54.9493 117.23 56.8738 118.839 56.8738C119.831 56.8738 120.587 56.2792 120.587 55.147C120.587 52.5844 115.82 53.7167 115.82 50.2195C115.82 48.99 116.715 47.5402 118.462 47.5402C119.553 47.5402 119.993 48.1363 120.349 48.1363C120.548 48.1363 120.588 47.9192 120.666 47.7791H121.301V50.9175H120.666C120.449 49.8047 119.912 48.176 118.542 48.176C117.668 48.176 117.092 48.7503 117.092 49.6063C117.092 51.9906 122.016 50.9183 122.016 54.5719C122.016 55.803 121.045 57.5127 118.94 57.5127C117.607 57.5127 117.21 56.7967 116.736 56.7967C116.516 56.7967 116.419 57.0948 116.378 57.2706H115.74V57.2706Z" fill="#43338E"/>
<path fill-rule="evenodd" clip-rule="evenodd" d="M111.559 36.8993L106.572 31.3072L101.632 36.8993H91.2389L101.397 25.4817L91.2389 14.0642H101.958L106.992 19.6103L111.838 14.0642H122.183L112.071 25.4343L122.324 36.8993H111.559V36.8993ZM71.2676 36.8993V0.925293H91.2389V8.9445H79.7257V14.0642H91.2389V21.7776H79.7257V28.859H91.2389V36.8993H71.2676V36.8993Z" fill="#D5652C"/>
<path fill-rule="evenodd" clip-rule="evenodd" d="M62.8469 0.925293V15.6478H62.7512C60.8866 13.5039 58.5575 12.7592 55.8549 12.7592C50.2714 12.7592 46.1221 16.605 44.6926 21.6445C43.0483 16.0875 38.7511 12.6557 32.3171 12.6557C27.0931 12.6557 23.024 15.0501 20.8987 18.8944V14.0634H10.18V8.94372H21.8785V0.925293H0.622314V36.8993H10.18V21.7776H19.7595C19.4708 22.8966 19.2692 24.0662 19.2692 25.3339C19.2692 32.8379 24.9998 38.1047 32.3171 38.1047C38.471 38.1047 42.5253 35.2153 44.6708 29.9493H36.4811C35.3738 31.5345 34.5318 32.0014 32.3163 32.0014C29.7491 32.0014 27.5351 29.7625 27.5351 27.105H44.2568C44.9844 33.0605 49.5788 38.2058 55.9475 38.2058C58.6968 38.2058 61.2142 36.8565 62.7512 34.5717H62.8469V36.9H71.2684V0.925293H62.8469ZM27.802 21.8849C28.332 19.5994 30.1039 18.1076 32.3163 18.1076C34.7536 18.1076 36.4352 19.5558 36.8772 21.8849H27.802ZM57.7326 31.4232C54.6277 31.4232 52.6985 28.5283 52.6985 25.5097C52.6985 22.2803 54.3755 19.1753 57.7326 19.1753C61.2142 19.1753 62.5986 22.2803 62.5986 25.5097C62.5986 28.5711 61.1294 31.4232 57.7326 31.4232Z" fill="#43338E"/>
<path fill-rule="evenodd" clip-rule="evenodd" d="M127.048 32.4455C127.048 29.5974 129.36 27.2861 132.235 27.2861C132.913 27.2851 133.585 27.4178 134.211 27.6767C134.838 27.9356 135.407 28.3156 135.887 28.7949C136.366 29.2741 136.746 29.8433 137.005 30.4697C137.265 31.0962 137.398 31.7676 137.397 32.4455C137.397 35.3225 135.097 37.6345 132.235 37.6345C131.553 37.6363 130.878 37.5032 130.248 37.2431C129.618 36.9829 129.045 36.6007 128.563 36.1185C128.081 35.6363 127.699 35.0636 127.439 34.4332C127.179 33.8029 127.046 33.1274 127.048 32.4455ZM136.486 32.4455C136.486 31.318 136.038 30.2368 135.241 29.4394C134.444 28.6421 133.363 28.1939 132.235 28.1935C129.867 28.1935 127.955 30.1055 127.955 32.4455C127.955 33.0079 128.065 33.5648 128.28 34.0844C128.495 34.6041 128.81 35.0762 129.207 35.4739C129.605 35.8716 130.077 36.187 130.597 36.402C131.116 36.6171 131.673 36.7276 132.235 36.7272C134.589 36.7272 136.486 34.812 136.486 32.4455ZM131.135 32.7911V35.4206H130.185V29.3367H132.151C133.267 29.3367 134.424 29.6394 134.424 31.016C134.424 31.7179 133.996 32.2681 133.183 32.4339V32.4611C134.024 32.6253 134.121 32.9973 134.217 33.6572C134.298 34.2346 134.368 34.8688 134.574 35.4206H133.364C133.292 35.0758 133.198 34.6899 133.155 34.3327C133.088 33.8082 133.088 33.3296 132.813 33.0378C132.578 32.7918 132.26 32.8191 131.932 32.7918H131.135V32.7911V32.7911ZM132.14 31.8409C133.034 31.8121 133.24 31.4393 133.24 30.9732C133.24 30.5219 133.034 30.2861 132.278 30.2861H131.135V31.8409H132.14V31.8409Z" fill="#D5652C"/>
</mask>
<g mask="url(#mask0_4184_5500)">
<rect x="-8.39764" y="-25.7871" width="159" height="92" fill="#D9D9D9"/>
</g>
</svg>
