<svg width="110" height="74" viewBox="0 0 110 74" fill="none" xmlns="http://www.w3.org/2000/svg">
<mask id="mask0_4184_5489" style="mask-type:alpha" maskUnits="userSpaceOnUse" x="-1" y="0" width="111" height="74">
<path d="M54.7064 64.185C54.7064 61.2333 57.076 58.8683 60.0322 58.8683C62.9839 58.8683 65.3489 61.2333 65.3489 64.185C65.3513 64.8841 65.2155 65.5768 64.9492 66.2232C64.6829 66.8696 64.2915 67.4569 63.7974 67.9515C63.3032 68.446 62.7162 68.838 62.07 69.1048C61.4239 69.3716 60.7313 69.5081 60.0322 69.5063C59.3328 69.5093 58.6396 69.3739 57.9927 69.1079C57.3457 68.8419 56.7578 68.4505 56.2628 67.9563C55.7678 67.4622 55.3754 66.8749 55.1083 66.2285C54.8412 65.582 54.7046 64.8891 54.7064 64.1896V64.185ZM76.3581 64.1896C76.3581 61.2333 78.7276 58.8638 81.6793 58.8638C84.631 58.8638 87.0006 61.2333 87.0006 64.185C87.0006 67.1367 84.631 69.5063 81.6839 69.5063C80.9844 69.5093 80.2913 69.3739 79.6443 69.1079C78.9974 68.8419 78.4095 68.4505 77.9145 67.9563C77.4194 67.4622 77.0271 66.8749 76.7599 66.2285C76.4928 65.582 76.3562 64.8891 76.3581 64.1896V64.1896ZM26.1706 64.1896C26.1706 61.2333 28.5401 58.8638 31.4918 58.8638C34.4435 58.8638 36.8085 61.2333 36.8085 64.185C36.8085 67.1367 34.4435 69.5063 31.4918 69.5063C30.7927 69.5087 30.1001 69.3728 29.4537 69.1066C28.8073 68.8403 28.2199 68.4488 27.7253 67.9547C27.2308 67.4606 26.8388 66.8736 26.572 66.2274C26.3052 65.5812 26.1687 64.8887 26.1706 64.1896V64.1896ZM4.51889 64.1896C4.51889 61.2333 6.88848 58.8638 9.84014 58.8638C12.7918 58.8638 15.1614 61.2333 15.1614 64.185C15.1638 64.8845 15.0278 65.5775 14.7613 66.2242C14.4947 66.8709 14.1028 67.4585 13.6082 67.9531C13.1136 68.4477 12.5261 68.8396 11.8794 69.1061C11.2327 69.3727 10.5396 69.5087 9.84014 69.5063C9.14144 69.5081 8.44926 69.3718 7.8034 69.1053C7.15753 68.8387 6.57071 68.4471 6.07665 67.9531C5.58259 67.459 5.19103 66.8722 4.92449 66.2263C4.65794 65.5805 4.52166 64.8883 4.52348 64.1896H4.51889ZM48.2943 54.7846H43.6651V73.4067H48.2943V54.7846ZM15.1247 73.4067H19.7539V54.7846H15.1247V56.2788C13.5111 55.1557 11.5907 54.5572 9.62473 54.5646C4.29889 54.5646 -0.000274658 58.8638 -0.000274658 64.1896C-0.000274658 69.5429 4.29889 73.81 9.62473 73.81C11.6643 73.81 13.5572 73.1913 15.1247 72.0958V73.4067V73.4067ZM86.9639 73.4067H91.5931V54.7846H86.9639V56.2788C85.3503 55.1557 83.4298 54.5572 81.4639 54.5646C76.1381 54.5646 71.8389 58.8638 71.8389 64.1896C71.8347 65.4545 72.0807 66.7078 72.563 67.8772C73.0453 69.0467 73.7541 70.1091 74.6488 71.0033C75.5435 71.8976 76.6063 72.606 77.7759 73.0877C78.9455 73.5694 80.199 73.8149 81.4639 73.81C83.5035 73.81 85.3964 73.1913 86.9639 72.0958V73.4067V73.4067ZM93.3072 67.3567C93.4539 71.115 96.6622 73.7733 102.016 73.7733C106.393 73.7733 110 71.8758 110 67.6867C110 64.7717 108.359 63.0575 104.568 62.3242L101.617 61.7467C99.7193 61.38 98.4085 61.0133 98.4085 59.8858C98.4085 58.6483 99.6826 58.0983 101.287 58.0983C103.624 58.0983 104.568 59.2671 104.642 60.6513H109.308C109.051 57.0075 106.136 54.5646 101.433 54.5646C96.5889 54.5646 93.706 57.2229 93.706 60.6879C93.706 64.9138 97.1343 65.6058 100.086 66.1558L102.529 66.5913C104.28 66.9213 105.045 67.43 105.045 68.4521C105.045 69.3642 104.17 70.2717 102.089 70.2717C99.0639 70.2717 98.0831 68.7042 98.0464 67.3567H93.3072V67.3567ZM36.7764 48.4413V56.2788C35.1628 55.1557 33.2423 54.5572 31.2764 54.5646C25.9506 54.5646 21.6514 58.8638 21.6514 64.1896C21.6514 69.5429 25.9506 73.81 31.2764 73.81C33.3114 73.81 35.2089 73.1913 36.7764 72.0958V73.4067H41.4056V48.4413H36.7764V48.4413ZM65.3122 48.4413V56.2788C63.6986 55.1557 61.7782 54.5572 59.8122 54.5646C54.491 54.5646 50.1872 58.8638 50.1872 64.1896C50.183 65.4545 50.4291 66.7078 50.9113 67.8772C51.3936 69.0467 52.1025 70.1091 52.9971 71.0033C53.8918 71.8976 54.9546 72.606 56.1242 73.0877C57.2939 73.5694 58.5473 73.8149 59.8122 73.81C61.8518 73.81 63.7447 73.1913 65.3122 72.0958V73.4067H69.9414V48.4413H65.3122V48.4413ZM12.0264 42.9413L15.1614 48.4413H36.7764L28.2101 33.6417L12.031 42.9367L12.0264 42.9413ZM48.2943 53.0704V48.4413H65.3122L47.1622 17.0225L30.9418 26.3175L43.6651 48.4413V53.0704H48.2943V53.0704ZM72.2056 48.4413H93.8526L65.8622 0L49.6785 9.33167L72.2056 48.4413V48.4413Z" fill="black"/>
</mask>
<g mask="url(#mask0_4184_5489)">
<rect x="-24.0003" y="-12" width="159" height="92" fill="#D9D9D9"/>
</g>
</svg>
