<svg width="140" height="26" viewBox="0 0 140 26" fill="none" xmlns="http://www.w3.org/2000/svg">
<mask id="mask0_4184_5526" style="mask-type:alpha" maskUnits="userSpaceOnUse" x="0" y="0" width="140" height="26">
<path d="M50.0735 25.1794C45.0223 25.1794 40.3334 23.6646 37.2035 20.8554C34.8389 18.733 33.7027 15.8501 33.7027 12.883C33.7027 9.95192 34.8879 7.04916 37.2033 4.93796C40.1099 2.28888 45.2418 0.629883 50.0735 0.629883C55.4203 0.629883 59.6999 1.97668 62.9714 4.94524C65.299 7.05756 66.4243 9.94744 66.4243 12.8832C66.4243 15.7289 65.2301 18.7593 62.9714 20.8554C59.925 23.6828 55.1375 25.1794 50.0735 25.1794V21.9415C52.7545 21.9415 55.2414 21.0158 56.9783 19.2877C58.7031 17.5713 59.5067 15.4615 59.5067 12.883C59.5067 10.4128 58.6398 8.10336 56.9783 6.46536C55.2647 4.77752 52.7183 3.82776 50.0735 3.82776C47.4205 3.82776 44.8725 4.76772 43.1575 6.46536C41.5049 8.1028 40.6358 10.419 40.6358 12.883C40.6358 15.3394 41.515 17.6542 43.1575 19.288C44.8739 20.9954 47.4129 21.9418 50.0735 21.9418V25.1797V25.1794ZM13.1543 0.641643C10.4523 0.641643 7.38269 1.14704 4.77449 2.31184C2.36733 3.38592 0.396973 5.12304 0.396973 8.00284C0.395853 10.5965 2.04421 12.1155 1.99941 12.0735C2.70053 12.7189 3.82921 13.8179 6.78013 14.4633C8.09893 14.7517 10.9185 15.1946 13.7264 15.4881C16.5135 15.7821 19.2564 16.0615 20.3736 16.3443C21.2612 16.5703 22.7522 16.878 22.7522 18.5507C22.7522 20.2167 21.1814 20.7252 20.9084 20.8355C20.6357 20.9433 18.7513 21.808 15.3638 21.808C12.8629 21.808 9.85621 21.0559 8.76029 20.6639C7.49693 20.2142 6.17169 19.6195 4.93549 18.1094C4.62805 17.7351 4.14309 16.7055 4.14309 15.686H1.07737V24.2764H4.48497V23.1158C4.48497 22.9837 4.65017 22.4402 5.22221 22.6986C5.93397 23.022 8.02333 23.8539 10.2079 24.31C11.9991 24.6847 13.1541 24.9532 15.3809 24.9532C19.0142 24.9532 20.9661 24.3613 22.3154 23.976C23.5866 23.612 25.1574 22.9585 26.4333 21.941C27.1244 21.3908 28.6397 19.9804 28.6397 17.4204C28.6397 14.9631 27.3209 13.4379 26.857 12.974C26.225 12.3417 25.4531 11.8517 24.6486 11.474C23.9478 11.1442 22.8418 10.748 21.9368 10.5265C20.1804 10.0953 16.2089 9.56328 14.3096 9.36448C12.318 9.15644 8.86305 8.87028 7.48321 8.44328C7.06489 8.31364 6.21201 7.90736 6.21201 6.91728C6.21201 6.21308 6.60205 5.61612 7.37289 5.13368C8.59649 4.36704 11.0681 3.89048 13.6443 3.89048C16.6902 3.87928 19.2695 4.57564 20.9103 5.30924C21.4684 5.55844 22.1213 5.91628 22.6399 6.33964C23.2251 6.81676 24.0466 7.80824 24.3437 9.19116H27.0961V1.71348H24.0228V2.5826C24.0228 2.86316 23.733 3.22772 23.1851 2.92644C21.8097 2.20488 17.9211 0.648083 13.1538 0.641643H13.1543ZM80.5039 2.00048L95.4956 15.5301L95.3416 6.42084C95.3265 5.22636 95.1064 4.72768 93.8145 4.72768H90.9957V2.00272H103.814V4.72768H101.065C99.7469 4.72768 99.6637 5.14908 99.6477 6.42084L99.8801 23.8265H95.4903L78.2227 8.41528L78.2263 19.3526C78.2415 20.5415 78.2972 21.1015 79.5222 21.1015H82.6008V23.8254H70.012V21.1018H72.9548C74.0541 21.1018 74.0104 20.0538 74.0104 19.2908V6.52444C74.0104 5.7004 73.8947 4.72964 72.1688 4.72964H69.781V2.00048H80.5039ZM118.462 21.0965C118.582 21.0965 119.117 21.0811 119.221 21.0494C119.517 20.957 119.717 20.7459 119.81 20.5258C119.849 20.4334 119.869 20.0246 119.869 19.9359L119.871 15.6295C119.871 15.5259 119.864 15.4811 119.688 15.2504C119.495 14.9984 111.835 6.31836 111.485 5.93616C111.049 5.46156 110.285 4.72796 109.124 4.72796H106.46V2.00188H121.492V4.7246H119.68C119.261 4.7246 118.982 5.1222 119.34 5.56404C119.34 5.56404 124.398 11.614 124.446 11.6773C124.493 11.7417 124.533 11.7571 124.598 11.6983C124.661 11.6381 129.782 5.61948 129.823 5.57188C130.066 5.28012 129.901 4.72768 129.376 4.72768H127.517V2.00188H139.837V4.72768H137.085C136.086 4.72768 135.68 4.91248 134.929 5.76172C134.585 6.15036 126.844 14.9863 126.633 15.2257C126.523 15.3509 126.533 15.5253 126.533 15.6289V19.9348C126.533 20.0221 126.552 20.4315 126.591 20.5233C126.685 20.7445 126.886 20.9556 127.182 21.0469C127.286 21.0788 127.813 21.0945 127.933 21.0945H130.749V23.82H115.794V21.0942L118.462 21.0965H118.462Z" fill="black"/>
</mask>
<g mask="url(#mask0_4184_5526)">
<rect x="-18.8831" y="-34.5547" width="159" height="92" fill="#D9D9D9"/>
</g>
</svg>
