<svg width="151" height="32" viewBox="0 0 151 32" fill="none" xmlns="http://www.w3.org/2000/svg">
<mask id="mask0_4184_5508" style="mask-type:alpha" maskUnits="userSpaceOnUse" x="0" y="0" width="151" height="31">
<path d="M126.077 22.1125L131.625 12.5459L132.349 0.97694L131.106 0.975225L115.739 27.4654L116.389 28.5839L126.077 22.1125ZM127.391 24.3547L116.962 29.5671L117.606 30.6891L148.225 30.7456L148.843 29.675L138.389 24.365L127.391 24.3547V24.3547ZM134.837 0.982079L133.502 0.97694L134.162 12.5476L139.672 22.1468L149.412 28.6953L150.097 27.527L134.837 0.982079V0.982079Z" fill="#D01931"/>
<path d="M91.4355 19.5491L91.4321 23.4974C91.4236 28.1154 88.2564 30.7036 83.8371 30.8286H82.8813C78.4585 30.6453 75.3222 28.0606 75.3308 23.4717V19.5234C75.3462 14.8951 78.5134 12.3275 82.9532 12.2007C83.1776 12.1973 83.6127 12.2007 83.8319 12.2007C88.2872 12.3429 91.4475 14.9568 91.4355 19.5491ZM83.0765 16.0325C81.3345 16.1284 79.661 17.0277 79.6542 19.5405V23.4974C79.6473 25.9143 81.3174 26.8872 83.0611 26.9934C83.1502 27.0037 83.5887 27.0037 83.6846 26.9985C85.3941 26.9026 87.0882 25.9742 87.0916 23.5076L87.0967 19.5491C87.1053 17.0637 85.4095 16.1336 83.6726 16.0325C83.4585 16.0171 83.277 16.0171 83.0765 16.0325Z" fill="#2B2C2B"/>
<path d="M98.094 20.0308C98.094 20.0308 104.586 12.643 104.973 12.2319L110.4 12.2456L102.512 21.1579L110.788 30.3374L105.29 30.3288L98.0872 22.3193L98.0735 30.3168L93.7073 30.3083L93.7484 7.80578L98.1112 7.81264L98.094 20.0308Z" fill="#2B2C2B"/>
<path d="M36.3599 22.6605L36.3685 19.4762C36.3805 14.8496 33.1482 12.2597 28.7204 12.109L27.8862 12.1038C23.4292 12.2426 20.2603 14.8188 20.2569 19.4419L20.2483 23.3696C20.2397 27.7752 23.52 30.5107 27.7594 30.7317C28.2099 30.7403 28.4446 30.7283 28.7478 30.7317C34.0561 30.7403 36.0413 28.051 36.2846 24.9746L32.2901 24.9643C32.1839 25.5467 31.9869 27.0404 28.6416 27.037C28.054 27.0301 27.2404 26.8862 26.6563 26.6944C24.176 25.8636 24.5717 22.8027 24.5717 22.6348L36.3599 22.6605ZM24.5683 19.1473C24.5683 16.7681 26.1493 15.8414 28.0232 15.7677C28.2236 15.7626 28.4275 15.7575 28.6039 15.7712C30.5035 15.8499 32.0931 16.8537 32.0879 19.1644V19.471L24.5614 19.4642L24.5683 19.1473V19.1473Z" fill="#2B2C2B"/>
<path d="M54.6511 22.6872L54.6579 19.5097C54.6699 14.8831 51.4342 12.2932 47.0029 12.1356H46.1756C41.7117 12.2727 38.5343 14.8506 38.5274 19.472L38.5223 23.4031C38.5137 27.8002 41.7905 30.5477 46.0368 30.7652C46.4993 30.7738 46.7237 30.7652 47.0303 30.7652C52.3472 30.7738 54.3188 28.0777 54.5637 25.0099L50.5915 24.9944C50.4613 25.5785 50.2814 27.0705 46.9156 27.0654C46.3332 27.0602 45.5281 26.9146 44.9526 26.7211C42.45 25.8954 42.8611 22.8327 42.8577 22.6683L54.6511 22.6872ZM42.8457 19.1843C42.8525 16.7982 44.4404 15.8698 46.3006 15.7995C46.4959 15.7927 46.7083 15.7961 46.8916 15.8047C48.7843 15.88 50.3756 16.8855 50.3705 19.1928V19.5011L42.8405 19.4909L42.8457 19.1843V19.1843Z" fill="#2B2C2B"/>
<path d="M65.515 12.2021C63.4921 12.197 62.1064 12.7485 61.3441 13.4011L61.3492 7.74683L57.0156 7.73998L56.9796 30.2425H57.7367C57.7367 30.2425 59.662 29.1651 59.7665 29.1291C60.0457 29.4254 61.9436 30.818 64.5678 30.818C64.9018 30.8214 65.2101 30.8471 65.5356 30.8266C69.9206 30.7358 73.0981 28.014 73.1084 23.4953L73.1118 19.5693C73.1204 15.15 69.9361 12.2055 65.515 12.2021ZM68.7713 23.5107C68.7696 25.9739 67.0584 26.9006 65.3557 27.0119C65.2667 27.0119 64.8145 27.0085 64.734 27.0034C62.9936 26.8869 61.3236 25.9277 61.3236 23.5039L61.3338 19.5488C61.3373 17.0274 63.0142 16.1435 64.7494 16.0287C64.9583 16.0133 65.1468 16.0065 65.3592 16.0305C67.0789 16.1487 68.7799 17.0565 68.7764 19.5608L68.7713 23.5107Z" fill="#2B2C2B"/>
<path d="M19.7 30.1763L11.3701 20.8837C11.7846 20.9077 12.1957 20.9248 12.6171 20.9248C15.4794 20.9283 19.0422 19.1229 19.0474 14.5391C19.0628 9.04239 14.4996 7.66692 10.4554 7.66349L0.743208 7.63951L0.69696 30.1403L5.09743 30.1506V20.1078L14.1245 30.166L19.7 30.1763ZM5.12483 11.4953L10.4023 11.5107C12.8398 11.5107 14.9963 12.2832 14.9963 14.6008C14.9895 16.9252 13.6431 17.7577 10.3903 17.7423L5.11113 17.7388L5.12483 11.4953Z" fill="#2B2C2B"/>
</mask>
<g mask="url(#mask0_4184_5508)">
<rect x="-7" y="-41" width="172" height="100" fill="#D9D9D9"/>
</g>
</svg>
