<svg width="131" height="68" viewBox="0 0 131 68" fill="none" xmlns="http://www.w3.org/2000/svg">
<mask id="mask0_4_3356" style="mask-type:alpha" maskUnits="userSpaceOnUse" x="0" y="0" width="131" height="68">
<path d="M17.2437 22.9764L18.013 23.1686C12.3083 35.8295 12.6925 48.3614 29.2638 48.3614C57.3098 41.214 57.3098 41.214 76.3804 35.8932C72.8548 35.8295 69.3292 35.7649 65.8356 35.7012C65.2905 32.0154 64.7458 28.3292 64.233 24.643L60.1943 35.4123C57.4697 35.5086 54.7451 35.6049 52.0209 35.7006C55.9633 24.0336 59.906 12.3987 63.8484 0.763709C66.669 0.795696 69.4895 0.827683 72.31 0.89199C70.0023 7.84718 70.0023 7.84717 70.2592 8.23169C72.375 5.79567 74.5225 3.35966 76.6693 0.923644C84.7776 0.764375 92.887 0.635761 100.996 0.507813C100.387 2.59097 99.8099 4.67446 99.2334 6.75795C96.3166 6.91822 93.3998 7.07849 90.5153 7.23875C88.7204 12.5593 88.7204 12.5593 88.6241 13.7455C91.188 13.9057 93.7527 14.066 96.3489 14.2582L94.0409 20.7006C91.2204 20.9572 88.3995 21.2138 85.6113 21.47C84.81 23.8737 84.0079 26.2777 83.2393 28.7137L91.2204 29.0023C90.9321 29.9319 90.6436 30.8932 90.3544 31.8551C90.8995 31.8551 91.4443 31.8551 92.0214 31.8871C104.939 28.4575 117.888 25.0599 130.837 21.6626C98.0473 35.8935 65.2582 50.1247 32.4682 64.388C-6.38341 77.1581 -6.95684 45.2637 17.2437 22.9764ZM19.1026 35.7012L31.1224 0.507813H40.0008L40.193 13.2966C41.6994 9.09767 43.2062 4.93102 44.7122 0.764375C47.2762 0.668081 49.8724 0.571787 52.4684 0.507812C48.59 12.2387 44.7439 23.97 40.8974 35.7012H31.987C31.8911 31.5662 31.7948 27.4316 31.7305 23.3292C28.1722 33.0406 28.1722 33.0406 27.5312 35.7012H19.1026ZM42.2445 35.7012C46.1869 24.0663 50.1613 12.4313 54.1357 0.828016H62.5976C58.495 12.3347 54.4243 23.8417 50.3536 35.3484C47.6294 35.4447 44.9371 35.573 42.2445 35.7012ZM73.8477 32.143C72.2774 18.7774 72.2774 18.7774 72.2774 15.6683C83.5601 2.527 83.5601 2.52699 84.3291 2.23845L73.8477 32.143Z" fill="#E09142"/>
</mask>
<g mask="url(#mask0_4_3356)">
<rect x="-28.1631" y="-14.4062" width="159" height="92" fill="#D9D9D9"/>
</g>
</svg>
