<svg width="150" height="68" viewBox="0 0 150 68" fill="none" xmlns="http://www.w3.org/2000/svg">
<mask id="mask0_4_3319" style="mask-type:alpha" maskUnits="userSpaceOnUse" x="-1" y="0" width="151" height="68">
<path d="M75.166 10.487C74.8493 10.5703 73.9493 10.7536 73.166 10.9036C72.3827 11.0536 71.266 11.2703 70.666 11.4036C67.3827 12.0536 63.6827 12.737 62.0827 12.987C61.1993 13.1203 59.266 13.487 57.166 13.9036C56.4827 14.037 55.466 14.237 54.916 14.3203C54.366 14.4203 53.6493 14.5703 53.3327 14.6536C52.766 14.8036 50.766 15.1703 47.5827 15.737C44.5493 16.2703 43.2327 16.5036 42.416 16.6703C41.966 16.7536 40.616 17.0203 39.416 17.2536C36.4493 17.837 35.2993 18.0536 32.5827 18.5536C31.2993 18.787 29.6493 19.087 28.916 19.2203C28.1827 19.3703 27.366 19.5036 27.0827 19.5536C26.166 19.687 23.016 20.287 19.3327 21.037C18.1827 21.2703 16.5493 21.587 15.716 21.737C14.866 21.9036 14.166 22.1203 14.166 22.2203C14.166 22.3203 14.466 23.1203 14.8493 23.987C15.216 24.8536 15.5827 25.7203 15.666 25.9036C15.7493 26.087 16.116 26.9036 16.4993 27.7203C16.8827 28.537 17.3827 29.637 17.616 30.137C17.8327 30.6536 18.0827 31.2203 18.166 31.4036C18.2493 31.587 18.466 32.1036 18.666 32.5703C19.116 33.6203 19.2993 34.0536 20.166 35.887C20.5327 36.7036 21.1493 38.087 21.516 38.9703C21.8827 39.8536 22.4327 41.087 22.7493 41.737C23.716 43.7703 24.2827 45.037 24.916 46.5703C25.2493 47.387 25.9327 48.887 26.416 49.9036C26.8993 50.9036 27.466 52.1536 27.666 52.6536C28.1827 53.937 28.2493 54.087 28.8993 55.537L29.4993 56.8203H76.7493H124.016L124.266 56.187C124.416 55.8536 124.666 55.2703 124.816 54.9036C124.983 54.537 125.333 53.7536 125.583 53.1536C125.849 52.5536 126.416 51.287 126.866 50.3203C127.949 47.987 128.066 47.7203 128.499 46.6536C128.699 46.1536 129.149 45.137 129.499 44.4036C130.283 42.7536 130.883 41.437 131.399 40.187C131.616 39.6703 132.116 38.5703 132.499 37.737C132.883 36.9203 133.366 35.8703 133.583 35.4036C133.799 34.9536 134.283 33.8203 134.666 32.9036C135.066 31.987 135.699 30.5203 136.116 29.6536C136.516 28.787 136.916 27.9203 136.999 27.737C137.083 27.5536 137.383 26.887 137.649 26.2703C137.933 25.637 138.166 25.087 138.166 25.037C138.166 24.987 138.433 24.387 138.749 23.7036C139.066 23.0203 139.333 22.3536 139.333 22.2203C139.333 21.9703 139.349 21.9703 136.749 21.4703C133.949 20.937 132.699 20.7036 131.249 20.4036C129.466 20.037 127.449 19.6703 126.333 19.5036C125.833 19.4203 124.999 19.287 124.499 19.187C123.999 19.087 122.683 18.837 121.583 18.637C120.483 18.4536 118.866 18.137 117.999 17.9536C114.783 17.3036 111.499 16.6703 110.333 16.5036C109.833 16.4203 108.999 16.287 108.499 16.1703C107.999 16.0703 106.499 15.8036 105.166 15.5536C103.833 15.3203 102.233 15.0203 101.583 14.9036C100.483 14.687 99.866 14.5703 96.4993 13.9036C94.766 13.5536 92.7327 13.187 91.4993 13.0036C90.9993 12.9203 89.716 12.687 88.666 12.487C84.316 11.687 83.0493 11.437 80.416 10.9036C77.816 10.3703 77.566 10.337 76.666 10.3536C76.166 10.3536 75.4827 10.4203 75.166 10.487ZM125.866 27.0203C125.833 27.6203 125.683 28.6036 125.533 29.187L125.249 30.237L123.666 30.2203C122.799 30.2203 120.583 30.1536 118.766 30.0703L115.449 29.937L115.549 30.337C115.616 30.5703 115.699 31.187 115.766 31.7203L115.883 32.687L116.983 32.587C117.583 32.537 118.766 32.4203 119.583 32.337C121.533 32.1203 121.699 32.2203 121.983 33.7536C122.149 34.6703 122.149 34.9036 121.966 35.0703C121.849 35.187 120.849 35.5536 119.749 35.9036C118.649 36.2536 117.683 36.587 117.583 36.6536C117.499 36.7203 117.199 36.8203 116.949 36.887C116.516 36.987 116.483 37.037 116.533 37.787L116.583 38.5703L117.333 38.5536C118.049 38.537 119.099 38.337 121.749 37.7203C122.399 37.5703 123.149 37.437 123.416 37.4203C123.899 37.4036 123.916 37.437 123.966 38.2203C123.999 38.6536 123.933 39.4036 123.833 39.887C123.733 40.3536 123.583 41.1703 123.499 41.7203C123.249 43.437 123.766 43.3203 116.066 43.3203C109.833 43.3203 109.333 43.3036 109.183 43.0203C108.999 42.6703 108.866 26.3203 109.049 26.0203C109.166 25.8703 110.966 25.8203 117.549 25.8536L125.916 25.9036L125.866 27.0203ZM99.466 26.187C99.5827 26.337 99.566 26.937 99.3993 28.1536C99.066 30.5036 98.6827 33.6036 98.4993 35.237C98.4327 35.9703 98.316 36.9703 98.2493 37.437C98.116 38.437 98.1327 38.437 99.416 38.1536C103.099 37.3203 105.583 36.8203 106.033 36.8203C106.599 36.8203 106.733 37.2036 106.516 38.187C106.433 38.5703 106.233 39.5036 106.083 40.237C105.933 40.9703 105.699 41.9703 105.549 42.437L105.299 43.3203L99.5327 43.3536C91.866 43.4036 92.0327 43.4203 91.8993 43.2703C91.7493 43.1203 91.316 34.387 91.116 27.487L91.0827 26.237L92.2493 26.137C94.6827 25.937 99.2827 25.9703 99.466 26.187ZM62.3993 26.3203C62.6993 26.437 62.8493 26.637 62.9327 27.1036C62.9827 27.4536 63.1327 28.0703 63.2493 28.487C63.366 28.9036 63.5827 29.6703 63.7327 30.2036C64.3327 32.4203 64.5327 33.087 64.666 33.4036C64.7493 33.587 64.8827 34.037 64.966 34.4036C65.066 34.7703 65.416 36.087 65.7493 37.3203C66.0993 38.5536 66.4327 39.837 66.516 40.1536C66.766 41.2203 67.1327 42.5703 67.2327 42.837C67.466 43.387 66.966 43.5036 64.316 43.4536L61.7493 43.4036L61.366 42.6036L60.9993 41.8203H57.166C52.9327 41.8203 53.2327 41.7536 52.4493 42.987C52.2493 43.3036 51.8993 43.6036 51.666 43.6703C51.1493 43.8203 47.116 43.8536 46.766 43.7203C46.366 43.5703 46.4493 43.1036 47.0827 41.8536C47.3993 41.237 47.9327 40.137 48.266 39.4036C48.5993 38.6703 49.3327 37.087 49.916 35.9036C50.4827 34.7036 51.116 33.3536 51.3327 32.9036C51.5493 32.437 52.3327 30.787 53.0993 29.2036L54.4993 26.337L55.7827 26.2703C58.766 26.1536 61.9993 26.1703 62.3993 26.3203ZM83.9993 26.5703C85.7327 27.3203 86.9493 28.4536 87.5327 29.8703C88.366 31.9203 87.3493 34.6536 85.3993 35.6536C84.9493 35.887 84.5493 36.087 84.516 36.1036C84.4493 36.137 85.0993 37.5536 86.516 40.3703C87.1493 41.637 87.666 42.787 87.666 42.9036C87.666 43.037 87.516 43.2203 87.3493 43.3203C87.016 43.487 81.5327 43.5536 80.916 43.387C80.7327 43.337 79.616 42.1036 78.416 40.6536C77.2327 39.2036 76.1993 38.0036 76.1493 38.0036C76.0993 37.987 75.8993 39.1203 75.7327 40.5036C75.566 41.887 75.3493 43.137 75.2493 43.2703C75.0993 43.4703 74.516 43.537 72.4827 43.6203C70.2327 43.687 69.8827 43.6703 69.6827 43.4203C69.5327 43.237 69.416 42.2536 69.316 40.187C69.2327 38.5703 69.0827 36.6036 68.9993 35.8203C68.916 35.037 68.8327 33.8703 68.8327 33.2203C68.8327 32.5703 68.7827 31.5703 68.7327 31.0036L68.616 29.987H67.5493C66.7493 29.987 66.466 29.9203 66.3993 29.737C66.3327 29.587 66.2827 28.8036 66.266 27.9703C66.2493 26.8036 66.2993 26.437 66.4993 26.3203C66.6493 26.2036 69.816 26.1703 74.9993 26.2036C82.716 26.237 83.2993 26.2703 83.9993 26.5703ZM44.3827 26.6203C45.7993 26.9703 47.266 27.7703 47.9993 28.6203C49.1327 29.9036 49.416 30.5536 49.416 31.987C49.416 33.5036 49.166 34.037 47.8493 35.3203C46.0327 37.087 43.7827 37.8703 39.8327 38.1036L37.5827 38.237L37.466 39.6536C37.316 41.637 37.0493 43.5036 36.8827 43.6536C36.816 43.7203 35.6993 43.8203 34.3993 43.887C32.5327 43.9703 31.9993 43.937 31.7493 43.7536C31.466 43.5536 31.3993 43.1536 31.2327 41.137C30.766 35.687 30.666 34.487 30.4827 32.6536C30.3827 31.6036 30.266 30.637 30.2327 30.5203C30.1993 30.387 29.8327 30.3203 29.1827 30.3203C28.366 30.3203 28.1493 30.2536 27.9993 30.0036C27.766 29.537 27.7827 26.7703 28.0327 26.5203C28.316 26.237 43.216 26.337 44.3827 26.6203Z" fill="#FF0000"/>
<path d="M57.2328 33.4348C57.0662 33.8681 56.5995 34.8681 56.2162 35.6348C55.8328 36.4181 55.5662 37.1181 55.5995 37.1848C55.7162 37.3681 58.7995 37.3515 58.9162 37.1515C58.9662 37.0681 58.8162 36.3348 58.5995 35.5348C58.3662 34.7348 58.0995 33.7515 57.9995 33.3515C57.8995 32.9681 57.7662 32.6515 57.6828 32.6515C57.6162 32.6515 57.3995 33.0015 57.2328 33.4348Z" fill="#FF0000"/>
<path d="M76.9328 30.6875C76.6995 31.4375 76.4995 32.5542 76.4995 33.0708V33.6875L77.5495 33.5708C78.1162 33.5208 78.8328 33.4042 79.1495 33.3208C80.4162 32.9875 80.9162 31.8375 80.0828 31.1708C79.3495 30.6042 77.0662 30.2542 76.9328 30.6875Z" fill="#FF0000"/>
<path d="M38.4992 31.0672C38.4326 31.1505 38.3326 31.6005 38.2826 32.0672C38.2159 32.5172 38.1326 33.1172 38.0659 33.3839L37.9492 33.8672L39.4492 33.7839C41.0659 33.7172 41.8659 33.3505 42.1659 32.5505C42.3826 32.0172 42.2159 31.6838 41.5992 31.3505C40.9992 31.0338 38.6992 30.8172 38.4992 31.0672Z" fill="#FF0000"/>
</mask>
<g mask="url(#mask0_4_3319)">
<rect x="-0.000488281" y="-3.25" width="159" height="92" fill="#D9D9D9"/>
</g>
</svg>
