<svg width="151" height="32" viewBox="0 0 151 32" fill="none" xmlns="http://www.w3.org/2000/svg">
<g clip-path="url(#clip0_4_3335)">
<path d="M126.077 22.1091L131.625 12.5425L132.349 0.973522L131.106 0.971807L115.739 27.462L116.388 28.5805L126.077 22.1091ZM127.39 24.3513L116.962 29.5637L117.606 30.6857L148.225 30.7422L148.843 29.6716L138.389 24.3616L127.39 24.3513ZM134.836 0.978661L133.502 0.973522L134.162 12.5442L139.672 22.1434L149.412 28.6918L150.097 27.5236L134.836 0.978661Z" fill="#D01931"/>
<path d="M91.4354 19.5408L91.4319 23.4891C91.4234 28.1071 88.2562 30.6953 83.8369 30.8203H82.8811C78.4584 30.637 75.322 28.0522 75.3306 23.4634V19.5151C75.346 14.8868 78.5132 12.3192 82.953 12.1924C83.1774 12.189 83.6125 12.1924 83.8318 12.1924C88.287 12.3346 91.4473 14.9485 91.4354 19.5408ZM83.0764 16.0242C81.3343 16.1201 79.6608 17.0194 79.654 19.5322V23.4891C79.6471 25.906 81.3172 26.8789 83.0609 26.9851C83.15 26.9954 83.5885 26.9954 83.6844 26.9902C85.3939 26.8943 87.088 25.9659 87.0914 23.4993L87.0966 19.5408C87.1051 17.0554 85.4093 16.1253 83.6725 16.0242C83.4583 16.0088 83.2768 16.0088 83.0764 16.0242Z" fill="#2B2C2B"/>
<path d="M98.0938 20.0215C98.0938 20.0215 104.586 12.6338 104.973 12.2227L110.399 12.2364L102.511 21.1486L110.788 30.3281L105.29 30.3196L98.0869 22.31L98.0732 30.3076L93.707 30.299L93.7481 7.79651L98.1109 7.80336L98.0938 20.0215Z" fill="#2B2C2B"/>
<path d="M36.3597 22.6522L36.3683 19.4679C36.3803 14.8413 33.148 12.2514 28.7201 12.1007L27.8859 12.0955C23.4289 12.2343 20.2601 14.8105 20.2566 19.4336L20.2481 23.3613C20.2395 27.7669 23.5197 30.5024 27.7592 30.7234C28.2097 30.732 28.4443 30.72 28.7475 30.7234C34.0558 30.732 36.0411 28.0427 36.2843 24.9663L32.2898 24.956C32.1836 25.5384 31.9866 27.0321 28.6413 27.0287C28.0538 27.0218 27.2402 26.8779 26.6561 26.6861C24.1758 25.8553 24.5714 22.7944 24.5714 22.6265L36.3597 22.6522ZM24.568 19.139C24.568 16.7598 26.149 15.8331 28.023 15.7594C28.2234 15.7543 28.4272 15.7492 28.6036 15.7629C30.5033 15.8416 32.0928 16.8454 32.0877 19.1561V19.4627L24.5612 19.4559L24.568 19.139Z" fill="#2B2C2B"/>
<path d="M54.6508 22.6837L54.6576 19.5063C54.6696 14.8797 51.4339 12.2898 47.0026 12.1322H46.1753C41.7114 12.2692 38.534 14.8472 38.5271 19.4686L38.522 23.3997C38.5134 27.7968 41.7902 30.5443 46.0365 30.7618C46.499 30.7704 46.7234 30.7618 47.03 30.7618C52.3469 30.7704 54.3184 28.0743 54.5634 25.0064L50.5912 24.991C50.461 25.5751 50.2811 27.0671 46.9153 27.0619C46.3329 27.0568 45.5278 26.9112 44.9523 26.7176C42.4497 25.892 42.8608 22.8293 42.8574 22.6649L54.6508 22.6837ZM42.8454 19.1808C42.8522 16.7948 44.4401 15.8664 46.3003 15.7961C46.4956 15.7893 46.708 15.7927 46.8913 15.8013C48.784 15.8766 50.3753 16.8821 50.3702 19.1894V19.4977L42.8402 19.4874L42.8454 19.1808Z" fill="#2B2C2B"/>
<path d="M65.5149 12.1958C63.492 12.1906 62.1062 12.7422 61.344 13.3948L61.3491 7.74048L57.0155 7.73363L56.9795 30.2361H57.7366C57.7366 30.2361 59.6619 29.1587 59.7664 29.1227C60.0456 29.4191 61.9435 30.8117 64.5677 30.8117C64.9017 30.8151 65.21 30.8408 65.5355 30.8202C69.9205 30.7294 73.098 28.0076 73.1083 23.489L73.1117 19.563C73.1202 15.1437 69.9359 12.1992 65.5149 12.1958ZM68.7712 23.5044C68.7695 25.9676 67.0583 26.8942 65.3556 27.0056C65.2666 27.0056 64.8143 27.0022 64.7338 26.997C62.9935 26.8805 61.3234 25.9213 61.3234 23.4975L61.3337 19.5424C61.3371 17.021 63.0141 16.1372 64.7493 16.0224C64.9582 16.007 65.1466 16.0001 65.359 16.0241C67.0788 16.1423 68.7797 17.0501 68.7763 19.5544L68.7712 23.5044Z" fill="#2B2C2B"/>
<path d="M19.6998 30.1719L11.3699 20.8793C11.7844 20.9033 12.1955 20.9204 12.6169 20.9204C15.4792 20.9239 19.042 19.1185 19.0472 14.5347C19.0626 9.03799 14.4994 7.66253 10.4552 7.6591L0.743025 7.63512L0.696777 30.1359L5.09724 30.1462V20.1034L14.1243 30.1616L19.6998 30.1719ZM5.12465 11.4909L10.4021 11.5063C12.8396 11.5063 14.9962 12.2788 14.9962 14.5964C14.9893 16.9208 13.643 17.7533 10.3901 17.7379L5.11095 17.7344L5.12465 11.4909Z" fill="#2B2C2B"/>
</g>
<defs>
<clipPath id="clip0_4_3335">
<rect width="150" height="30.4591" fill="white" transform="translate(0.396973 0.671875)"/>
</clipPath>
</defs>
</svg>
