<svg width="140" height="26" viewBox="0 0 140 26" fill="none" xmlns="http://www.w3.org/2000/svg">
<mask id="mask0_4_3353" style="mask-type:alpha" maskUnits="userSpaceOnUse" x="0" y="0" width="140" height="26">
<path d="M50.0735 25.1824C45.0223 25.1824 40.3334 23.6676 37.2035 20.8583C34.8389 18.7359 33.7027 15.8531 33.7027 12.8859C33.7027 9.95485 34.8879 7.05209 37.2033 4.94089C40.1099 2.29181 45.2418 0.632812 50.0735 0.632812C55.4203 0.632812 59.6999 1.97961 62.9714 4.94817C65.299 7.06049 66.4243 9.95037 66.4243 12.8862C66.4243 15.7318 65.2301 18.7623 62.9714 20.8583C59.925 23.6858 55.1375 25.1824 50.0735 25.1824V21.9445C52.7545 21.9445 55.2414 21.0188 56.9783 19.2906C58.7031 17.5742 59.5067 15.4644 59.5067 12.8859C59.5067 10.4157 58.6398 8.10629 56.9783 6.46829C55.2647 4.78045 52.7183 3.83069 50.0735 3.83069C47.4205 3.83069 44.8725 4.77065 43.1575 6.46829C41.5049 8.10573 40.6358 10.4219 40.6358 12.8859C40.6358 15.3423 41.515 17.6571 43.1575 19.2909C44.8739 20.9983 47.4129 21.9447 50.0735 21.9447V25.1826V25.1824ZM13.1543 0.644573C10.4523 0.644573 7.38269 1.14997 4.77449 2.31477C2.36733 3.38885 0.396973 5.12597 0.396973 8.00577C0.395853 10.5994 2.04421 12.1184 1.99941 12.0764C2.70053 12.7218 3.82921 13.8208 6.78013 14.4662C8.09893 14.7546 10.9185 15.1976 13.7264 15.491C16.5135 15.785 19.2564 16.0645 20.3736 16.3473C21.2612 16.5732 22.7522 16.8809 22.7522 18.5536C22.7522 20.2197 21.1814 20.7281 20.9084 20.8385C20.6357 20.9463 18.7513 21.8109 15.3638 21.8109C12.8629 21.8109 9.85621 21.0588 8.76029 20.6668C7.49693 20.2171 6.17169 19.6224 4.93549 18.1124C4.62805 17.738 4.14309 16.7085 4.14309 15.689H1.07737V24.2794H4.48497V23.1188C4.48497 22.9866 4.65017 22.4431 5.22221 22.7016C5.93397 23.025 8.02333 23.8568 10.2079 24.313C11.9991 24.6876 13.1541 24.9561 15.3809 24.9561C19.0142 24.9561 20.9661 24.3642 22.3154 23.9789C23.5866 23.6149 25.1574 22.9614 26.4333 21.9439C27.1244 21.3937 28.6397 19.9833 28.6397 17.4233C28.6397 14.966 27.3209 13.4409 26.857 12.9769C26.225 12.3447 25.4531 11.8547 24.6486 11.4769C23.9478 11.1471 22.8418 10.7509 21.9368 10.5294C20.1804 10.0982 16.2089 9.56621 14.3096 9.36741C12.318 9.15937 8.86305 8.87321 7.48321 8.44621C7.06489 8.31657 6.21201 7.91029 6.21201 6.92021C6.21201 6.21601 6.60205 5.61905 7.37289 5.13661C8.59649 4.36997 11.0681 3.89341 13.6443 3.89341C16.6902 3.88221 19.2695 4.57857 20.9103 5.31217C21.4684 5.56137 22.1213 5.91921 22.6399 6.34257C23.2251 6.81969 24.0466 7.81117 24.3437 9.19409H27.0961V1.71641H24.0228V2.58553C24.0228 2.86609 23.733 3.23065 23.1851 2.92937C21.8097 2.20781 17.9211 0.651013 13.1538 0.644573H13.1543ZM80.5039 2.00341L95.4956 15.533L95.3416 6.42377C95.3265 5.22929 95.1064 4.73061 93.8145 4.73061H90.9957V2.00565H103.814V4.73061H101.065C99.7469 4.73061 99.6637 5.15201 99.6477 6.42377L99.8801 23.8294H95.4903L78.2227 8.41821L78.2263 19.3556C78.2415 20.5444 78.2972 21.1045 79.5222 21.1045H82.6008V23.8283H70.012V21.1047H72.9548C74.0541 21.1047 74.0104 20.0567 74.0104 19.2937V6.52737C74.0104 5.70333 73.8947 4.73257 72.1688 4.73257H69.781V2.00341H80.5039ZM118.462 21.0994C118.582 21.0994 119.117 21.084 119.221 21.0524C119.517 20.96 119.717 20.7488 119.81 20.5288C119.849 20.4364 119.869 20.0276 119.869 19.9388L119.871 15.6324C119.871 15.5288 119.864 15.484 119.688 15.2533C119.495 15.0013 111.835 6.32129 111.485 5.93909C111.049 5.46449 110.285 4.73089 109.124 4.73089H106.46V2.00481H121.492V4.72753H119.68C119.261 4.72753 118.982 5.12513 119.34 5.56697C119.34 5.56697 124.398 11.6169 124.446 11.6802C124.493 11.7446 124.533 11.76 124.598 11.7012C124.661 11.641 129.782 5.62241 129.823 5.57481C130.066 5.28305 129.901 4.73061 129.376 4.73061H127.517V2.00481H139.837V4.73061H137.085C136.086 4.73061 135.68 4.91541 134.929 5.76465C134.585 6.15329 126.844 14.9893 126.633 15.2287C126.523 15.3538 126.533 15.5283 126.533 15.6319V19.9377C126.533 20.0251 126.552 20.4344 126.591 20.5262C126.685 20.7474 126.886 20.9586 127.182 21.0499C127.286 21.0818 127.813 21.0975 127.933 21.0975H130.749V23.823H115.794V21.0972L118.462 21.0994H118.462Z" fill="black"/>
</mask>
<g mask="url(#mask0_4_3353)">
<rect x="-18.8828" y="-34.5547" width="159" height="92" fill="#D9D9D9"/>
</g>
</svg>
