<svg width="194" height="42" viewBox="0 0 194 42" fill="none" xmlns="http://www.w3.org/2000/svg">
<path d="M68.6997 22.3957C68.6997 20.7317 69.0597 19.2517 69.7797 17.9557C70.4997 16.6437 71.4997 15.6277 72.7797 14.9077C74.0757 14.1717 75.5397 13.8037 77.1717 13.8037C79.1717 13.8037 80.8837 14.3317 82.3077 15.3877C83.7317 16.4437 84.6837 17.8837 85.1637 19.7077H80.6517C80.3157 19.0037 79.8357 18.4677 79.2117 18.0997C78.6037 17.7317 77.9077 17.5477 77.1237 17.5477C75.8597 17.5477 74.8357 17.9877 74.0517 18.8677C73.2677 19.7477 72.8757 20.9237 72.8757 22.3957C72.8757 23.8677 73.2677 25.0437 74.0517 25.9237C74.8357 26.8037 75.8597 27.2437 77.1237 27.2437C77.9077 27.2437 78.6037 27.0597 79.2117 26.6917C79.8357 26.3237 80.3157 25.7877 80.6517 25.0837H85.1637C84.6837 26.9077 83.7317 28.3477 82.3077 29.4037C80.8837 30.4437 79.1717 30.9638 77.1717 30.9638C75.5397 30.9638 74.0757 30.6037 72.7797 29.8837C71.4997 29.1477 70.4997 28.1317 69.7797 26.8357C69.0597 25.5397 68.6997 24.0597 68.6997 22.3957ZM95.645 31.0118C94.061 31.0118 92.605 30.6437 91.277 29.9077C89.965 29.1717 88.917 28.1477 88.133 26.8357C87.365 25.5077 86.981 24.0197 86.981 22.3717C86.981 20.7237 87.365 19.2437 88.133 17.9317C88.917 16.6197 89.965 15.5957 91.277 14.8597C92.605 14.1237 94.061 13.7557 95.645 13.7557C97.229 13.7557 98.677 14.1237 99.989 14.8597C101.317 15.5957 102.357 16.6197 103.109 17.9317C103.877 19.2437 104.261 20.7237 104.261 22.3717C104.261 24.0197 103.877 25.5077 103.109 26.8357C102.341 28.1477 101.301 29.1717 99.989 29.9077C98.677 30.6437 97.229 31.0118 95.645 31.0118ZM95.645 27.2677C96.989 27.2677 98.061 26.8197 98.861 25.9237C99.677 25.0277 100.085 23.8437 100.085 22.3717C100.085 20.8837 99.677 19.6997 98.861 18.8197C98.061 17.9237 96.989 17.4757 95.645 17.4757C94.285 17.4757 93.197 17.9157 92.381 18.7957C91.581 19.6757 91.181 20.8677 91.181 22.3717C91.181 23.8597 91.581 25.0517 92.381 25.9477C93.197 26.8277 94.285 27.2677 95.645 27.2677ZM125.624 13.9957V30.8438H121.52V20.7397L117.752 30.8438H114.44L110.648 20.7157V30.8438H106.544V13.9957H111.392L116.12 25.6597L120.8 13.9957H125.624ZM141.415 19.4197C141.415 20.3957 141.191 21.2917 140.743 22.1077C140.295 22.9077 139.607 23.5557 138.679 24.0517C137.751 24.5477 136.599 24.7957 135.223 24.7957H132.679V30.8438H128.575V13.9957H135.223C136.567 13.9957 137.703 14.2277 138.631 14.6917C139.559 15.1557 140.255 15.7957 140.719 16.6117C141.183 17.4277 141.415 18.3637 141.415 19.4197ZM134.911 21.5317C135.695 21.5317 136.279 21.3477 136.663 20.9797C137.047 20.6117 137.239 20.0917 137.239 19.4197C137.239 18.7477 137.047 18.2277 136.663 17.8597C136.279 17.4917 135.695 17.3077 134.911 17.3077H132.679V21.5317H134.911ZM154.04 27.8677H147.752L146.744 30.8438H142.448L148.544 13.9957H153.296L159.392 30.8438H155.048L154.04 27.8677ZM152.984 24.6997L150.896 18.5317L148.832 24.6997H152.984ZM176.319 30.8438H172.215L165.351 20.4517V30.8438H161.247V13.9957H165.351L172.215 24.4357V13.9957H176.319V30.8438ZM193.742 13.9957L187.91 25.2757V30.8438H183.806V25.2757L177.974 13.9957H182.63L185.894 21.0517L189.134 13.9957H193.742Z" fill="white"/>
<path fill-rule="evenodd" clip-rule="evenodd" d="M17.5456 20.8931L26.3491 29.8164L20.47 35.8167L5.85041 20.8931L20.47 5.96937L22.6635 8.20769L25.5874 5.22275L20.47 0L0 20.8931L20.47 41.7861L32.1657 29.8474L20.47 17.9081L17.5456 20.8931ZM26.3173 11.9387L38.0156 23.8795L40.9395 20.8946L32.1364 11.9686L38.0156 5.96937L52.6352 20.8931L38.0156 35.8167L35.8201 33.5784L32.8962 36.5639L38.0135 41.7871L58.481 20.8941L38.0156 0L26.3173 11.9387Z" fill="white"/>
</svg>
