<svg width="210" height="42" viewBox="0 0 210 42" fill="none" xmlns="http://www.w3.org/2000/svg">
<g clip-path="url(#clip0_4_3402)">
<path d="M62.4208 8.39844C65.1642 8.39844 67.4433 9.10387 69.2582 10.5147C71.0731 11.9256 72.297 13.8388 72.9301 16.2543H69.1C68.5724 14.8863 67.7282 13.8067 66.5676 13.0157C65.428 12.2035 64.0246 11.7973 62.3575 11.7973C61.028 11.7973 59.8358 12.1287 58.7806 12.7913C57.7465 13.454 56.9235 14.4053 56.3115 15.6451C55.7206 16.8635 55.4252 18.2957 55.4252 19.9418C55.4252 21.5664 55.7206 22.9986 56.3115 24.2385C56.9235 25.4569 57.7465 26.3975 58.7806 27.0601C59.8358 27.7228 61.028 28.0542 62.3575 28.0542C64.0246 28.0542 65.428 27.6587 66.5676 26.8678C67.7282 26.0554 68.5724 24.9759 69.1 23.6292H72.9301C72.297 26.0448 71.0731 27.958 69.2582 29.3689C67.4433 30.7583 65.1642 31.4531 62.4208 31.4531C60.3106 31.4531 58.443 30.9721 56.818 30.0101C55.1931 29.0268 53.9374 27.6694 53.0512 25.9379C52.1648 24.1851 51.7217 22.1863 51.7217 19.9418C51.7217 17.6972 52.1648 15.7092 53.0512 13.9777C53.9374 12.2249 55.1931 10.8567 56.818 9.87339C58.443 8.89009 60.3106 8.39844 62.4208 8.39844ZM84.5071 13.3685C86.1957 13.3685 87.7153 13.7319 89.0657 14.4587C90.4162 15.1855 91.4714 16.2329 92.2311 17.6011C92.9909 18.9691 93.3707 20.5724 93.3707 22.4107C93.3707 24.2705 92.9909 25.8845 92.2311 27.2526C91.4714 28.6206 90.4162 29.6682 89.0657 30.3949C87.7153 31.1217 86.1957 31.4851 84.5071 31.4851C82.8194 31.4851 81.3 31.1217 79.9489 30.3949C78.6194 29.6682 77.5647 28.6206 76.7837 27.2526C76.0241 25.863 75.6442 24.2492 75.6442 22.4107C75.6442 20.5724 76.0241 18.9691 76.7837 17.6011C77.5647 16.2329 78.6194 15.1855 79.9489 14.4587C81.3 13.7319 82.8194 13.3685 84.5071 13.3685ZM84.5071 16.5429C83.5791 16.5429 82.7244 16.7566 81.9432 17.1842C81.1626 17.6117 80.5295 18.2744 80.0439 19.1722C79.5799 20.0486 79.3474 21.1281 79.3474 22.4107C79.3474 23.7147 79.5799 24.8049 80.0439 25.6814C80.5295 26.5578 81.1626 27.2098 81.9432 27.6374C82.7244 28.0649 83.5791 28.2786 84.5071 28.2786C85.436 28.2786 86.2905 28.0649 87.0707 27.6374C87.8527 27.2098 88.475 26.5578 88.9385 25.6814C89.4243 24.8049 89.6667 23.7147 89.6667 22.4107C89.6667 21.1281 89.4243 20.0486 88.9385 19.1722C88.475 18.2744 87.8527 17.6117 87.0707 17.1842C86.2905 16.7566 85.436 16.5429 84.5071 16.5429ZM118.65 13.3044C120.719 13.3044 122.364 13.967 123.588 15.2924C124.833 16.6178 125.456 18.5096 125.456 20.9679V31.2606H121.847V21.3527C121.847 19.8135 121.467 18.6271 120.707 17.7934C119.948 16.9384 118.903 16.5108 117.574 16.5108C116.16 16.5108 115.031 16.9705 114.186 17.8896C113.363 18.7875 112.952 20.1128 112.952 21.8657V31.2606H109.344V21.3527C109.344 19.8135 108.964 18.6271 108.204 17.7934C107.444 16.9384 106.399 16.5108 105.07 16.5108C103.656 16.5108 102.527 16.9705 101.683 17.8896C100.86 18.7875 100.448 20.1128 100.448 21.8657V31.2606H96.84V13.5929H100.448V17.2804C100.891 15.9978 101.631 15.0145 102.665 14.3304C103.698 13.6463 104.912 13.3044 106.305 13.3044C107.761 13.3044 109.016 13.6678 110.072 14.3945C111.148 15.1214 111.928 16.1689 112.414 17.5369C112.92 16.2115 113.733 15.1748 114.851 14.4266C115.97 13.6784 117.236 13.3044 118.65 13.3044ZM139.672 13.3685C141.192 13.3685 142.542 13.7319 143.724 14.4587C144.927 15.1855 145.866 16.2329 146.541 17.6011C147.216 18.9691 147.554 20.5724 147.554 22.4107C147.554 24.2705 147.216 25.8845 146.541 27.2526C145.866 28.6206 144.927 29.6682 143.724 30.3949C142.542 31.1217 141.192 31.4851 139.672 31.4851C138.09 31.4851 136.738 31.0896 135.621 30.2987C134.502 29.5078 133.721 28.4603 133.278 27.1564V39.6616H129.669V13.5929H133.278V17.6972C133.721 16.3933 134.502 15.3458 135.621 14.5549C136.738 13.7639 138.09 13.3685 139.672 13.3685ZM138.564 16.575C137.552 16.575 136.644 16.8208 135.842 17.3124C135.04 17.7827 134.407 18.4668 133.943 19.3646C133.478 20.2411 133.247 21.2564 133.247 22.4107C133.247 23.5865 133.478 24.6125 133.943 25.489C134.407 26.3654 135.04 27.0495 135.842 27.5411C136.644 28.0114 137.552 28.2465 138.564 28.2465C140.168 28.2465 141.455 27.7336 142.426 26.7075C143.397 25.66 143.883 24.2277 143.883 22.4107C143.883 20.6151 143.397 19.1936 142.426 18.1461C141.455 17.0987 140.168 16.575 138.564 16.575ZM158.026 13.3685C159.609 13.3685 160.958 13.7639 162.077 14.5549C163.196 15.3458 163.987 16.3933 164.451 17.6972V13.5929H168.06V31.2606H164.451V27.1564C163.987 28.4603 163.196 29.5078 162.077 30.2987C160.958 31.0896 159.609 31.4851 158.026 31.4851C156.506 31.4851 155.145 31.1217 153.942 30.3949C152.761 29.6682 151.832 28.6206 151.157 27.2526C150.481 25.8845 150.143 24.2705 150.143 22.4107C150.143 20.5724 150.481 18.9691 151.157 17.6011C151.832 16.2329 152.761 15.1855 153.942 14.4587C155.145 13.7319 156.506 13.3685 158.026 13.3685ZM159.133 16.575C157.529 16.575 156.242 17.0987 155.272 18.1461C154.322 19.1722 153.847 20.5938 153.847 22.4107C153.847 24.2277 154.322 25.66 155.272 26.7075C156.242 27.7336 157.529 28.2465 159.133 28.2465C160.146 28.2465 161.054 28.0114 161.856 27.5411C162.657 27.0495 163.29 26.3654 163.755 25.489C164.219 24.6125 164.451 23.5865 164.451 22.4107C164.451 21.2564 164.219 20.2411 163.755 19.3646C163.29 18.4668 162.657 17.7827 161.856 17.3124C161.054 16.8208 160.146 16.575 159.133 16.575ZM182.14 13.3044C184.166 13.3044 185.79 13.967 187.015 15.2924C188.239 16.6178 188.851 18.5096 188.851 20.9679V31.2606H185.242V21.3527C185.242 19.7708 184.841 18.5523 184.04 17.6972C183.237 16.8208 182.14 16.3826 180.747 16.3826C179.312 16.3826 178.162 16.8529 177.297 17.7934C176.432 18.7126 175.999 20.0701 175.999 21.8657V31.2606H172.39V13.5929H175.999V17.4728C176.463 16.1474 177.244 15.1214 178.341 14.3945C179.439 13.6678 180.705 13.3044 182.14 13.3044ZM195.129 13.5929L200.351 26.5792L205.195 13.5929H209.215L198.674 39.6616H194.654L198.42 30.8438L191.077 13.5929H195.129Z" fill="#F15F79"/>
<path d="M40.122 2.52344H2.56104V39.4834H40.122V2.52344Z" stroke="#F15F79" stroke-width="6"/>
<path d="M29.8779 12.6016H12.8047V29.4016H29.8779V12.6016Z" fill="#F15F79"/>
</g>
<defs>
<clipPath id="clip0_4_3402">
<rect width="210" height="42" fill="white"/>
</clipPath>
</defs>
</svg>
