<svg width="48" height="48" viewBox="0 0 48 48" fill="none" xmlns="http://www.w3.org/2000/svg">
<path d="M33.3333 5.33325H14.6667C13.9594 5.33325 13.2811 5.6142 12.781 6.1143C12.281 6.6144 12 7.29267 12 7.99992V39.9999C12 40.7072 12.281 41.3854 12.781 41.8855C13.2811 42.3856 13.9594 42.6666 14.6667 42.6666H33.3333C34.0406 42.6666 34.7189 42.3856 35.219 41.8855C35.719 41.3854 36 40.7072 36 39.9999V7.99992C36 7.29267 35.719 6.6144 35.219 6.1143C34.7189 5.6142 34.0406 5.33325 33.3333 5.33325V5.33325ZM14.6667 7.99992H33.3333V31.9999H14.6667V7.99992ZM14.6667 39.9999V34.6666H33.3333V39.9999H14.6667Z" fill="white"/>
<path d="M22.6667 36H25.3334V38.6667H22.6667V36Z" fill="white"/>
</svg>
