<svg width="530" height="431" viewBox="0 0 530 431" fill="none" xmlns="http://www.w3.org/2000/svg">
<rect width="530" height="431" fill="#F5F5F5"/>
<g id="Frame 27">
<g id="designer-girl/rafiki">
<g id="Shadow">
<path id="shape" d="M288.38 430.112C412.005 430.112 512.222 424.261 512.222 417.043C512.222 409.826 412.005 403.975 288.38 403.975C164.756 403.975 64.5388 409.826 64.5388 417.043C64.5388 424.261 164.756 430.112 288.38 430.112Z" fill="#F5F5F5"/>
</g>
<g id="background-complete">
<path id="Vector" d="M155.777 396.551H117.541V396.84H155.777V396.551Z" fill="#EBEBEB"/>
<path id="Vector_2" d="M247.616 387.812H197.338V388.101H247.616V387.812Z" fill="#EBEBEB"/>
<path id="Vector_3" d="M116.387 385.838H60.3252V386.127H116.387V385.838Z" fill="#EBEBEB"/>
<path id="Vector_4" d="M325.209 389.74H285.622V390.029H325.209V389.74Z" fill="#EBEBEB"/>
<path id="Vector_5" d="M391.556 389.74H335.483V390.029H391.556V389.74Z" fill="#EBEBEB"/>
<path id="Vector_6" d="M484.988 394.612H376.836V394.901H484.988V394.612Z" fill="#EBEBEB"/>
<path id="Vector_7" d="M273.372 326.486H50.4543C48.708 326.483 47.0342 325.787 45.8005 324.551C44.5667 323.315 43.8738 321.64 43.8738 319.894V6.53434C43.889 4.79804 44.5886 3.13785 45.8207 1.91438C47.0529 0.690906 48.7179 0.00297438 50.4543 0H273.372C275.121 0 276.797 0.69452 278.034 1.93077C279.27 3.16702 279.964 4.84374 279.964 6.59207V6.59207V319.894C279.964 321.642 279.27 323.319 278.034 324.555C276.797 325.792 275.121 326.486 273.372 326.486V326.486ZM50.4543 0.230896C48.7845 0.233955 47.1842 0.899413 46.0046 2.08121C44.8249 3.263 44.1624 4.86456 44.1624 6.53434V319.894C44.1624 321.564 44.8249 323.165 46.0046 324.347C47.1842 325.529 48.7845 326.195 50.4543 326.198H273.372C275.042 326.192 276.642 325.525 277.823 324.345C279.004 323.164 279.67 321.564 279.676 319.894V6.53434C279.67 4.86444 279.004 3.26466 277.823 2.08385C276.642 0.903045 275.042 0.23698 273.372 0.230896H50.4543Z" fill="#EBEBEB"/>
<path id="Vector_8" d="M523.097 326.486H300.168C298.421 326.48 296.748 325.784 295.513 324.549C294.278 323.314 293.582 321.641 293.576 319.894V6.53434C293.594 4.79698 294.296 3.1368 295.53 1.91365C296.764 0.690503 298.43 0.00294194 300.168 0H523.097C524.832 0.00600847 526.494 0.695283 527.723 1.91843C528.953 3.14157 529.651 4.80003 529.666 6.53434V319.894C529.668 320.758 529.499 321.614 529.17 322.413C528.841 323.212 528.357 323.939 527.747 324.551C527.137 325.163 526.413 325.649 525.615 325.981C524.817 326.313 523.962 326.485 523.097 326.486V326.486ZM300.168 0.230896C298.498 0.23698 296.898 0.903045 295.717 2.08385C294.536 3.26466 293.87 4.86444 293.864 6.53434V319.894C293.87 321.564 294.536 323.164 295.717 324.345C296.898 325.525 298.498 326.192 300.168 326.198H523.097C524.767 326.192 526.367 325.525 527.548 324.345C528.729 323.164 529.395 321.564 529.401 319.894V6.53434C529.395 4.86444 528.729 3.26466 527.548 2.08385C526.367 0.903045 524.767 0.23698 523.097 0.230896H300.168Z" fill="#EBEBEB"/>
<path id="Vector_9" d="M253.769 114.57H140.896V377.976H253.769V114.57Z" fill="#E0E0E0"/>
<path id="Vector_10" d="M236.683 114.57H123.81V377.976H236.683V114.57Z" fill="#F0F0F0"/>
<path id="Vector_11" d="M226.593 315.115H134.754V362.795H226.593V315.115Z" fill="#E0E0E0"/>
<path id="Vector_12" d="M226.593 252.577H134.754V300.268H226.593V252.577Z" fill="#E0E0E0"/>
<path id="Vector_13" d="M226.593 190.05H134.754V237.742H226.593V190.05Z" fill="#E0E0E0"/>
<path id="Vector_14" d="M226.593 127.524H134.754V175.215H226.593V127.524Z" fill="#E0E0E0"/>
<path id="Vector_15" opacity="0.05" d="M153.942 127.524H134.754V175.215H153.942V127.524Z" fill="black"/>
<path id="Vector_16" opacity="0.05" d="M153.942 190.05H134.754V237.742H153.942V190.05Z" fill="black"/>
<path id="Vector_17" opacity="0.05" d="M153.942 252.577H134.754V300.268H153.942V252.577Z" fill="black"/>
<path id="Vector_18" opacity="0.05" d="M153.942 315.115H134.754V362.795H153.942V315.115Z" fill="black"/>
<path id="Vector_19" d="M149.67 27.4419H69.0298V108.082H149.67V27.4419Z" fill="#E0E0E0"/>
<path id="Vector_20" d="M145.445 27.4419H64.8044V108.082H145.445V27.4419Z" fill="#EBEBEB"/>
<path id="Vector_21" d="M136.174 36.7239H74.0864V98.8117H136.174V36.7239Z" fill="#F5F5F5"/>
<path id="Vector_22" d="M76.1414 36.7239H74.0864V98.8117H76.1414V36.7239Z" fill="#E0E0E0"/>
<path id="Vector_23" d="M114.511 76.5611C119.379 71.8175 119.48 64.026 114.736 59.1582C109.993 54.2905 102.201 54.1899 97.3334 58.9335C92.4656 63.6771 92.365 71.4686 97.1086 76.3364C101.852 81.2041 109.644 81.3047 114.511 76.5611Z" fill="#FAFAFA"/>
<path id="Vector_24" d="M64.5967 358.454C64.5967 358.454 58.2355 352.97 53.837 340.421C49.4384 327.872 39.2444 313.487 39.2444 313.487C39.2444 313.487 52.5786 319.79 57.2773 331.785C57.2773 331.785 51.5049 307.472 39.2444 298.582C39.2444 298.582 61.1795 305.648 66.6863 328.518C66.6863 328.518 70.346 310.358 64.3774 292.314C64.3774 292.314 75.6104 306.433 76.9265 323.946C76.9265 323.946 78.4851 293.618 88.4713 284.694C88.4713 284.694 85.3311 312.148 88.4713 326.001C88.4713 326.001 92.9161 301.688 112.785 298.294C112.785 298.294 99.9699 313.718 100.501 327.306C102.736 322.612 106.152 318.579 110.414 315.602C114.676 312.625 119.638 310.806 124.814 310.324C124.814 310.324 110.591 320.287 109.31 336.496C108.028 352.704 107.994 357.669 99.3696 360.024C90.7456 362.379 64.5967 358.454 64.5967 358.454Z" fill="#F5F5F5"/>
<path id="Vector_25" d="M50.8008 343.619V375.205C50.8008 375.205 54.8645 386.519 80.9673 387.974C107.07 389.428 113.166 375.494 113.166 375.494V343.619H50.8008Z" fill="#E6E6E6"/>
<path id="Vector_26" d="M514.196 254.308H350.665V378.934H514.196V254.308Z" fill="#E0E0E0"/>
<path id="Vector_27" d="M473.478 254.308H309.946V378.934H473.478V254.308Z" fill="#EBEBEB"/>
<path id="Vector_28" d="M465.339 265.842H315.788V312.009H465.339V265.842Z" stroke="#E0E0E0" stroke-miterlimit="10"/>
<path id="Vector_29" d="M465.339 319.698H315.788V365.866H465.339V319.698Z" stroke="#E0E0E0" stroke-miterlimit="10"/>
<path id="Vector_30" d="M390.563 293.11C392.878 293.11 394.754 291.234 394.754 288.92C394.754 286.605 392.878 284.729 390.563 284.729C388.249 284.729 386.373 286.605 386.373 288.92C386.373 291.234 388.249 293.11 390.563 293.11Z" fill="#E0E0E0"/>
<path id="Vector_31" d="M390.563 350.488C392.878 350.488 394.754 348.612 394.754 346.297C394.754 343.983 392.878 342.106 390.563 342.106C388.249 342.106 386.373 343.983 386.373 346.297C386.373 348.612 388.249 350.488 390.563 350.488Z" fill="#E0E0E0"/>
<path id="Vector_32" d="M520.28 247.659H302.742V254.308H520.28V247.659Z" fill="#E0E0E0"/>
<path id="Vector_33" opacity="0.05" d="M520.28 247.659H479.654V254.308H520.28V247.659Z" fill="black"/>
<path id="Vector_34" d="M517.925 61.7876H336.811V164.19H517.925V61.7876Z" fill="#E0E0E0"/>
<path id="Vector_35" d="M513.192 61.7876H332.078V164.19H513.192V61.7876Z" fill="#F0F0F0"/>
<path id="Vector_36" d="M505.573 69.5226H339.143V156.951H505.573V69.5226Z" fill="#F5F5F5"/>
<path id="Vector_37" d="M340.956 69.5226H339.143V156.951H340.956V69.5226Z" fill="#E0E0E0"/>
<path id="Vector_38" d="M496.734 97.2192L475.69 89.318L469.234 106.514L490.277 114.415L496.734 97.2192Z" fill="#FAFAFA"/>
<path id="Vector_39" d="M477.276 93.6281C477.716 93.6281 478.073 93.2715 478.073 92.8315C478.073 92.3916 477.716 92.0349 477.276 92.0349C476.836 92.0349 476.479 92.3916 476.479 92.8315C476.479 93.2715 476.836 93.6281 477.276 93.6281Z" fill="#E6E6E6"/>
<path id="Vector_40" d="M395.516 119.754L440.287 124.256L437.551 142.058L394.442 136.898L395.516 119.754Z" fill="#FAFAFA"/>
<path id="Vector_41" d="M437.943 127.524C437.943 127.681 437.897 127.835 437.809 127.966C437.721 128.097 437.597 128.199 437.452 128.26C437.306 128.32 437.146 128.336 436.991 128.305C436.837 128.274 436.695 128.198 436.583 128.087C436.472 127.975 436.396 127.834 436.365 127.679C436.335 127.525 436.35 127.364 436.411 127.219C436.471 127.073 436.573 126.949 436.704 126.861C436.835 126.774 436.989 126.727 437.147 126.727C437.358 126.727 437.561 126.811 437.71 126.96C437.859 127.11 437.943 127.312 437.943 127.524Z" fill="#E6E6E6"/>
<path id="Vector_42" d="M419.991 247.658L429.885 197.092H476.214L466.586 247.658H419.991Z" fill="#EBEBEB"/>
<path id="Vector_43" d="M427.045 241.32L434.457 203.431H469.172L461.956 241.32H427.045Z" fill="#FAFAFA"/>
<path id="Vector_44" d="M436.246 203.431L429.065 241.32H427.045L434.457 203.431H436.246Z" fill="#E6E6E6"/>
<path id="Vector_45" d="M476.214 197.092H478.131L469.172 247.658H466.586L476.214 197.092Z" fill="#E6E6E6"/>
<path id="Vector_46" d="M474.852 215.541L481.421 247.659H469.172L474.852 215.541Z" fill="#E0E0E0"/>
</g>
<g id="Screen">
<path id="Vector_47" d="M374.043 52.2747V190.57C374.044 192.816 373.603 195.04 372.745 197.116C371.886 199.192 370.627 201.078 369.039 202.667C367.451 204.256 365.566 205.516 363.491 206.376C361.416 207.236 359.191 207.679 356.945 207.679H343.218V52.2747H374.043Z" fill="#407BFF"/>
<path id="Vector_48" opacity="0.8" d="M374.043 52.2747V190.57C374.044 192.816 373.603 195.04 372.745 197.116C371.886 199.192 370.627 201.078 369.039 202.667C367.451 204.256 365.566 205.516 363.491 206.376C361.416 207.236 359.191 207.679 356.945 207.679H343.218V52.2747H374.043Z" fill="white"/>
<path id="Vector_49" d="M374.043 41.769V190.57C374.045 192.816 373.604 195.04 372.745 197.116C371.886 199.192 370.627 201.078 369.039 202.667C367.452 204.256 365.566 205.516 363.491 206.376C361.416 207.236 359.192 207.679 356.945 207.679H115.279C110.741 207.679 106.389 205.876 103.18 202.668C99.9718 199.459 98.1692 195.107 98.1692 190.57V41.769C98.1677 39.5217 98.6092 37.2962 99.4685 35.2197C100.328 33.1432 101.588 31.2565 103.177 29.6674C104.766 28.0784 106.653 26.8182 108.729 25.9589C110.806 25.0996 113.031 24.6581 115.279 24.6596H356.945C359.192 24.6596 361.416 25.1022 363.491 25.9622C365.566 26.8222 367.452 28.0826 369.039 29.6715C370.627 31.2604 371.886 33.1466 372.745 35.2224C373.604 37.2981 374.045 39.5227 374.043 41.769Z" fill="white" stroke="#407BFF" stroke-miterlimit="10"/>
<path id="Vector_50" d="M373.258 36.6315H98.9541C100.047 33.1588 102.22 30.1253 105.156 27.9722C108.092 25.8191 111.638 24.6587 115.278 24.6596H356.945C360.584 24.6611 364.128 25.8227 367.061 27.9756C369.995 30.1285 372.165 33.1607 373.258 36.6315V36.6315Z" fill="#407BFF"/>
<path id="Vector_51" d="M133.034 33.0758C134.373 33.0758 135.459 31.9903 135.459 30.6514C135.459 29.3124 134.373 28.227 133.034 28.227C131.695 28.227 130.61 29.3124 130.61 30.6514C130.61 31.9903 131.695 33.0758 133.034 33.0758Z" fill="white"/>
<path id="Vector_52" d="M141.693 33.0758C143.032 33.0758 144.117 31.9903 144.117 30.6514C144.117 29.3124 143.032 28.227 141.693 28.227C140.354 28.227 139.269 29.3124 139.269 30.6514C139.269 31.9903 140.354 33.0758 141.693 33.0758Z" fill="white"/>
<path id="Vector_53" d="M152.764 30.6514C152.764 31.1336 152.621 31.6051 152.353 32.0059C152.085 32.4067 151.704 32.7189 151.258 32.903C150.812 33.087 150.322 33.1346 149.849 33.0396C149.376 32.9447 148.942 32.7115 148.602 32.3697C148.262 32.0279 148.031 31.5928 147.938 31.1195C147.845 30.6462 147.895 30.156 148.081 29.7111C148.267 29.2662 148.581 28.8866 148.984 28.6203C149.386 28.3541 149.858 28.2131 150.34 28.2154C150.659 28.2154 150.976 28.2785 151.271 28.4011C151.565 28.5236 151.833 28.7032 152.058 28.9296C152.284 29.1559 152.462 29.4246 152.583 29.72C152.704 30.0155 152.766 30.332 152.764 30.6514V30.6514Z" fill="white"/>
<path id="Vector_54" d="M374.043 41.769V52.2747H98.1228V41.769C98.1226 40.0266 98.3873 38.2943 98.9078 36.6315H373.212C373.748 38.2919 374.028 40.0242 374.043 41.769V41.769Z" fill="#407BFF"/>
<path id="Vector_55" opacity="0.5" d="M374.043 41.769V52.2747H98.1228V41.769C98.1226 40.0266 98.3873 38.2943 98.9078 36.6315H373.212C373.748 38.2919 374.028 40.0242 374.043 41.769V41.769Z" fill="white"/>
<path id="Vector_56" d="M130.621 52.2747V207.679H114.897C111.199 207.709 107.587 206.566 104.581 204.412C101.575 202.259 99.3298 199.206 98.1689 195.695V52.2747H130.621Z" fill="#407BFF"/>
<path id="Vector_57" opacity="0.1" d="M130.621 52.2747V207.679H114.897C111.199 207.709 107.587 206.566 104.581 204.412C101.575 202.259 99.3298 199.206 98.1689 195.695V52.2747H130.621Z" fill="black"/>
<path id="Vector_58" opacity="0.1" d="M332.401 63.2884H141.693V192.001H332.401V63.2884Z" fill="#407BFF"/>
<path id="Vector_59" opacity="0.2" d="M111.342 69.7766H103.145V77.9734H111.342V69.7766Z" fill="black"/>
<path id="Vector_60" opacity="0.2" d="M123.752 69.7766H115.555V77.9734H123.752V69.7766Z" fill="black"/>
<path id="Vector_61" d="M256.124 127.131C263.109 118.08 267.669 106.2 266.723 94.5979C265.834 83.7111 257.048 77.0729 246.381 79.682C241.878 80.8365 237.757 83.03 233.601 85.0965C226.674 88.56 219.377 91.5154 211.666 92.4505C203.954 93.3857 196.322 92.4505 188.807 95.3945C175.727 100.497 172.09 117.214 177.135 129.336C181.614 140.096 192.282 148.408 203.63 150.717" stroke="#263238" stroke-linecap="round" stroke-linejoin="round"/>
<path id="Vector_62" opacity="0.2" d="M111.342 82.776H103.145V90.9728H111.342V82.776Z" fill="black"/>
<path id="Vector_63" opacity="0.2" d="M123.752 82.776H115.555V90.9728H123.752V82.776Z" fill="black"/>
<path id="Vector_64" opacity="0.2" d="M111.342 95.7754H103.145V103.972H111.342V95.7754Z" fill="black"/>
<path id="Vector_65" opacity="0.2" d="M123.752 95.7754H115.555V103.972H123.752V95.7754Z" fill="black"/>
<path id="Vector_66" opacity="0.2" d="M111.342 108.775H103.145V116.972H111.342V108.775Z" fill="black"/>
<path id="Vector_67" opacity="0.2" d="M123.752 108.775H115.555V116.972H123.752V108.775Z" fill="black"/>
<path id="Vector_68" opacity="0.2" d="M111.342 121.763H103.145V129.96H111.342V121.763Z" fill="black"/>
<path id="Vector_69" opacity="0.2" d="M123.752 121.763H115.555V129.96H123.752V121.763Z" fill="black"/>
<path id="Vector_70" opacity="0.2" d="M111.342 134.762H103.145V142.959H111.342V134.762Z" fill="black"/>
<path id="Vector_71" opacity="0.2" d="M123.752 134.762H115.555V142.959H123.752V134.762Z" fill="black"/>
<path id="Vector_72" d="M111.076 147.392C111.076 147.578 111.021 147.759 110.918 147.913C110.814 148.067 110.668 148.187 110.496 148.257C110.325 148.328 110.136 148.345 109.954 148.308C109.773 148.271 109.606 148.181 109.476 148.049C109.345 147.917 109.257 147.75 109.222 147.567C109.188 147.385 109.208 147.197 109.28 147.026C109.353 146.856 109.475 146.71 109.63 146.609C109.785 146.508 109.967 146.455 110.152 146.457C110.275 146.457 110.396 146.481 110.509 146.528C110.621 146.576 110.724 146.645 110.81 146.732C110.896 146.819 110.963 146.922 111.009 147.035C111.055 147.149 111.078 147.27 111.076 147.392V147.392Z" fill="#263238"/>
<path id="Vector_73" d="M114.436 147.392C114.436 147.577 114.381 147.758 114.278 147.912C114.175 148.065 114.029 148.185 113.858 148.256C113.688 148.327 113.5 148.345 113.318 148.309C113.137 148.273 112.97 148.184 112.839 148.053C112.709 147.923 112.619 147.756 112.583 147.575C112.547 147.393 112.566 147.205 112.637 147.034C112.707 146.863 112.827 146.717 112.981 146.615C113.135 146.512 113.316 146.457 113.501 146.457C113.624 146.455 113.746 146.479 113.86 146.525C113.974 146.571 114.078 146.64 114.165 146.727C114.252 146.815 114.321 146.918 114.368 147.032C114.414 147.147 114.437 147.269 114.436 147.392V147.392Z" fill="#263238"/>
<path id="Vector_74" d="M117.784 147.392C117.784 147.578 117.728 147.759 117.625 147.913C117.522 148.067 117.375 148.187 117.204 148.257C117.032 148.328 116.843 148.345 116.662 148.308C116.48 148.271 116.313 148.181 116.183 148.049C116.053 147.917 115.965 147.75 115.93 147.567C115.895 147.385 115.915 147.197 115.988 147.026C116.06 146.856 116.182 146.71 116.337 146.609C116.493 146.508 116.675 146.455 116.86 146.457C116.982 146.457 117.103 146.481 117.216 146.528C117.329 146.576 117.431 146.645 117.517 146.732C117.603 146.819 117.671 146.922 117.717 147.035C117.762 147.149 117.785 147.27 117.784 147.392V147.392Z" fill="#263238"/>
<path id="Vector_75" d="M231.927 138.63L230.46 139.657L229.583 133.25L234.928 136.505L233.601 137.406L235.667 140.454L234.039 141.793L231.927 138.63Z" fill="#263238"/>
</g>
<g id="Character">
<path id="Vector_76" d="M343.911 209.064C343.911 209.064 338.024 237.488 334.041 244.749C330.058 252.011 307.222 251.676 307.222 251.676L280.785 250.36C280.785 250.36 275.751 233.886 297.305 242.429C297.305 242.429 315.488 238.965 322.427 233.193L329.7 203.373L343.911 209.064Z" fill="#FF8B7B"/>
<path id="Vector_77" d="M422.589 420.957H415.535L396.394 316.835L395.736 313.244L402.547 311.986L403.436 316.835L422.589 420.957Z" fill="#407BFF"/>
<path id="Vector_78" opacity="0.5" d="M422.589 420.957H415.535L396.394 316.835L395.736 313.244L402.547 311.986L403.436 316.835L422.589 420.957Z" fill="white"/>
<path id="Vector_79" d="M392.168 420.957H385.207L375.648 316.835L374.632 305.752L374.401 303.293L381.293 302.658L381.582 305.752L382.598 316.835L392.168 420.957Z" fill="#407BFF"/>
<path id="Vector_80" opacity="0.5" d="M392.168 420.957H385.207L375.648 316.835L374.632 305.752L374.401 303.293L381.293 302.658L381.582 305.752L382.598 316.835L392.168 420.957Z" fill="white"/>
<path id="Vector_81" d="M320.984 307.068L320.245 316.835L312.325 420.957H305.375L313.283 316.835L314.068 306.548L320.984 307.068Z" fill="#407BFF"/>
<path id="Vector_82" opacity="0.5" d="M320.984 307.068L320.245 316.835L312.325 420.957H305.375L313.283 316.835L314.068 306.548L320.984 307.068Z" fill="white"/>
<path id="Vector_83" d="M300.907 307.38L299.348 316.835L282.181 420.957H275.162L292.341 316.835L294.084 306.248L300.907 307.38Z" fill="#407BFF"/>
<path id="Vector_84" opacity="0.5" d="M300.907 307.38L299.348 316.835L282.181 420.957H275.162L292.341 316.835L294.084 306.248L300.907 307.38Z" fill="white"/>
<path id="Vector_85" d="M414.127 304.124L413.492 305.752L410.455 313.429C410.065 314.436 409.378 315.301 408.485 315.909C407.593 316.517 406.536 316.84 405.456 316.835H291.094C289.984 316.837 288.901 316.497 287.992 315.86C287.083 315.224 286.392 314.322 286.014 313.279L283.324 305.752L282.689 303.962C282.398 303.151 282.307 302.281 282.423 301.427C282.539 300.572 282.859 299.759 283.356 299.054C283.854 298.35 284.513 297.776 285.279 297.38C286.045 296.984 286.895 296.779 287.757 296.781H409.128C410.004 296.78 410.867 296.994 411.641 297.403C412.416 297.812 413.079 298.404 413.572 299.129C414.065 299.853 414.373 300.687 414.47 301.557C414.567 302.428 414.449 303.309 414.127 304.124V304.124Z" fill="#407BFF"/>
<path id="Vector_86" opacity="0.3" d="M413.492 305.752L410.455 313.429C410.065 314.436 409.378 315.301 408.485 315.909C407.593 316.517 406.536 316.84 405.456 316.835H291.094C289.984 316.837 288.901 316.497 287.992 315.86C287.083 315.224 286.392 314.322 286.014 313.279L283.324 305.752H413.492Z" fill="black"/>
<path id="Vector_87" d="M297.674 372.134L303.077 359.862C303.391 359.147 303.954 358.57 304.661 358.239C305.368 357.907 306.171 357.844 306.922 358.061L315.465 360.486C315.912 360.614 316.326 360.836 316.679 361.138C317.032 361.44 317.317 361.815 317.512 362.236C317.708 362.658 317.812 363.117 317.815 363.581C317.818 364.046 317.721 364.506 317.531 364.93C315.222 370.149 310.835 379.869 309.45 383.344C307.568 388.182 305.987 394.012 303.47 395.639C303.316 395.741 303.154 395.83 302.985 395.905C302.455 396.123 301.876 396.194 301.309 396.112C300.741 396.029 300.207 395.796 299.761 395.436C299.315 395.076 298.974 394.603 298.773 394.066C298.573 393.529 298.52 392.948 298.621 392.384C299.291 388.32 300.018 380.724 297.57 374.593C297.421 374.198 297.354 373.776 297.371 373.353C297.389 372.931 297.492 372.516 297.674 372.134Z" fill="#263238"/>
<path id="Vector_88" d="M344.327 255.486C344.327 255.486 285.968 247.52 268.339 264.098C268.339 264.098 257.418 279.003 262.671 308.176C266.106 326.181 273.569 343.176 284.502 357.888L299.822 344.866C299.822 344.866 286.187 311.282 290.805 290.501L312.001 289.243L342.399 268.462L345.585 259.85L344.327 255.486Z" fill="#263238"/>
<path id="Vector_89" d="M285.91 363.753L280.196 356.814L301.138 339.59L305.098 343.711L285.91 363.753Z" fill="#407BFF"/>
<path id="Vector_90" d="M401.693 254.851C401.693 254.851 403.309 271.475 398.033 283.644C392.757 295.812 374.112 300.268 361.54 299.46C348.968 298.652 332.747 297.613 325.855 299.552C325.855 299.552 316.931 350.153 301.519 387.05L282.862 385.434C282.862 385.434 292.999 314.018 294.626 297.428C296.254 280.838 295.435 278.368 305.571 270.263C315.707 262.159 367.624 251.203 401.693 254.851Z" fill="#263238"/>
<path id="Vector_91" d="M296.774 393.735L295.008 401.458L280.196 406.642L284.502 390.19L296.774 393.735Z" fill="#FF8B7B"/>
<path id="Vector_92" d="M279.999 406.157L292.583 401.481C293.316 401.211 294.122 401.215 294.852 401.493C295.582 401.771 296.187 402.304 296.554 402.993L300.757 410.809C300.985 411.221 301.121 411.677 301.154 412.146C301.188 412.615 301.119 413.086 300.952 413.526C300.785 413.966 300.524 414.363 300.187 414.692C299.85 415.02 299.446 415.271 299.002 415.427C293.634 417.378 283.624 421.026 280.195 422.481C275.416 424.513 270.128 427.434 267.208 426.753C267.027 426.715 266.85 426.665 266.677 426.603C266.151 426.372 265.696 426.005 265.36 425.539C265.025 425.072 264.82 424.525 264.768 423.953C264.717 423.381 264.819 422.806 265.065 422.287C265.312 421.768 265.693 421.325 266.169 421.003C269.551 418.694 275.508 413.892 278.198 407.865C278.367 407.473 278.614 407.12 278.923 406.826C279.233 406.533 279.599 406.305 279.999 406.157V406.157Z" fill="#263238"/>
<path id="Vector_93" d="M343.911 259.307C343.911 259.307 336.315 209.064 334.675 196.838C333.036 184.612 334.675 178.367 339.293 174.361C343.911 170.355 365.084 161.8 379.296 164.109C393.507 166.418 400.446 178.321 402.385 191.816L399.084 193.467C399.084 193.467 403.309 240.293 401.773 256.49L343.911 259.307Z" fill="#407BFF"/>
<path id="Vector_94" d="M339.282 174.326C339.282 174.326 328.049 184.243 328.049 203.407L345.562 210.115L339.282 174.326Z" fill="#407BFF"/>
<path id="Vector_95" d="M399.349 193.283C399.349 193.283 405.711 215.772 403.967 225.065C402.224 234.359 386.396 246.827 364.392 250.983C364.392 250.983 354.613 252.692 348.979 248.051L340.425 245.604L342.872 238.019C349.392 238.134 355.812 239.642 361.702 242.44C361.702 242.44 382.725 232.904 389.328 225.573C389.328 225.573 388.59 210.658 384.93 200.175L399.349 193.283Z" fill="#FF8B7B"/>
<path id="Vector_96" d="M304.117 387.05L279.561 383.356L278.672 391.079L300.953 395.628L304.117 387.05Z" fill="#407BFF"/>
<path id="Vector_97" d="M326.975 143.363C325.454 147.801 325.644 152.646 327.506 156.951C326.641 153.517 326.802 149.905 327.968 146.561C329.122 143.398 331.027 140.615 332.505 137.614C333.983 134.612 334.987 131.114 334.006 127.916C333.798 127.281 333.336 126.542 332.678 126.646C332.02 126.75 331.882 127.304 331.697 127.801C331.06 129.116 330.572 130.498 330.242 131.922C330.081 133.019 330.242 134.104 330.081 135.224C329.538 138.041 327.933 140.604 326.975 143.363Z" fill="#263238"/>
<path id="Vector_98" d="M333.775 133.631C332.888 133.965 332.113 134.542 331.537 135.295C330.962 136.048 330.609 136.947 330.519 137.891C328.798 136.782 327.518 135.107 326.901 133.155C326.283 131.203 326.366 129.097 327.136 127.2C329.803 120.273 333.417 110.449 344.176 111.88C354.936 113.312 377.495 116.498 369.413 140.535C361.332 164.571 353.32 135.212 353.32 135.212L333.775 133.631Z" fill="#263238"/>
<path id="Vector_99" d="M357.315 178.552C347.513 177.94 351.669 169.489 352.12 166.36C352.239 164.996 351.941 163.627 351.265 162.435C350.809 161.55 350.251 160.721 349.603 159.964C345.308 159.964 340.552 159.387 337.146 156.501C333.336 153.326 331.824 147.404 331.201 142.705C330.712 138.358 330.626 133.976 330.947 129.613C330.947 128.967 331.039 128.332 331.062 127.697C331.212 125.192 331.374 122.698 331.466 120.25C331.466 120.25 340.967 118.161 349.453 120.1C355.733 121.532 360.143 126.75 362.048 134.958C362.75 138.085 363.102 141.279 363.099 144.483C363.272 158.129 368.617 160.519 370.707 164.525C372.796 168.531 367.139 179.129 357.315 178.552Z" fill="#FF8B7B"/>
<path id="Vector_100" d="M339.801 145.66L337.492 136.875L335.911 146.111C335.911 146.111 337.192 147.161 339.801 145.66Z" fill="#FF5652"/>
<path id="Vector_101" d="M346.59 147.161C346.59 147.161 345.147 150.255 340.552 150.798" stroke="#263238" stroke-width="0.5" stroke-linecap="round" stroke-linejoin="round"/>
<path id="Vector_102" d="M346.105 132.28C345.478 131.591 344.655 131.11 343.746 130.904C342.838 130.697 341.888 130.775 341.025 131.126" stroke="#263238" stroke-width="0.75" stroke-linecap="round" stroke-linejoin="round"/>
<path id="Vector_103" d="M342.457 136.586C342.537 137.475 343.057 138.156 343.611 138.11C344.165 138.064 344.558 137.302 344.489 136.413C344.419 135.524 343.888 134.843 343.334 134.889C342.78 134.935 342.387 135.697 342.457 136.586Z" fill="#263238"/>
<path id="Vector_104" d="M332.251 139.103C332.332 139.992 332.851 140.673 333.405 140.627C333.96 140.581 334.352 139.819 334.283 138.93C334.214 138.041 333.683 137.348 333.128 137.406C332.574 137.464 332.251 138.214 332.251 139.103Z" fill="#263238"/>
<path id="Vector_105" d="M330.773 127.835C334.476 126.989 337.953 125.355 340.967 123.044C344.362 134.266 358.816 134.67 362.429 134.67C360.536 126.461 355.987 120.758 349.73 119.327C341.256 117.387 331.258 119.627 331.258 119.627C331.166 122.086 330.912 125.342 330.773 127.835Z" fill="#263238"/>
<path id="Vector_106" d="M343.334 134.889L340.967 134.439C340.967 134.439 341.579 136.159 343.334 134.889Z" fill="#263238"/>
<path id="Vector_107" d="M333.602 137.452L331.235 137.013C331.235 137.013 331.847 138.722 333.602 137.452Z" fill="#263238"/>
<path id="Vector_108" d="M364.843 113.673C366.021 108.796 362.825 103.84 357.705 102.604C352.586 101.368 347.481 104.321 346.304 109.199C345.126 114.076 348.322 119.032 353.442 120.268C358.561 121.504 363.666 118.551 364.843 113.673Z" fill="#263238"/>
<path id="Vector_109" d="M337.873 124.684L335.957 127.2C335.957 127.2 341.025 126.323 342.145 122.859C343.265 119.396 339.04 122.109 339.04 122.109L337.873 124.684Z" fill="#263238"/>
<path id="Vector_110" opacity="0.1" d="M356.08 157.217C354.839 159.259 353.202 161.034 351.265 162.435C350.809 161.55 350.251 160.721 349.603 159.964C351.887 159.377 354.07 158.451 356.08 157.217Z" fill="black"/>
<path id="Vector_111" d="M330.081 135.155C330.344 134.333 330.89 133.631 331.621 133.173C332.351 132.715 333.221 132.529 334.075 132.649" stroke="#263238" stroke-width="0.75" stroke-linecap="round" stroke-linejoin="round"/>
<path id="Vector_112" d="M359.474 136.078C359.789 135.607 360.149 135.166 360.547 134.762C361.898 133.388 364.103 131.587 366.146 132.592C368.617 133.746 368.098 137.267 367.405 139.392C366.847 141.293 365.572 142.903 363.849 143.883C361.413 145.141 357.788 144.471 357.811 141.193C357.85 139.361 358.428 137.582 359.474 136.078V136.078Z" fill="#FF8B7B"/>
<path id="Vector_113" d="M362.048 132.303C362.048 132.303 358.008 139.115 359.658 145.141C361.309 151.167 360.397 154.007 359.254 157.205C359.254 157.205 359.705 148.05 357.811 144.748C354.925 139.703 358.966 132.28 358.966 132.28L362.048 132.303Z" fill="#263238"/>
<path id="Vector_114" d="M346.439 111.984C346.439 111.984 356.899 113.231 363.191 117.526C363.191 117.468 357.73 110.206 346.439 111.984Z" fill="#407BFF"/>
<path id="Vector_115" d="M217.311 247.658H283.116C283.785 247.659 284.444 247.507 285.045 247.215C285.646 246.922 286.172 246.496 286.584 245.97C286.996 245.444 287.282 244.83 287.422 244.177C287.561 243.523 287.549 242.846 287.388 242.198L275.682 195.545C275.444 194.592 274.895 193.746 274.121 193.141C273.347 192.536 272.392 192.208 271.41 192.209H205.605C204.937 192.208 204.277 192.36 203.676 192.653C203.075 192.945 202.549 193.371 202.137 193.897C201.725 194.424 201.439 195.037 201.3 195.691C201.16 196.344 201.172 197.021 201.333 197.67L212.97 244.322C213.21 245.287 213.77 246.142 214.558 246.748C215.347 247.354 216.317 247.675 217.311 247.658V247.658Z" fill="#263238"/>
<path id="Vector_116" d="M325.567 247.497H280.842V244.033H323.281C323.893 244.033 324.481 244.277 324.914 244.71C325.347 245.143 325.59 245.73 325.59 246.342V247.566L325.567 247.497Z" fill="#263238"/>
<path id="Vector_117" opacity="0.3" d="M217.311 247.658H283.116C283.785 247.659 284.444 247.507 285.045 247.215C285.646 246.922 286.172 246.496 286.584 245.97C286.996 245.444 287.282 244.83 287.422 244.177C287.561 243.523 287.549 242.846 287.388 242.198L275.682 195.545C275.444 194.592 274.895 193.746 274.121 193.141C273.347 192.536 272.392 192.208 271.41 192.209H205.605C204.937 192.208 204.277 192.36 203.676 192.653C203.075 192.945 202.549 193.371 202.137 193.897C201.725 194.424 201.439 195.037 201.3 195.691C201.16 196.344 201.172 197.021 201.333 197.67L212.97 244.322C213.21 245.287 213.77 246.142 214.558 246.748C215.347 247.354 216.317 247.675 217.311 247.658V247.658Z" fill="black"/>
<path id="Vector_118" d="M213.859 247.659H279.665C280.333 247.659 280.993 247.507 281.593 247.215C282.194 246.922 282.721 246.496 283.132 245.97C283.544 245.444 283.83 244.83 283.97 244.177C284.109 243.523 284.098 242.846 283.936 242.198L272.218 195.545C271.981 194.592 271.432 193.746 270.657 193.141C269.883 192.536 268.929 192.208 267.947 192.209H202.141C201.473 192.208 200.814 192.36 200.213 192.653C199.612 192.945 199.086 193.371 198.674 193.897C198.262 194.424 197.976 195.037 197.836 195.691C197.697 196.344 197.709 197.021 197.87 197.67L209.507 244.322C209.749 245.288 210.311 246.143 211.102 246.749C211.892 247.355 212.864 247.675 213.859 247.659V247.659Z" fill="#263238"/>
<path id="Vector_119" opacity="0.2" d="M213.859 247.659H279.665C280.333 247.659 280.993 247.507 281.593 247.215C282.194 246.922 282.721 246.496 283.132 245.97C283.544 245.444 283.83 244.83 283.97 244.177C284.109 243.523 284.098 242.846 283.936 242.198L272.218 195.545C271.981 194.592 271.432 193.746 270.657 193.141C269.883 192.536 268.929 192.208 267.947 192.209H202.141C201.473 192.208 200.814 192.36 200.213 192.653C199.612 192.945 199.086 193.371 198.674 193.897C198.262 194.424 197.976 195.037 197.836 195.691C197.697 196.344 197.709 197.021 197.87 197.67L209.507 244.322C209.749 245.288 210.311 246.143 211.102 246.749C211.892 247.355 212.864 247.675 213.859 247.659V247.659Z" fill="white"/>
<path id="Vector_120" opacity="0.3" d="M243.829 218.566C244.741 222.456 242.906 226.231 239.719 226.982C236.533 227.732 233.185 225.192 232.261 221.302C231.338 217.411 233.185 213.636 236.371 212.886C239.558 212.135 242.906 214.733 243.829 218.566Z" fill="black"/>
<path id="Vector_121" d="M197.893 251.711L173.614 402.278H168.234L192.652 250.856L197.893 251.711Z" fill="#407BFF"/>
<path id="Vector_122" opacity="0.5" d="M197.893 251.711L173.614 402.278H168.234L192.652 250.856L197.893 251.711Z" fill="white"/>
<path id="Vector_123" d="M233.613 402.278H228.221L204.762 251.699L210.015 250.879L233.613 402.278Z" fill="#407BFF"/>
<path id="Vector_124" opacity="0.5" d="M233.613 402.278H228.221L204.762 251.699L210.015 250.879L233.613 402.278Z" fill="white"/>
<path id="Vector_125" d="M289.628 251.711L265.349 402.278H259.958L284.375 250.856L289.628 251.711Z" fill="#407BFF"/>
<path id="Vector_126" opacity="0.5" d="M289.628 251.711L265.349 402.278H259.958L284.375 250.856L289.628 251.711Z" fill="white"/>
<path id="Vector_127" d="M370.66 402.278H365.281L341.81 251.699L347.063 250.879L370.66 402.278Z" fill="#407BFF"/>
<path id="Vector_128" opacity="0.5" d="M370.66 402.278H365.281L341.81 251.699L347.063 250.879L370.66 402.278Z" fill="white"/>
<path id="Vector_129" d="M377.276 246.573H154.173V253.581H377.276V246.573Z" fill="#407BFF"/>
<path id="Vector_130" opacity="0.3" d="M377.379 246.573H287.457V253.581H377.379V246.573Z" fill="black"/>
<path id="Vector_131" d="M369.275 246.573H332.424C332.424 246.028 332.641 245.506 333.026 245.12C333.412 244.735 333.934 244.518 334.479 244.518H367.209C367.755 244.518 368.279 244.734 368.666 245.119C369.053 245.505 369.272 246.027 369.275 246.573V246.573Z" fill="#263238"/>
<path id="Vector_132" d="M355.895 226.936L350.931 238.85C350.018 238.665 349.199 238.538 348.622 238.457L353.794 226.047C353.912 225.763 354.137 225.539 354.421 225.422C354.704 225.305 355.023 225.305 355.306 225.423C355.589 225.541 355.814 225.767 355.931 226.05C356.048 226.334 356.047 226.652 355.929 226.936H355.895Z" fill="#263238"/>
<path id="Vector_133" d="M359.404 217.608C365.78 217.608 370.949 211.622 370.949 204.239C370.949 196.855 365.78 190.87 359.404 190.87C353.028 190.87 347.859 196.855 347.859 204.239C347.859 211.622 353.028 217.608 359.404 217.608Z" fill="#263238"/>
<path id="Vector_134" d="M384.93 200.129L384.145 197.346L401.82 188.538L402.42 191.874L384.93 200.129Z" fill="#263238"/>
<path id="Vector_135" opacity="0.1" d="M384.145 197.346L378.788 189.323L387.297 209.203L384.145 197.346Z" fill="black"/>
<path id="Vector_136" d="M336.026 206.455L335.541 203.442L328.049 200.59V203.442L336.026 206.455Z" fill="#263238"/>
<path id="Vector_137" opacity="0.1" d="M336.026 206.455C335.876 205.878 334.041 193.283 334.041 193.283V205.705L336.026 206.455Z" fill="black"/>
<path id="Vector_138" d="M350.954 168.484C350.954 168.484 345.897 179.775 357.811 179.417C369.725 179.059 372.727 170.262 373.327 163.716L369.61 162.435C369.61 162.435 367.463 171.671 359.404 173.506C351.346 175.342 352.016 166.937 352.016 166.937L350.954 168.484Z" fill="#263238"/>
<path id="Vector_139" opacity="0.1" d="M283.255 394.935L295.827 397.891L296.543 394.739L283.982 392.164L283.255 394.935Z" fill="black"/>
</g>
</g>
</g>
</svg>
